<?xml version="1.0" encoding="UTF-8"?>
<!DOCTYPE svg PUBLIC "-//W3C//DTD SVG 1.1//EN" "http://www.w3.org/Graphics/SVG/1.1/DTD/svg11.dtd">
<!-- Creator: CorelDRAW -->
<svg xmlns="http://www.w3.org/2000/svg" xml:space="preserve" style="shape-rendering:geometricPrecision; text-rendering:geometricPrecision; image-rendering:optimizeQuality; fill-rule:evenodd; clip-rule:evenodd"
viewBox="0 0 500 517.109" xmlns:xlink="http://www.w3.org/1999/xlink">
 <defs>
  <style type="text/css">
   <![CDATA[
    .fil1 {fill:#FEFEFE}
    .fil0 {fill:url(#id0)}
   ]]>
  </style>
  <linearGradient id="id0" gradientUnits="userSpaceOnUse" x1="250" y1="517.109" x2="250" y2="0">
   <stop offset="0" style="stop-color:#EF7F1A"/>
   <stop offset="1" style="stop-color:#E85222"/>
  </linearGradient>
 </defs>
 <g id="Vrstva_x0020_1">
  <metadata id="CorelCorpID_0Corel-Layer"/>
  <path class="fil0" d="M340.603 75.8092l113.415 0 5.16855 0 0.533626 5.16347 40.2341 390.411 0.0457394 0.440877 0 0.1423c0,12.4297 -5.05801,23.7146 -13.2263,31.888 -8.17464,8.181 -19.4545,13.2543 -31.8842,13.2543l-409.716 0c-12.4335,0 -23.7248,-5.06437 -31.9058,-13.239 -8.19243,-8.18354 -13.2682,-19.4735 -13.2682,-31.9032l0 -0.138489 0.0457394 -0.444688 39.9927 -390.411 0.528544 -5.16347 5.17363 0 113.628 0c3.81161,-20.833 14.5731,-39.2685 29.8005,-52.7362 16.2273,-14.3495 37.5025,-23.073 60.8181,-23.073 23.3258,0 44.6099,8.72733 60.8334,23.0806 15.2287,13.4715 25.9863,31.9045 29.7827,52.7286zm-90.6046 -46.3111c28.7078,0 52.8137,19.6933 59.5463,46.3086l-119.091 0c6.73258,-26.6152 30.8385,-46.3086 59.545,-46.3086z"/>
  <path class="fil1" d="M348.474 313.831c-5.04912,-1.62502 -9.99532,-1.20574 -14.8475,1.21463 -4.85346,2.42038 -8.08443,6.26121 -9.6904,11.5149 -5.04531,16.1625 -14.3939,29.2452 -28.0319,39.2406 -13.6316,9.99787 -28.9378,15 -45.9084,15 -16.9668,0 -32.2666,-5.00465 -45.9045,-15 -13.6354,-9.99914 -22.9777,-23.0781 -28.0293,-39.2406 -1.61358,-5.25241 -4.79755,-9.09451 -9.54301,-11.5149 -4.748,-2.4191 -9.64466,-2.83965 -14.695,-1.21463 -5.25241,1.61358 -9.08943,4.79628 -11.5149,9.5392 -2.42419,4.74292 -2.82949,9.65355 -1.21209,14.695 7.47076,24.4502 21.4111,44.1436 41.8134,59.0927 20.4061,14.9504 43.4346,22.4174 69.0893,22.4174 25.6509,0 48.6858,-7.46695 69.0906,-22.4174 20.3896,-14.9568 34.3299,-34.6425 41.8045,-59.0927 1.62629,-5.0415 1.22099,-9.95213 -1.20574,-14.695 -2.43308,-4.74292 -6.17355,-7.91672 -11.215,-9.5392z"/>
  <path class="fil1" d="M313.376 188.346l0.0368456 -0.0355751 0.0775028 -0.0520921 0.0597153 -0.0571742c4.95891,-4.88649 11.4209,-7.33101 17.8536,-7.33101 6.46323,0 12.9366,2.46993 17.8701,7.3958l0.0127054 -0.0127054 0.0571742 0.0571742 0.049551 0.049551 0 0.0241402c4.93223,4.96653 7.39834,11.4488 7.39834,17.9032 0,6.45815 -2.47247,12.9315 -7.41359,17.8727l0.0152465 0.0127054 -0.049551 0.049551 -0.129595 0.129595 -0.0241402 0c-4.91952,4.8903 -11.3548,7.3399 -17.785,7.3399 -6.41876,0 -12.8629,-2.43816 -17.8104,-7.31195l-0.0508215 -0.0266813 -0.130865 -0.130865 -0.033034 -0.0343045 0.0127054 -0.0127054c-4.94366,-4.94366 -7.42248,-11.4221 -7.42248,-17.8879 0,-6.46196 2.46993,-12.9506 7.40597,-17.9159l0 -0.0254108z"/>
  <path class="fil1" d="M150.549 188.434l0.123242 -0.123242 0.0597153 -0.0609858 0.0254108 0c4.96145,-4.91698 11.4387,-7.37929 17.8866,-7.37929 6.47212,0 12.9404,2.45976 17.8612,7.37929l0.0609858 0.0609858 0.0533626 0.0520921 0 0.0254108c4.92842,4.96526 7.3958,11.4463 7.3958,17.8993 0,6.47975 -2.46739,12.9569 -7.3958,17.8841l-0.0584448 0.0457394 0.00508215 0.00508215 -0.132136 0.132136 -0.0241402 0c-4.91825,4.88776 -11.3446,7.33736 -17.7659,7.33736 -6.40987,0 -12.8426,-2.43816 -17.7863,-7.30941l-0.0520921 -0.0254108 -0.133407 -0.134677 -0.120701 -0.120701 0 -0.0254108c-4.90047,-4.92715 -7.35769,-11.3586 -7.35769,-17.7888 0,-6.41876 2.44579,-12.8566 7.32846,-17.8028l0.0266813 -0.0508215z"/>
 </g>
</svg>
