<?xml version="1.0" encoding="utf-8"?>
<svg version="1.1" xmlns="http://www.w3.org/2000/svg" viewBox="0 0 2200 2200">
<path d="M730,1630c0,35.3-12.5,65.5-37.5,90.5S637.3,1758,602,1758c-34.7,0-64.7-12.7-90-38c-25.3-25.3-38-55.3-38-90
	c0-35.3,12.5-65.5,37.5-90.5s55.2-37.5,90.5-37.5s65.5,12.5,90.5,37.5S730,1594.7,730,1630z M1228,1836c0,35.3-12.5,65.5-37.5,90.5
	s-55.2,37.5-90.5,37.5s-65.5-12.5-90.5-37.5S972,1871.3,972,1836s12.5-65.5,37.5-90.5s55.2-37.5,90.5-37.5s65.5,12.5,90.5,37.5
	S1228,1800.7,1228,1836z M524,1132c0,35.3-12.5,65.5-37.5,90.5S431.3,1260,396,1260s-65.5-12.5-90.5-37.5S268,1167.3,268,1132
	s12.5-65.5,37.5-90.5s55.2-37.5,90.5-37.5s65.5,12.5,90.5,37.5S524,1096.7,524,1132z M1726,1630c0,34.7-12.7,64.7-38,90
	s-55.3,38-90,38c-35.3,0-65.5-12.5-90.5-37.5s-37.5-55.2-37.5-90.5s12.5-65.5,37.5-90.5s55.2-37.5,90.5-37.5s65.5,12.5,90.5,37.5
	S1726,1594.7,1726,1630z M762,634c0,44-15.7,81.7-47,113c-31.3,31.3-69,47-113,47s-81.7-15.7-113-47c-31.3-31.3-47-69-47-113
	s15.7-81.7,47-113c31.3-31.3,69-47,113-47s81.7,15.7,113,47C746.3,552.3,762,590,762,634z M1932,1132c0,35.3-12.5,65.5-37.5,90.5
	s-55.2,37.5-90.5,37.5s-65.5-12.5-90.5-37.5s-37.5-55.2-37.5-90.5s12.5-65.5,37.5-90.5s55.2-37.5,90.5-37.5s65.5,12.5,90.5,37.5
	S1932,1096.7,1932,1132z M1292,428c0,53.3-18.7,98.7-56,136s-82.7,56-136,56s-98.7-18.7-136-56s-56-82.7-56-136s18.7-98.7,56-136
	s82.7-56,136-56s98.7,18.7,136,56S1292,374.7,1292,428z M1822,634c0,62-22,114.8-66,158.5s-96.7,65.5-158,65.5
	c-62,0-114.8-21.8-158.5-65.5S1374,696,1374,634c0-61.3,21.8-114,65.5-158s96.5-66,158.5-66c61.3,0,114,22,158,66
	S1822,572.7,1822,634z" fill="#FFF"/>
<animateTransform accumulate="none" additive="replace" attributeName="transform" attributeType="XML" calcMode="linear" dur="1s" fill="remove" from="0 0 0" repeatCount="indefinite" restart="always" to="360 0 0" type="rotate"/>
</svg>
