<?xml version="1.0" standalone="no"?>
<!DOCTYPE svg PUBLIC "-//W3C//DTD SVG 20010904//EN"
 "http://www.w3.org/TR/2001/REC-SVG-20010904/DTD/svg10.dtd">
<svg version="1.0" xmlns="http://www.w3.org/2000/svg"
 width="517.000000pt" height="517.000000pt" viewBox="0 0 517.000000 517.000000"
 preserveAspectRatio="xMidYMid meet">
<metadata>
Created by potrace 1.11, written by Peter Selinger 2001-2013
</metadata>
<g transform="translate(0.000000,517.000000) scale(0.100000,-0.100000)"
fill="#000000" stroke="none">
<path d="M2432 5159 c-241 -40 -477 -194 -617 -404 -62 -92 -87 -148 -120
-260 l-23 -80 -593 -5 -593 -5 -93 -905 c-51 -498 -133 -1305 -183 -1795 -50
-490 -100 -977 -111 -1083 -20 -182 -20 -197 -5 -265 39 -174 169 -304 341
-342 62 -14 308 -15 2180 -13 l2110 3 57 23 c86 35 169 101 216 172 55 81 77
155 75 250 0 41 -75 800 -167 1685 -91 886 -180 1743 -196 1905 -17 162 -33
312 -36 332 l-6 38 -590 2 -590 3 -24 83 c-115 399 -485 676 -894 671 -47 -1
-109 -5 -138 -10z m302 -305 c106 -26 184 -71 273 -159 65 -65 90 -98 122
-165 65 -134 132 -120 -549 -120 -681 0 -614 -14 -550 119 47 97 142 203 230
256 144 86 305 110 474 69z m-853 -1522 c161 -84 186 -292 51 -414 -136 -123
-354 -59 -408 118 -24 80 -14 141 34 212 73 109 208 144 323 84z m1625 5 c70
-36 127 -117 140 -195 14 -88 -36 -195 -114 -247 -128 -84 -302 -32 -368 110
-57 122 -7 263 116 328 49 26 63 28 125 25 39 -3 84 -12 101 -21z m-1742
-1327 c21 -15 46 -45 60 -75 13 -27 46 -95 72 -149 40 -86 59 -112 133 -186
136 -137 276 -206 464 -230 107 -13 228 0 337 36 219 73 397 250 480 479 38
102 104 155 194 155 82 0 142 -39 177 -115 24 -52 24 -87 -2 -166 -113 -343
-388 -615 -738 -728 -122 -40 -217 -55 -361 -55 -144 0 -239 15 -361 55 -314
102 -574 336 -702 632 -52 121 -64 183 -49 236 15 50 53 96 101 121 51 29 145
23 195 -10z"/>
</g>
</svg>
