<?xml version="1.0" standalone="no"?>
<!DOCTYPE svg PUBLIC "-//W3C//DTD SVG 1.1//EN" "http://www.w3.org/Graphics/SVG/1.1/DTD/svg11.dtd" >
<svg xmlns="http://www.w3.org/2000/svg" xmlns:xlink="http://www.w3.org/1999/xlink" version="1.1">
<defs>
<font id="source_sans_pro" horiz-adv-x="520" >
  <font-face 
    font-family="Source Sans Pro"
    font-weight="900"
    font-style="italic"
    font-stretch="normal"
    units-per-em="1000"
    panose-1="2 11 8 3 3 4 3 9 2 4"
    ascent="750"
    descent="-250"
    x-height="500"
    cap-height="650"
    bbox="-134 -252 886 937"
    underline-thickness="50"
    underline-position="-75"
    slope="-11"
    stemh="134"
    stemv="164"
    unicode-range="U+0020-2122"
  />
<missing-glyph horiz-adv-x="500" 
d="M50 0v500h400v-500h-400zM100 50h300v400h-300v-400z" />
    <glyph glyph-name=".notdef" horiz-adv-x="500" 
d="M50 0v500h400v-500h-400zM100 50h300v400h-300v-400z" />
    <glyph glyph-name="space" unicode=" " horiz-adv-x="200" 
 />
    <glyph glyph-name="space" unicode="&#xa0;" horiz-adv-x="200" 
 />
    <glyph glyph-name="exclam" unicode="!" horiz-adv-x="350" 
d="M120 238l58 432h160l-32 -140l-82 -292h-104zM126 -12c-24 0 -43 8 -58 24s-22 35 -22 60c0 18 5 36 14 53s22 32 38 43s36 16 58 16c24 0 43 -8 58 -24s22 -36 22 -60c0 -19 -5 -37 -14 -54s-21 -31 -38 -42s-36 -16 -58 -16z" />
    <glyph glyph-name="quotedbl" unicode="&#x22;" horiz-adv-x="550" 
d="M118 338l20 192l20 140h158l-32 -140l-62 -192h-104zM358 338l20 192l20 140h158l-32 -140l-62 -192h-104z" />
    <glyph glyph-name="numbersign" unicode="#" horiz-adv-x="516" 
d="M32 0l58 182h-74l24 102h82l32 102h-74l24 102h82l52 162h92l-52 -162h90l52 162h92l-52 -162h74l-24 -102h-82l-32 -102h74l-24 -102h-82l-58 -182h-92l58 182h-90l-58 -182h-92zM214 284h90l32 102h-90z" />
    <glyph glyph-name="dollar" unicode="$" 
d="M132 -110l21 106c-28 7 -55 18 -81 34s-49 36 -70 60l98 96c15 -19 34 -35 54 -49s42 -21 66 -21c48 0 72 20 72 60c0 19 -7 37 -20 52s-30 29 -50 44s-38 30 -58 47s-37 35 -50 57s-20 48 -20 78c0 54 17 99 52 136s81 58 139 64l19 100h104l-20 -108
c45 -14 86 -42 122 -84l-100 -90c-13 17 -27 31 -44 41s-35 15 -52 15c-20 0 -35 -5 -46 -16s-16 -24 -16 -40c0 -17 7 -33 20 -47s30 -28 50 -42s38 -30 58 -47s37 -36 50 -59s20 -50 20 -81c0 -55 -17 -101 -52 -138s-82 -60 -141 -67l-21 -101h-104z" />
    <glyph glyph-name="percent" unicode="%" horiz-adv-x="844" 
d="M614 -12c-26 0 -50 7 -72 20s-39 32 -52 56s-20 53 -20 86c0 49 8 92 25 130s40 68 69 90s63 32 102 32c26 0 50 -7 72 -20s39 -32 52 -56s20 -53 20 -86c0 -49 -8 -92 -25 -130s-40 -68 -69 -90s-63 -32 -102 -32zM624 82c20 0 37 14 52 42s22 65 22 114
c0 22 -3 40 -10 52s-18 18 -32 18c-20 0 -37 -14 -52 -41s-22 -66 -22 -115c0 -22 3 -40 10 -52s18 -18 32 -18zM194 258c-26 0 -50 7 -72 20s-39 32 -52 56s-20 53 -20 86c0 49 8 92 25 130s40 68 69 90s63 32 102 32c26 0 50 -7 72 -20s39 -32 52 -56s20 -53 20 -86
c0 -49 -8 -92 -25 -130s-40 -68 -69 -90s-63 -32 -102 -32zM204 352c20 0 37 14 52 42s22 65 22 114c0 22 -3 40 -10 52s-18 18 -32 18c-20 0 -37 -14 -52 -41s-22 -66 -22 -115c0 -22 3 -40 10 -52s18 -18 32 -18zM144 -12l470 684h90l-470 -684h-90z" />
    <glyph glyph-name="ampersand" unicode="&#x26;" horiz-adv-x="652" 
d="M272 470c0 -9 1 -18 2 -26s3 -16 5 -25c26 14 48 29 65 45s25 37 25 61c0 22 -10 33 -31 33c-17 0 -32 -8 -46 -23s-20 -37 -20 -65zM208 -12c-62 0 -110 15 -144 46s-50 71 -50 120c0 35 6 66 20 91s32 47 54 65s47 35 72 49c-13 38 -20 74 -20 107c0 35 10 68 28 98
s43 53 74 71s67 27 106 27c46 0 81 -13 106 -38s38 -59 38 -102c0 -32 -8 -60 -24 -84s-37 -46 -62 -65s-52 -36 -79 -53c13 -19 28 -37 44 -55s33 -35 50 -50c21 23 39 48 54 74s29 54 41 83h144c-19 -39 -39 -78 -62 -116s-50 -74 -81 -109c17 -9 34 -16 50 -21
s30 -9 43 -12l-62 -126c-49 9 -96 29 -142 59c-29 -19 -59 -33 -92 -43s-69 -16 -106 -16zM168 170c0 -18 6 -32 18 -44s28 -18 50 -18c12 0 24 1 37 4s25 7 38 13c-37 37 -70 78 -97 123c-14 -11 -26 -23 -34 -36s-12 -27 -12 -42z" />
    <glyph glyph-name="quotesingle" unicode="'" horiz-adv-x="310" 
d="M118 338l20 192l20 140h158l-32 -140l-62 -192h-104z" />
    <glyph glyph-name="parenleft" unicode="(" horiz-adv-x="344" 
d="M112 -180c-15 42 -28 91 -41 146s-19 110 -19 164c0 77 9 150 27 217s44 132 79 195s79 127 130 192l92 -46c-70 -95 -120 -189 -152 -284s-48 -190 -48 -284c0 -27 2 -57 4 -88s5 -60 10 -90s12 -57 20 -80z" />
    <glyph glyph-name="parenright" unicode=")" horiz-adv-x="346" 
d="M64 -180l-92 46c70 95 120 190 152 285s48 189 48 283c0 27 -2 57 -4 88s-5 60 -10 90s-12 57 -20 80l102 42c15 -42 30 -91 42 -146s18 -110 18 -164c0 -77 -9 -150 -27 -217s-44 -132 -79 -195s-79 -127 -130 -192z" />
    <glyph glyph-name="asterisk" unicode="*" horiz-adv-x="452" 
d="M172 340l-60 56l78 102l-98 58l36 74l110 -34l34 118l82 -6l-8 -122l118 14l12 -80l-114 -40l38 -110l-74 -42l-64 96z" />
    <glyph glyph-name="plus" unicode="+" 
d="M212 92v182h-164v112h166v182h116v-182h166v-112h-168v-182h-116z" />
    <glyph glyph-name="comma" unicode="," horiz-adv-x="310" 
d="M-10 -196l-16 86c41 11 72 28 94 48s36 41 43 64c-25 1 -45 8 -61 22s-24 33 -24 58c0 27 9 52 28 72s44 30 76 30c30 0 54 -9 70 -28s24 -46 24 -80c0 -46 -9 -88 -28 -126s-45 -69 -80 -94s-77 -43 -126 -52z" />
    <glyph glyph-name="hyphen" unicode="-" horiz-adv-x="328" 
d="M32 198l24 112h240l-24 -112h-240z" />
    <glyph glyph-name="hyphen" unicode="&#xad;" horiz-adv-x="328" 
d="M32 198l24 112h240l-24 -112h-240z" />
    <glyph glyph-name="period" unicode="." horiz-adv-x="310" 
d="M104 -12c-24 0 -43 8 -58 24s-22 35 -22 60c0 18 5 36 14 53s22 32 38 43s36 16 58 16c24 0 43 -8 58 -24s22 -36 22 -60c0 -19 -5 -37 -14 -54s-21 -31 -38 -42s-36 -16 -58 -16z" />
    <glyph glyph-name="slash" unicode="/" horiz-adv-x="324" 
d="M-68 -160l348 870h104l-350 -870h-102z" />
    <glyph glyph-name="zero" unicode="0" 
d="M224 -12c-35 0 -66 8 -94 24s-51 42 -68 76s-26 79 -26 132c0 75 9 138 26 192s39 98 67 132s59 60 93 77s67 25 100 25c35 0 66 -8 94 -25s50 -43 67 -77s25 -78 25 -132c0 -75 -8 -139 -25 -192s-39 -98 -67 -132s-58 -60 -92 -76s-67 -24 -100 -24zM234 110
c20 0 40 13 60 40s35 65 48 113s20 104 20 167c0 37 -5 62 -14 75s-21 19 -36 19c-20 0 -40 -14 -60 -41s-35 -65 -48 -113s-20 -105 -20 -168c0 -37 5 -62 14 -74s21 -18 36 -18z" />
    <glyph glyph-name="one" unicode="1" 
d="M16 0l26 128h128l70 346h-116l20 100c37 6 68 14 94 24s51 21 76 36h118l-102 -506h112l-26 -128h-400z" />
    <glyph glyph-name="two" unicode="2" 
d="M-14 0l18 90c63 51 118 96 168 138s89 81 118 118s44 73 44 108c0 20 -6 36 -17 48s-28 18 -49 18c-17 0 -32 -4 -46 -13s-31 -20 -48 -33l-76 92c31 26 62 46 94 60s64 20 96 20c62 0 112 -16 148 -48s54 -75 54 -128c0 -41 -10 -80 -30 -116s-49 -71 -84 -106
s-74 -73 -118 -114h192l-26 -134h-438z" />
    <glyph glyph-name="three" unicode="3" 
d="M208 -12c-38 0 -77 9 -118 26s-77 47 -108 90l100 82c17 -23 37 -40 60 -52s43 -18 62 -18c30 0 53 6 70 19s26 30 26 53c0 17 -4 30 -12 42s-23 21 -44 27s-51 9 -90 9l22 112c41 0 73 4 96 11s38 18 47 31s13 27 13 44s-6 31 -18 41s-29 15 -50 15c-14 0 -28 -3 -42 -9
s-30 -15 -50 -27l-76 102c34 23 67 40 99 48s65 12 99 12c39 0 74 -7 104 -20s55 -31 72 -54s26 -51 26 -82c0 -40 -9 -74 -28 -101s-54 -50 -104 -67v-4c34 -14 59 -33 74 -56s22 -49 22 -76c0 -43 -12 -80 -34 -109s-52 -52 -90 -67s-81 -22 -128 -22z" />
    <glyph glyph-name="four" unicode="4" 
d="M390 0h-146l29 146h-267l22 112l294 376h194l-73 -366h69l-24 -122h-69zM184 268h113l17 86c5 24 12 48 18 73s11 49 16 73h-4c-12 -20 -24 -40 -37 -60s-26 -40 -41 -60z" />
    <glyph glyph-name="five" unicode="5" 
d="M212 -12c-38 0 -76 9 -113 26s-72 47 -103 90l100 82c35 -47 74 -70 118 -70c26 0 48 9 68 26s30 42 30 74c0 25 -7 44 -20 57s-32 19 -56 19c-15 0 -27 -2 -38 -5s-28 -11 -50 -23l-58 48l78 322h358l-26 -134h-220l-28 -100c9 4 18 7 26 8s17 2 26 2
c48 0 88 -14 121 -42s49 -71 49 -126c0 -39 -7 -75 -22 -106s-35 -58 -60 -80s-53 -38 -84 -50s-63 -18 -96 -18z" />
    <glyph glyph-name="six" unicode="6" 
d="M198 201c0 -31 6 -55 19 -71s28 -24 47 -24c18 0 33 6 44 19s19 28 24 46s8 35 8 50c0 23 -4 41 -14 53s-24 18 -42 18c-12 0 -25 -4 -39 -12s-29 -22 -46 -43c-1 -6 -1 -12 -1 -18v-18zM256 -12c-42 0 -78 10 -109 29s-54 46 -71 81s-26 75 -26 120c0 87 14 162 42 226
s67 114 116 149s105 53 168 53c28 0 53 -4 74 -14s39 -22 54 -36s27 -27 36 -40l-100 -84c-9 13 -18 24 -30 33s-27 13 -44 13c-33 0 -64 -14 -92 -42s-49 -72 -62 -131c17 17 38 31 60 41s41 14 56 14c29 0 56 -6 80 -17s43 -29 57 -53s21 -57 21 -96c0 -31 -5 -61 -16 -90
s-27 -56 -48 -79s-45 -42 -73 -56s-59 -21 -93 -21z" />
    <glyph glyph-name="seven" unicode="7" 
d="M92 0c30 107 65 202 106 284s93 153 158 216h-266l26 134h444l-20 -100c-49 -43 -90 -87 -122 -132s-58 -90 -78 -135s-37 -90 -50 -135s-25 -89 -34 -132h-164z" />
    <glyph glyph-name="eight" unicode="8" 
d="M238 -12c-23 0 -47 3 -71 9s-47 16 -67 29s-36 30 -49 51s-19 46 -19 75c0 43 14 79 40 108s58 51 96 66v4c-19 19 -33 40 -43 61s-15 44 -15 69c0 39 10 72 30 100s46 49 80 64s71 22 110 22c30 0 59 -5 87 -15s51 -25 69 -47s28 -51 28 -86c0 -39 -10 -72 -30 -100
s-49 -52 -84 -70v-4c25 -17 45 -38 59 -62s21 -52 21 -84c0 -39 -12 -72 -34 -100s-51 -50 -88 -66s-77 -24 -120 -24zM330 372c13 13 24 28 34 44s14 35 14 58c0 17 -4 30 -12 42s-25 18 -48 18c-19 0 -35 -6 -48 -18s-20 -28 -20 -50c0 -21 6 -38 20 -52s34 -27 60 -42z
M250 98c22 0 41 7 58 20s26 33 26 60c0 21 -10 39 -28 53s-43 30 -74 49c-15 -13 -28 -28 -40 -47s-18 -40 -18 -63c0 -19 6 -35 18 -50s32 -22 58 -22z" />
    <glyph glyph-name="nine" unicode="9" 
d="M208 413c0 -23 4 -41 14 -53s24 -18 42 -18c12 0 25 4 39 12s29 22 46 43c1 6 1 12 1 18v18c0 31 -6 55 -18 71s-29 24 -48 24c-18 0 -33 -6 -44 -19s-19 -27 -24 -45s-8 -35 -8 -51zM172 -12c-28 0 -53 4 -74 14s-39 22 -54 36s-27 27 -36 40l100 84
c9 -13 20 -23 32 -32s25 -14 42 -14c33 0 64 14 92 42s49 72 62 131c-17 -17 -36 -31 -59 -41s-42 -14 -57 -14c-29 0 -56 6 -80 17s-43 29 -57 54s-21 56 -21 95c0 31 5 61 16 90s27 56 48 79s45 42 73 56s59 21 93 21c42 0 79 -10 110 -29s54 -47 71 -81s25 -74 25 -120
c0 -87 -14 -162 -42 -226s-67 -114 -116 -149s-105 -53 -168 -53z" />
    <glyph glyph-name="colon" unicode=":" horiz-adv-x="310" 
d="M158 308c-24 0 -43 8 -58 24s-22 35 -22 60c0 18 5 36 14 53s22 32 38 43s36 16 58 16c24 0 43 -8 58 -24s22 -36 22 -60c0 -19 -5 -37 -14 -54s-21 -31 -38 -42s-36 -16 -58 -16zM104 -12c-24 0 -43 8 -58 24s-22 35 -22 60c0 18 5 36 14 53s22 32 38 43s36 16 58 16
c24 0 43 -8 58 -24s22 -36 22 -60c0 -19 -5 -37 -14 -54s-21 -31 -38 -42s-36 -16 -58 -16z" />
    <glyph glyph-name="semicolon" unicode=";" horiz-adv-x="310" 
d="M158 308c-24 0 -43 8 -58 24s-22 35 -22 60c0 18 5 36 14 53s22 32 38 43s36 16 58 16c24 0 43 -8 58 -24s22 -36 22 -60c0 -19 -5 -37 -14 -54s-21 -31 -38 -42s-36 -16 -58 -16zM-10 -196l-16 86c41 11 72 28 94 48s36 41 43 64c-25 1 -45 8 -61 22s-24 33 -24 58
c0 27 9 52 28 72s44 30 76 30c30 0 54 -9 70 -28s24 -46 24 -80c0 -46 -9 -88 -28 -126s-45 -69 -80 -94s-77 -43 -126 -52z" />
    <glyph glyph-name="less" unicode="&#x3c;" 
d="M496 98l-450 178v110l450 178v-130l-158 -54l-130 -46v-4l130 -46l158 -54v-132z" />
    <glyph glyph-name="equal" unicode="=" 
d="M48 154v112h448v-112h-448zM48 394v112h448v-112h-448z" />
    <glyph glyph-name="greater" unicode="&#x3e;" 
d="M48 98v132l158 54l130 46v4l-130 46l-158 54v130l450 -178v-110z" />
    <glyph glyph-name="question" unicode="?" horiz-adv-x="458" 
d="M146 244c3 31 11 58 24 79s28 40 44 55s32 30 48 42s28 25 38 38s16 27 16 44c0 16 -5 29 -15 38s-24 14 -41 14c-21 0 -43 -11 -66 -34l-80 90c50 48 105 72 166 72c57 0 104 -14 139 -41s53 -66 53 -115c0 -31 -6 -57 -17 -78s-26 -38 -43 -54s-36 -31 -54 -46
s-34 -32 -48 -50s-23 -40 -28 -66zM168 -12c-24 0 -43 8 -58 24s-22 35 -22 60c0 18 5 36 14 53s22 32 38 43s36 16 58 16c24 0 43 -8 58 -24s22 -36 22 -60c0 -19 -5 -37 -14 -54s-21 -31 -38 -42s-36 -16 -58 -16z" />
    <glyph glyph-name="at" unicode="@" horiz-adv-x="886" 
d="M390 -176c-45 0 -88 7 -130 21s-79 35 -112 63s-59 62 -78 105s-28 92 -28 149c0 72 13 139 38 201s60 116 104 163s94 83 150 109s115 39 178 39c71 0 132 -14 182 -42s89 -66 116 -113s40 -100 40 -157c0 -73 -11 -134 -34 -182s-53 -84 -91 -108s-80 -36 -125 -36
c-23 0 -44 6 -63 18s-32 31 -39 56h-4c-12 -19 -29 -34 -50 -46s-42 -18 -62 -18c-37 0 -68 14 -92 41s-36 63 -36 107c0 32 5 63 16 93s26 57 45 80s41 42 66 56s51 21 79 21c15 0 29 -4 40 -11s20 -20 28 -37h2l16 40h96l-52 -224c-6 -27 -6 -46 0 -59s20 -19 40 -19
c17 0 34 8 53 24s34 39 47 70s20 71 20 118c0 29 -4 58 -13 86s-23 53 -42 76s-45 41 -78 54s-73 20 -121 20c-41 0 -81 -10 -122 -30s-78 -50 -112 -86s-62 -78 -82 -127s-30 -102 -30 -159c0 -45 7 -83 22 -116s34 -60 59 -81s52 -37 82 -47s60 -16 91 -16
c16 0 35 4 56 10s40 14 56 24l42 -86c-29 -14 -57 -24 -84 -32s-55 -12 -84 -12zM416 144c9 0 18 3 27 10s18 18 29 34l30 130c-8 17 -21 26 -38 26s-33 -8 -47 -23s-25 -34 -33 -56s-12 -43 -12 -63c0 -18 4 -32 11 -42s18 -16 33 -16z" />
    <glyph glyph-name="A" unicode="A" horiz-adv-x="562" 
d="M266 344l-34 -76h120l-2 76c-1 31 -1 62 -2 92s-2 61 -2 94h-4c-13 -32 -25 -64 -37 -94s-25 -61 -39 -92zM-66 0l340 650h192l62 -650h-168l-4 148h-179l-67 -148h-176z" />
    <glyph glyph-name="B" unicode="B" horiz-adv-x="612" 
d="M26 0l130 650h208c44 0 83 -6 117 -16s61 -26 80 -48s29 -51 29 -86s-12 -66 -36 -96s-59 -52 -104 -66l-2 -4c73 -18 110 -57 110 -118c0 -52 -13 -94 -40 -126s-62 -54 -105 -68s-90 -22 -141 -22h-246zM264 390h54c39 0 68 7 84 22s24 35 24 60c0 37 -29 56 -88 56
h-46zM210 122h74c40 0 70 8 90 24s30 37 30 64c0 48 -29 72 -88 72h-74z" />
    <glyph glyph-name="C" unicode="C" horiz-adv-x="574" 
d="M310 -12c-51 0 -95 10 -133 32s-68 53 -89 94s-32 91 -32 150c0 58 10 111 28 160s43 91 75 126s69 62 111 82s88 30 136 30c38 0 73 -10 104 -28s55 -44 74 -78l-108 -84c-23 35 -49 52 -78 52c-31 0 -61 -12 -88 -34s-48 -52 -65 -90s-25 -79 -25 -126s10 -83 29 -109
s51 -39 95 -39c17 0 35 5 52 14s33 19 48 32l66 -102c-12 -11 -28 -23 -48 -36s-42 -23 -68 -32s-53 -14 -84 -14z" />
    <glyph glyph-name="D" unicode="D" horiz-adv-x="626" 
d="M26 0l130 650h152c91 0 162 -21 214 -62s78 -106 78 -194s-16 -162 -48 -220s-74 -101 -128 -130s-116 -44 -184 -44h-214zM212 128h24c36 0 70 8 100 25s54 44 72 81s28 87 28 150c0 51 -13 88 -38 108s-56 30 -94 30h-14z" />
    <glyph glyph-name="E" unicode="E" horiz-adv-x="536" 
d="M26 0l130 650h396l-26 -134h-238l-22 -114h202l-26 -134h-202l-28 -134h246l-26 -134h-406z" />
    <glyph glyph-name="F" unicode="F" horiz-adv-x="516" 
d="M26 0l130 650h396l-26 -134h-238l-26 -134h202l-26 -134h-202l-50 -248h-160z" />
    <glyph glyph-name="G" unicode="G" horiz-adv-x="620" 
d="M320 -12c-81 0 -144 24 -192 72s-72 116 -72 204c0 58 10 111 28 160s43 91 76 126s70 62 114 82s91 30 142 30c43 0 80 -10 112 -28s57 -44 76 -78l-108 -84c-23 35 -53 52 -88 52s-66 -12 -94 -34s-51 -52 -68 -90s-26 -79 -26 -126s10 -83 30 -110s52 -40 98 -40
c21 0 40 5 56 16l24 108h-96l24 130h236l-62 -322c-25 -19 -55 -35 -92 -48s-76 -20 -118 -20z" />
    <glyph glyph-name="H" unicode="H" horiz-adv-x="664" 
d="M26 0l130 650h160l-50 -244h194l48 244h160l-130 -650h-160l54 266h-194l-52 -266h-160z" />
    <glyph glyph-name="I" unicode="I" horiz-adv-x="310" 
d="M26 0l130 650h160l-130 -650h-160z" />
    <glyph glyph-name="J" unicode="J" horiz-adv-x="504" 
d="M182 -12c-37 0 -73 8 -108 25s-63 41 -84 73l96 98c10 -14 23 -28 40 -40s35 -18 56 -18c23 0 42 9 56 27s26 47 34 86l82 411h160l-88 -439c-8 -39 -22 -76 -41 -110s-46 -61 -79 -82s-75 -31 -124 -31z" />
    <glyph glyph-name="K" unicode="K" horiz-adv-x="622" 
d="M26 0l130 650h160l-49 -246h4l213 246h174l-234 -274l144 -376h-166l-96 276l-84 -96l-36 -180h-160z" />
    <glyph glyph-name="L" unicode="L" horiz-adv-x="514" 
d="M26 0l130 650h160l-104 -516h236l-26 -134h-396z" />
    <glyph glyph-name="M" unicode="M" horiz-adv-x="754" 
d="M26 0l130 650h166l42 -280l15 -110h4l57 110l152 280h166l-130 -650h-150l46 216c5 23 11 47 18 74s15 54 23 81s16 51 23 73h-3l-81 -152l-138 -236h-60l-42 236l-20 152h-3c-1 -22 -3 -47 -5 -74s-5 -53 -8 -80s-7 -52 -12 -74l-44 -216h-146z" />
    <glyph glyph-name="N" unicode="N" horiz-adv-x="652" 
d="M26 0l130 650h154l90 -308l32 -146h4c3 35 7 75 10 120s8 87 16 126l42 208h152l-130 -650h-154l-90 308l-30 146h-4c-3 -37 -6 -77 -10 -120s-10 -85 -18 -124l-42 -210h-152z" />
    <glyph glyph-name="O" unicode="O" horiz-adv-x="670" 
d="M308 -12c-50 0 -94 10 -132 32s-67 53 -88 94s-32 91 -32 150c0 61 9 115 28 164s44 91 76 126s68 61 108 80s81 28 124 28c50 0 94 -10 132 -32s67 -53 88 -94s32 -91 32 -150c0 -61 -9 -115 -28 -164s-44 -91 -76 -126s-67 -61 -107 -80s-82 -28 -125 -28zM316 126
c25 0 50 11 75 32s46 50 63 87s26 81 26 131c0 47 -9 84 -26 110s-40 38 -70 38c-25 0 -50 -11 -75 -32s-46 -50 -63 -87s-26 -81 -26 -131c0 -47 9 -83 26 -109s40 -39 70 -39z" />
    <glyph glyph-name="P" unicode="P" horiz-adv-x="596" 
d="M26 0l130 650h214c43 0 82 -6 117 -18s63 -30 83 -56s30 -61 30 -104c0 -47 -8 -88 -24 -121s-39 -61 -68 -81s-61 -35 -98 -44s-75 -14 -116 -14h-66l-42 -212h-160zM254 338h59c41 0 73 9 95 28s34 46 34 82c0 26 -8 46 -25 58s-40 18 -69 18h-58z" />
    <glyph glyph-name="Q" unicode="Q" horiz-adv-x="670" 
d="M316 120c25 0 50 10 75 31s46 51 63 89s26 83 26 136c0 47 -9 84 -26 110s-40 38 -70 38c-25 0 -50 -11 -75 -32s-46 -50 -63 -87s-26 -81 -26 -131c0 -51 9 -89 26 -115s40 -39 70 -39zM492 -182c-142 0 -238 63 -289 189c-45 19 -81 49 -107 93s-40 99 -40 164
c0 61 9 115 28 164s44 91 76 126s68 61 108 80s81 28 124 28c50 0 94 -10 132 -32s67 -53 88 -94s32 -91 32 -150c0 -70 -12 -132 -37 -186s-58 -99 -99 -134s-85 -59 -134 -70c14 -17 33 -30 56 -38s47 -12 72 -12c14 0 27 1 38 3s21 4 32 7l6 -120c-12 -5 -26 -8 -43 -12
s-31 -6 -43 -6z" />
    <glyph glyph-name="R" unicode="R" horiz-adv-x="612" 
d="M26 0l130 650h214c43 0 82 -5 117 -16s63 -30 83 -55s30 -59 30 -101c0 -61 -14 -110 -44 -147s-68 -65 -113 -82l97 -249h-168l-75 224h-67l-44 -224h-160zM256 350h58c43 0 75 10 96 29s32 44 32 75c0 24 -8 42 -24 53s-40 17 -70 17h-58z" />
    <glyph glyph-name="S" unicode="S" horiz-adv-x="538" 
d="M240 -12c-41 0 -82 9 -124 28s-80 52 -114 97l114 90c17 -23 38 -42 62 -57s49 -22 74 -22c23 0 42 5 56 15s20 24 20 42c0 15 -7 26 -20 35s-31 21 -54 35l-56 35c-30 19 -53 42 -70 67s-26 58 -26 99c0 39 11 74 32 106s50 57 86 76s77 28 121 28c38 0 74 -9 109 -27
s66 -43 93 -74l-100 -94c-17 17 -34 30 -51 41s-36 16 -57 16c-23 0 -39 -5 -51 -16s-18 -25 -18 -40c0 -13 6 -25 20 -34s34 -21 60 -38l60 -37c31 -19 54 -40 68 -63s20 -54 20 -92c0 -39 -10 -75 -31 -108s-50 -60 -88 -79s-83 -29 -135 -29z" />
    <glyph glyph-name="T" unicode="T" horiz-adv-x="540" 
d="M142 0l102 516h-164l26 134h488l-26 -134h-164l-102 -516h-160z" />
    <glyph glyph-name="U" unicode="U" horiz-adv-x="654" 
d="M316 -12c-81 0 -142 19 -182 57s-60 97 -60 177c0 15 2 33 5 54s6 39 9 56l64 318h160l-70 -350c-2 -13 -4 -26 -6 -38s-2 -24 -2 -36c0 -33 6 -57 18 -74s35 -26 68 -26c29 0 53 12 70 36s31 64 42 120l74 368h156l-74 -364c-20 -102 -52 -178 -96 -226
s-102 -72 -176 -72z" />
    <glyph glyph-name="V" unicode="V" horiz-adv-x="576" 
d="M132 0l-54 650h168l12 -304l3 -102c1 -34 1 -69 1 -104h4c15 35 29 69 43 103s28 68 43 103l132 304h176l-334 -650h-194z" />
    <glyph glyph-name="W" unicode="W" horiz-adv-x="808" 
d="M70 0l28 650h164l-26 -294c-3 -34 -6 -69 -10 -104s-9 -69 -14 -104h4c13 35 28 70 42 105s27 70 40 103l123 294h133v-294c-1 -33 -2 -67 -4 -102l-6 -106h4c11 35 23 71 35 106s23 69 33 102l98 294h152l-246 -650h-202l8 278c0 19 2 44 4 72s4 54 7 79h-4
c-9 -24 -18 -49 -28 -75s-20 -51 -29 -76l-108 -278h-198z" />
    <glyph glyph-name="X" unicode="X" horiz-adv-x="576" 
d="M-36 0l238 334l-98 316h178l24 -114c3 -15 7 -30 10 -48s7 -37 12 -58h4c11 21 22 40 32 58s19 33 28 48l64 114h170l-226 -322l106 -328h-178l-28 126c-4 17 -8 35 -12 52s-8 35 -12 54h-4c-11 -19 -22 -37 -32 -54s-20 -35 -30 -52l-76 -126h-170z" />
    <glyph glyph-name="Y" unicode="Y" horiz-adv-x="528" 
d="M137 0l45 228l-103 422h166l21 -144c4 -25 8 -48 11 -71s7 -47 11 -73h4c13 26 26 51 38 74s24 47 38 72l78 142h172l-276 -422l-46 -228h-159z" />
    <glyph glyph-name="Z" unicode="Z" horiz-adv-x="530" 
d="M-6 0l20 96l330 420h-240l26 134h432l-20 -96l-326 -420h264l-28 -134h-458z" />
    <glyph glyph-name="bracketleft" unicode="[" horiz-adv-x="344" 
d="M-8 -152l172 860h212l-16 -84h-94l-138 -692h94l-18 -84h-212z" />
    <glyph glyph-name="backslash" unicode="\" horiz-adv-x="324" 
d="M144 -160l-60 870h102l62 -870h-104z" />
    <glyph glyph-name="bracketright" unicode="]" horiz-adv-x="344" 
d="M-22 -152l18 84h92l138 692h-92l16 84h212l-172 -860h-212z" />
    <glyph glyph-name="asciicircum" unicode="^" horiz-adv-x="516" 
d="M68 272l150 398h126l150 -398h-130l-38 118l-42 136h-4l-44 -136l-38 -118h-130z" />
    <glyph glyph-name="underscore" unicode="_" horiz-adv-x="480" 
d="M-52 -144l18 88h456l-18 -88h-456z" />
    <glyph glyph-name="grave" unicode="`" horiz-adv-x="540" 
d="M366 569l-162 173l136 102l124 -199z" />
    <glyph glyph-name="a" unicode="a" horiz-adv-x="558" 
d="M168 -12c-44 0 -78 16 -103 48s-37 77 -37 136c0 47 7 92 22 133s35 78 60 109s52 55 84 72s65 26 100 26c21 0 42 -5 62 -16s33 -27 42 -46h2l22 50h128l-100 -500h-130v62h-2c-22 -23 -47 -41 -74 -54s-52 -20 -76 -20zM240 118c13 0 28 4 44 13s31 26 44 53l32 160
c-6 13 -14 23 -24 29s-21 9 -30 9c-19 0 -37 -8 -54 -24s-31 -38 -42 -67s-16 -62 -16 -99c0 -26 4 -44 12 -56s20 -18 34 -18z" />
    <glyph glyph-name="b" unicode="b" horiz-adv-x="560" 
d="M264 -12c-21 0 -40 6 -58 17s-33 26 -42 45h-2l-22 -50h-132l140 696h160l-30 -146l-26 -92h2c21 17 44 31 67 40s46 14 69 14c44 0 78 -16 103 -48s37 -77 37 -136c0 -47 -7 -92 -22 -133s-35 -78 -60 -109s-52 -55 -84 -72s-65 -26 -100 -26zM252 118c19 0 37 8 54 24
s31 38 42 67s16 62 16 99c0 26 -4 44 -12 56s-20 18 -34 18c-13 0 -26 -4 -42 -12s-30 -22 -42 -44l-34 -170c5 -13 12 -22 22 -28s20 -10 30 -10z" />
    <glyph glyph-name="c" unicode="c" horiz-adv-x="446" 
d="M226 -12c-37 0 -72 8 -102 24s-54 41 -72 72s-26 68 -26 112c0 42 7 82 22 120s37 72 64 101s58 52 95 69s76 26 119 26c32 0 60 -7 83 -20s41 -27 53 -42l-88 -94c-9 9 -17 16 -26 21s-20 7 -32 7c-24 0 -45 -8 -64 -25s-35 -39 -46 -67s-16 -60 -16 -94
c0 -25 6 -45 18 -60s30 -22 54 -22c15 0 28 3 39 9s20 12 29 19l66 -98c-19 -14 -42 -28 -69 -40s-61 -18 -101 -18z" />
    <glyph glyph-name="d" unicode="d" horiz-adv-x="550" 
d="M168 -12c-44 0 -78 16 -103 48s-37 77 -37 136c0 47 7 92 22 133s35 78 60 109s52 55 84 72s65 26 100 26c21 0 41 -5 58 -15s29 -24 38 -41h2l10 94l28 146h160l-140 -696h-130v62h-2c-22 -23 -47 -41 -74 -54s-52 -20 -76 -20zM240 118c13 0 28 4 44 13s30 26 44 53
l32 160c-6 13 -14 23 -24 29s-21 9 -30 9c-19 0 -37 -8 -54 -24s-31 -38 -42 -67s-16 -62 -16 -99c0 -26 4 -44 12 -56s20 -18 34 -18z" />
    <glyph glyph-name="e" unicode="e" horiz-adv-x="502" 
d="M234 -12c-41 0 -77 9 -108 26s-56 42 -74 74s-26 71 -26 116c0 46 8 88 25 126s39 70 66 97s58 48 91 63s67 22 100 22c41 0 74 -9 98 -26s41 -40 52 -69s16 -60 16 -95c0 -24 -3 -47 -10 -70s-12 -39 -16 -46h-272c0 -35 10 -60 30 -75s45 -23 74 -23c14 0 28 3 44 10
s29 14 40 22l56 -100c-20 -14 -46 -26 -77 -36s-68 -16 -109 -16zM188 302h152c1 3 2 8 3 13s1 10 1 15c0 17 -4 32 -12 43s-23 17 -44 17c-19 0 -38 -6 -56 -20s-33 -37 -44 -68z" />
    <glyph glyph-name="f" unicode="f" horiz-adv-x="344" 
d="M34 0l76 376h-64l24 118l66 6l2 14c7 35 18 67 34 96s39 53 67 71s63 27 105 27c41 0 79 -9 114 -28l-50 -112c-5 3 -11 7 -20 10s-18 4 -26 4c-17 0 -30 -3 -40 -10s-19 -25 -24 -52l-4 -20h82l-24 -124h-84l-74 -376h-160z" />
    <glyph glyph-name="g" unicode="g" horiz-adv-x="552" 
d="M180 -196c-28 0 -58 6 -92 17s-66 29 -96 53l68 106c19 -14 39 -26 60 -36s42 -14 64 -14c27 0 51 7 70 20s32 31 40 56l26 82c-43 -45 -92 -68 -146 -68c-42 0 -76 14 -104 43s-42 72 -42 131c0 45 7 86 21 124s33 73 57 102s53 52 84 68s63 24 98 24c21 0 41 -5 60 -16
s33 -27 42 -46h2l22 50h130l-96 -480c-15 -75 -46 -129 -92 -164s-105 -52 -176 -52zM238 150c14 0 29 4 45 11s30 22 43 45l26 138c-6 13 -14 23 -24 29s-19 9 -28 9c-29 0 -53 -15 -74 -46s-32 -72 -32 -122c0 -22 4 -38 12 -48s19 -16 32 -16z" />
    <glyph glyph-name="h" unicode="h" horiz-adv-x="556" 
d="M8 0l140 696h160l-34 -162l-24 -88h4c20 18 42 33 68 46s54 20 84 20c41 0 71 -10 90 -32s28 -55 28 -98c0 -11 -1 -22 -2 -35s-3 -25 -6 -37l-62 -310h-160l58 290c2 9 4 17 6 24s2 14 2 20c0 28 -14 42 -42 42c-14 0 -28 -5 -41 -14s-29 -23 -47 -42l-62 -320h-160z
" />
    <glyph glyph-name="i" unicode="i" horiz-adv-x="276" 
d="M210 564c-21 0 -40 6 -58 18s-26 31 -26 56c0 24 9 45 28 63s41 27 68 27c21 0 41 -6 58 -19s26 -31 26 -55c0 -26 -10 -47 -28 -64s-41 -26 -68 -26zM8 0l100 500h160l-100 -500h-160z" />
    <glyph glyph-name="j" unicode="j" horiz-adv-x="278" 
d="M210 564c-21 0 -40 6 -58 18s-26 31 -26 56c0 24 9 45 28 63s41 27 68 27c21 0 41 -6 58 -19s26 -31 26 -55c0 -26 -10 -47 -28 -64s-41 -26 -68 -26zM-30 -188c-18 0 -35 2 -52 6s-34 9 -52 18l48 114c14 -8 28 -12 42 -12c16 0 28 5 36 16s14 30 20 56l98 490h160
l-100 -498c-7 -35 -19 -66 -34 -95s-37 -52 -64 -69s-61 -26 -102 -26z" />
    <glyph glyph-name="k" unicode="k" horiz-adv-x="544" 
d="M8 0l140 696h160l-76 -376h4l164 180h176l-206 -222l118 -278h-160l-68 186l-68 -68l-24 -118h-160z" />
    <glyph glyph-name="l" unicode="l" horiz-adv-x="286" 
d="M148 -12c-41 0 -70 10 -88 30s-26 46 -26 80c0 10 1 20 2 31s3 23 6 37l106 530h160l-108 -536c-1 -5 -2 -8 -2 -11v-8c0 -9 2 -15 6 -19s9 -6 14 -6h8c2 0 6 1 10 2l-6 -118c-9 -3 -20 -5 -34 -8s-30 -4 -48 -4z" />
    <glyph glyph-name="m" unicode="m" horiz-adv-x="838" 
d="M8 0l100 500h130v-64h4c23 20 48 38 75 53s54 23 83 23c36 0 62 -7 79 -22s29 -36 37 -62c26 24 53 44 81 60s56 24 85 24c41 0 71 -10 90 -32s28 -55 28 -98c0 -23 -3 -47 -8 -72l-62 -310h-160l58 290c2 9 4 17 6 24s2 14 2 20c0 28 -14 42 -42 42
c-19 0 -47 -19 -82 -56l-64 -320h-160l58 290c2 9 4 17 6 24s2 14 2 20c0 14 -4 25 -11 32s-17 10 -29 10c-21 0 -49 -19 -84 -56l-62 -320h-160z" />
    <glyph glyph-name="n" unicode="n" horiz-adv-x="562" 
d="M8 0l100 500h130v-64h4c23 20 49 38 76 53s56 23 88 23c41 0 71 -10 90 -32s28 -55 28 -98c0 -23 -3 -47 -8 -72l-62 -310h-160l58 290c2 9 4 17 6 24s2 14 2 20c0 28 -14 42 -42 42c-14 0 -28 -5 -41 -14s-29 -23 -47 -42l-62 -320h-160z" />
    <glyph glyph-name="o" unicode="o" horiz-adv-x="540" 
d="M226 -12c-40 0 -75 9 -105 26s-53 42 -70 73s-25 68 -25 109c0 49 8 92 24 131s39 71 66 99s58 49 92 64s67 22 102 22c40 0 75 -9 105 -26s53 -42 70 -73s25 -68 25 -109c0 -49 -8 -92 -24 -131s-39 -71 -66 -99s-58 -49 -92 -64s-67 -22 -102 -22zM244 116
c19 0 36 8 52 24s29 38 38 66s14 60 14 96c0 25 -5 45 -14 60s-23 22 -42 22s-36 -8 -52 -24s-29 -38 -38 -66s-14 -60 -14 -96c0 -25 5 -45 14 -60s23 -22 42 -22z" />
    <glyph glyph-name="p" unicode="p" horiz-adv-x="560" 
d="M-28 -176l136 676h130l4 -54h2c22 20 46 36 72 48s50 18 74 18c44 0 78 -16 103 -48s37 -77 37 -136c0 -47 -7 -92 -22 -133s-35 -78 -60 -109s-52 -55 -84 -72s-65 -26 -100 -26c-19 0 -37 4 -54 14s-30 23 -40 40h-2l-12 -94l-24 -124h-160zM252 118c19 0 37 8 54 24
s31 38 42 67s16 62 16 99c0 26 -4 44 -12 56s-20 18 -34 18c-13 0 -26 -4 -42 -12s-30 -22 -42 -44l-34 -170c5 -13 12 -22 22 -28s20 -10 30 -10z" />
    <glyph glyph-name="q" unicode="q" horiz-adv-x="558" 
d="M254 -176l26 124l40 114h-2c-22 -23 -47 -41 -74 -54s-52 -20 -76 -20c-44 0 -78 16 -103 48s-37 77 -37 136c0 47 7 92 22 133s35 78 60 109s52 55 84 72s65 26 100 26c21 0 42 -5 62 -16s33 -27 42 -46h2l22 50h128l-136 -676h-160zM240 118c13 0 28 4 44 13
s30 26 44 53l32 160c-6 13 -14 23 -24 29s-21 9 -30 9c-19 0 -37 -8 -54 -24s-31 -38 -42 -67s-16 -62 -16 -99c0 -26 4 -44 12 -56s20 -18 34 -18z" />
    <glyph glyph-name="r" unicode="r" horiz-adv-x="400" 
d="M8 0l100 500h130l-4 -98h4c19 32 42 58 68 79s54 31 82 31c14 0 25 0 34 -2s15 -5 20 -8l-52 -138c-7 4 -15 6 -25 7s-19 1 -27 1c-21 0 -40 -7 -59 -21s-38 -38 -57 -71l-54 -280h-160z" />
    <glyph glyph-name="s" unicode="s" horiz-adv-x="432" 
d="M172 -12c-19 0 -40 4 -63 11s-44 19 -65 33s-39 32 -54 54l92 76c18 -21 35 -35 52 -44s33 -14 48 -14s29 4 40 10s16 14 16 24c0 13 -7 24 -22 32s-36 19 -62 34c-25 14 -46 33 -66 56s-30 51 -30 84c0 32 9 61 27 86s42 45 73 60s65 22 102 22c36 0 68 -8 96 -24
s53 -34 74 -56l-86 -82c-12 12 -25 22 -39 31s-29 13 -45 13s-29 -3 -38 -10s-14 -16 -14 -26c0 -14 9 -25 26 -33s35 -18 54 -29c16 -9 32 -20 47 -32s28 -26 38 -44s15 -39 15 -64c0 -33 -10 -63 -28 -88s-43 -45 -76 -59s-70 -21 -112 -21z" />
    <glyph glyph-name="t" unicode="t" horiz-adv-x="384" 
d="M210 -12c-53 0 -90 14 -114 40s-36 59 -36 100c0 11 0 23 2 34s4 21 6 32l38 182h-64l24 118l72 6l44 128h134l-24 -128h108l-24 -124h-112l-38 -188c-1 -6 -2 -11 -2 -16v-16c0 -29 16 -44 48 -44c6 0 12 1 18 3s12 4 18 7l28 -112c-14 -5 -31 -9 -52 -14s-46 -8 -74 -8
z" />
    <glyph glyph-name="u" unicode="u" horiz-adv-x="552" 
d="M150 -12c-41 0 -71 11 -90 33s-28 54 -28 97c0 23 3 47 8 72l62 310h160l-58 -290c-2 -9 -4 -17 -6 -24s-2 -14 -2 -20c0 -28 14 -42 42 -42c13 0 26 5 39 14s27 23 43 42l62 320h160l-98 -500h-130v64h-4c-21 -20 -45 -38 -73 -53s-57 -23 -87 -23z" />
    <glyph glyph-name="v" unicode="v" horiz-adv-x="518" 
d="M120 0l-60 500h160l10 -228c1 -25 2 -50 2 -76v-78h4c11 26 22 52 32 77s21 51 32 77l98 228h156l-250 -500h-184z" />
    <glyph glyph-name="w" unicode="w" horiz-adv-x="764" 
d="M92 0l-19 500h158l-5 -222c-1 -25 -2 -49 -4 -74s-5 -51 -6 -76h4c9 25 18 51 27 76s18 50 29 74l91 222h136l5 -222c1 -25 1 -49 0 -74s-2 -51 -2 -76h4c9 25 18 51 26 76s15 49 24 74l80 222h148l-208 -500h-186v186c1 23 2 46 2 70s1 49 2 76h-4
c-9 -27 -18 -52 -26 -76s-15 -47 -24 -70l-72 -186h-180z" />
    <glyph glyph-name="x" unicode="x" horiz-adv-x="514" 
d="M-38 0l206 268l-84 232h162l25 -78c3 -14 7 -28 11 -42s8 -28 11 -42h4c7 14 15 28 24 42s16 28 23 42l38 78h170l-192 -268l90 -232h-164l-26 76c-5 14 -9 28 -13 43s-8 29 -13 43h-4c-8 -14 -16 -28 -25 -42s-17 -29 -26 -44l-46 -76h-171z" />
    <glyph glyph-name="y" unicode="y" horiz-adv-x="518" 
d="M52 -188c-10 0 -23 2 -38 6s-28 10 -38 16l48 114c11 -7 24 -10 38 -10c15 0 31 6 46 16s26 24 35 41l10 20l-88 485h159l18 -205c2 -21 3 -45 4 -73s2 -54 2 -78h4c10 23 21 49 32 76s22 52 32 75l90 205h154l-261 -499c-37 -65 -74 -112 -111 -143s-83 -46 -136 -46z
" />
    <glyph glyph-name="z" unicode="z" horiz-adv-x="456" 
d="M-10 0l18 90l240 286h-164l24 124h364l-18 -92l-240 -284h190l-24 -124h-390z" />
    <glyph glyph-name="braceleft" unicode="{" horiz-adv-x="342" 
d="M144 -152c-37 0 -63 8 -78 24s-22 37 -22 66c0 20 3 42 8 64s10 44 17 66s12 42 17 60s8 33 8 44c0 15 -4 29 -14 41s-29 18 -56 19l20 92c33 1 58 10 72 26s23 33 26 50c4 21 7 38 8 54s2 32 4 48s5 37 10 60c7 37 16 66 28 87s28 36 48 45s44 14 75 14h70l-18 -84h-16
c-19 0 -32 -4 -40 -14s-15 -28 -20 -54c-5 -25 -9 -50 -13 -75s-9 -52 -14 -81c-8 -40 -21 -70 -38 -88s-39 -30 -66 -36l-1 -4c20 -5 35 -12 45 -23s16 -28 16 -51c0 -17 -2 -35 -6 -56s-10 -42 -16 -64s-12 -42 -16 -62s-6 -37 -6 -50s3 -21 8 -26s15 -8 30 -8h14l-16 -84
h-68z" />
    <glyph glyph-name="bar" unicode="|" horiz-adv-x="264" 
d="M86 -250v1000h98v-1000h-98z" />
    <glyph glyph-name="braceright" unicode="}" horiz-adv-x="346" 
d="M-32 -152l18 84h16c19 0 32 4 40 14s15 28 20 54c5 25 10 51 14 76s8 51 13 80c8 40 20 70 37 88s40 30 67 36l1 4c-20 5 -36 13 -46 24s-15 27 -15 50c0 17 3 35 7 56s9 42 15 64s11 42 15 62s7 37 7 50s-2 21 -7 26s-16 8 -31 8h-14l16 84h68c37 0 63 -8 78 -23
s22 -38 22 -67c0 -20 -2 -42 -7 -64s-11 -44 -18 -66s-13 -42 -18 -60s-7 -33 -7 -44c0 -15 5 -28 15 -40s28 -19 55 -20l-20 -92c-33 -1 -56 -10 -71 -26s-24 -33 -27 -50c-4 -21 -7 -38 -8 -54s-3 -32 -5 -48s-4 -37 -9 -60c-7 -37 -17 -66 -29 -87s-26 -36 -46 -45
s-45 -14 -76 -14h-70z" />
    <glyph glyph-name="asciitilde" unicode="~" 
d="M346 240c-19 0 -35 4 -50 11s-29 16 -41 26s-23 19 -35 26s-25 11 -38 11c-26 0 -48 -18 -66 -54l-80 54c23 40 48 68 75 84s52 24 77 24c19 0 36 -4 51 -11s28 -16 40 -26s24 -19 36 -26s24 -11 37 -11c26 0 48 18 66 54l80 -54c-23 -40 -47 -68 -74 -84
s-53 -24 -78 -24z" />
    <glyph glyph-name="exclamdown" unicode="&#xa1;" horiz-adv-x="350" 
d="M16 -170l32 140l82 292h104l-58 -432h-160zM198 316c-24 0 -43 8 -58 24s-22 36 -22 60c0 19 5 37 14 54s22 31 38 42s36 16 58 16c24 0 43 -8 58 -23s22 -36 22 -61c0 -18 -5 -35 -14 -52s-21 -32 -38 -43s-36 -17 -58 -17z" />
    <glyph glyph-name="cent" unicode="&#xa2;" 
d="M216 -20l18 93c-49 9 -89 31 -119 68s-45 85 -45 145c0 57 13 106 38 148s58 77 99 102s84 41 129 48l18 94h86l-19 -94c24 -5 45 -14 63 -27s33 -28 48 -45l-92 -86c-7 7 -15 13 -22 18s-15 8 -22 11l-50 -255c23 4 46 14 68 30l48 -102c-23 -15 -46 -27 -69 -36
s-48 -16 -73 -19l-18 -93h-86zM226 310c0 -43 12 -75 37 -94l46 233c-26 -11 -46 -28 -61 -53s-22 -54 -22 -86z" />
    <glyph glyph-name="sterling" unicode="&#xa3;" 
d="M-4 0l20 98c39 16 70 38 94 66s38 60 41 98h-95l20 108l66 5c-1 6 -2 11 -2 17v16c0 47 11 88 33 124s52 64 89 84s79 30 124 30c36 0 67 -7 94 -22s50 -37 70 -64l-102 -84c-11 14 -22 25 -32 32s-23 10 -38 10c-24 0 -45 -10 -63 -31s-27 -55 -27 -103v-4v-4h144
l-22 -114h-116c-5 -46 -23 -87 -54 -124v-4h226l-24 -134h-446z" />
    <glyph glyph-name="currency" unicode="&#xa4;" 
d="M74 86l-68 80l63 54c-11 23 -17 48 -17 76c0 30 6 57 16 82s24 48 41 67l-45 55l84 72l51 -63c35 15 70 23 107 23c19 0 36 -2 53 -6s32 -8 46 -15l71 61l68 -80l-64 -55c5 -11 9 -23 12 -35s4 -25 4 -38c0 -30 -6 -57 -16 -82s-24 -48 -41 -67l47 -57l-84 -72l-53 64
c-17 -7 -35 -12 -53 -16s-36 -6 -54 -6s-35 2 -51 5s-31 8 -45 15zM260 240c23 0 44 11 62 32s28 47 28 80c0 22 -5 38 -16 50s-27 18 -46 18c-23 0 -43 -10 -62 -31s-28 -48 -28 -81c0 -21 6 -38 17 -50s26 -18 45 -18z" />
    <glyph glyph-name="yen" unicode="&#xa5;" 
d="M130 0l29 145h-145l15 74h145l10 53h-145l15 75h112l-79 288h163l16 -127c3 -22 5 -44 8 -66s7 -44 11 -65h3l36 66c12 22 24 44 36 65l66 127h159l-194 -288h112l-15 -75h-145l-11 -53h145l-15 -74h-145l-29 -145h-158z" />
    <glyph glyph-name="brokenbar" unicode="&#xa6;" horiz-adv-x="264" 
d="M86 316v434h98v-434h-98zM86 -250v452h98v-452h-98z" />
    <glyph glyph-name="section" unicode="&#xa7;" horiz-adv-x="516" 
d="M196 -88c-33 0 -68 8 -104 23s-68 37 -96 65l78 98c16 -16 36 -31 59 -46s47 -22 71 -22c32 0 48 13 48 38c0 12 -7 23 -21 34s-31 22 -51 34s-42 24 -62 40s-37 35 -51 57s-21 48 -21 79c0 33 10 63 29 88s44 44 73 59c-5 9 -9 19 -12 29s-4 21 -4 32c0 33 8 62 23 88
s37 47 65 62s61 22 98 22c32 0 63 -8 94 -22s59 -34 84 -60l-80 -88c-13 12 -27 23 -44 34s-35 16 -54 16c-12 0 -22 -3 -30 -9s-12 -15 -12 -27c0 -11 8 -22 22 -33s32 -23 53 -35s43 -26 64 -42s39 -35 53 -57s22 -48 22 -77c0 -37 -9 -68 -28 -94s-44 -47 -75 -64
c6 -14 9 -30 9 -48c0 -53 -18 -94 -55 -126s-85 -48 -145 -48zM182 330c0 -15 8 -30 22 -42s31 -24 52 -36s42 -25 62 -40c11 7 19 15 25 25s9 22 9 37s-7 29 -21 41s-31 23 -52 35s-41 25 -62 39c-10 -6 -18 -13 -25 -23s-10 -22 -10 -36z" />
    <glyph glyph-name="dieresis" unicode="&#xa8;" horiz-adv-x="540" 
d="M226 566c-19 0 -34 6 -47 17s-19 28 -19 49s8 40 24 57s36 25 60 25c19 0 34 -6 47 -18s19 -27 19 -48c0 -23 -8 -42 -24 -58s-36 -24 -60 -24zM446 566c-19 0 -34 6 -47 17s-19 28 -19 49s8 40 24 57s36 25 60 25c19 0 34 -6 47 -18s19 -27 19 -48c0 -23 -8 -42 -24 -58
s-36 -24 -60 -24z" />
    <glyph glyph-name="copyright" unicode="&#xa9;" horiz-adv-x="674" 
d="M298 -8c-52 0 -98 12 -139 36s-73 57 -96 99s-35 90 -35 143c0 54 9 104 28 151s44 88 78 123s74 62 120 82s97 30 152 30c52 0 98 -12 139 -36s73 -57 96 -99s35 -90 35 -143c0 -54 -9 -104 -28 -151s-44 -88 -78 -123s-74 -62 -120 -82s-97 -30 -152 -30zM304 60
c42 0 82 8 118 24s68 38 95 66s49 62 64 100s23 79 23 122c0 38 -7 73 -22 106s-38 60 -68 80s-69 30 -114 30c-42 0 -82 -8 -118 -24s-68 -38 -95 -66s-49 -62 -64 -100s-23 -79 -23 -122c0 -38 7 -73 22 -106s38 -60 68 -80s69 -30 114 -30zM332 128c-48 0 -87 14 -116 42
s-44 66 -44 114c0 35 7 67 20 96s31 54 53 74s46 35 73 46s53 16 80 16c23 0 44 -6 62 -17s32 -23 42 -35l-66 -64c-8 9 -16 16 -25 19s-18 5 -27 5c-15 0 -31 -5 -46 -16s-27 -25 -37 -44s-15 -41 -15 -66c0 -24 6 -43 19 -57s30 -21 53 -21c12 0 23 2 32 6s19 9 32 18
l44 -68c-21 -17 -43 -28 -66 -36s-45 -12 -68 -12z" />
    <glyph glyph-name="ordfeminine" unicode="&#xaa;" horiz-adv-x="369" 
d="M168 360c-29 0 -51 11 -68 32s-26 51 -26 90c0 42 9 80 26 114s39 62 66 82s55 30 86 30c14 0 27 -4 38 -12s20 -18 26 -30h4l16 34h90l-66 -332h-90v40h-4c-14 -15 -30 -26 -48 -35s-34 -13 -50 -13zM216 450c9 0 20 2 30 8s19 17 28 34l18 102c-3 8 -8 14 -14 18
s-12 6 -18 6c-18 0 -35 -11 -50 -34s-22 -52 -22 -88c0 -16 3 -28 8 -35s12 -11 20 -11z" />
    <glyph glyph-name="guillemotleft" unicode="&#xab;" horiz-adv-x="480" 
d="M344 54l-104 146l20 112l152 136l48 -52l-130 -150l76 -152zM144 54l-104 146l20 112l152 136l48 -52l-130 -150l76 -152z" />
    <glyph glyph-name="logicalnot" unicode="&#xac;" 
d="M382 92v182h-334v112h448v-294h-114z" />
    <glyph glyph-name="registered" unicode="&#xae;" horiz-adv-x="458" 
d="M262 308c-32 0 -61 8 -88 24s-50 37 -66 64s-24 57 -24 92c0 39 8 75 26 110s42 63 74 85s69 33 112 33c31 0 60 -8 87 -24s48 -37 65 -64s25 -57 26 -92c0 -39 -8 -75 -26 -110s-43 -63 -75 -85s-69 -33 -111 -33zM266 360c30 0 57 8 80 24s40 37 53 63s19 54 19 85
c0 37 -11 69 -34 94s-54 38 -92 38c-30 0 -56 -8 -79 -24s-40 -37 -53 -63s-20 -54 -20 -85c0 -37 11 -68 34 -94s54 -38 92 -38zM180 416l40 194h88c20 0 36 -6 49 -16s19 -24 19 -42c0 -13 -4 -25 -12 -37s-20 -21 -36 -27l24 -72h-60l-16 58h-24l-12 -58h-60zM260 516h14
c12 0 21 3 27 9s9 13 9 21c0 13 -8 20 -24 20h-16z" />
    <glyph glyph-name="macron" unicode="&#xaf;" horiz-adv-x="540" 
d="M188 590l20 100h294l-20 -100h-294z" />
    <glyph glyph-name="degree" unicode="&#xb0;" horiz-adv-x="362" 
d="M224 392c-39 0 -70 12 -95 36s-37 56 -37 96c0 30 7 57 22 82s36 44 60 58s50 22 78 22c39 0 72 -12 96 -36s36 -56 36 -96c0 -30 -7 -58 -22 -82s-36 -43 -60 -58s-50 -22 -78 -22zM230 468c21 0 38 9 51 26s19 37 19 60c0 15 -5 29 -14 40s-22 16 -40 16
c-21 0 -37 -9 -50 -26s-20 -37 -20 -60c0 -15 5 -28 14 -39s22 -17 40 -17z" />
    <glyph glyph-name="plusminus" unicode="&#xb1;" 
d="M212 164v146h-164v112h166v146h116v-146h166v-112h-168v-146h-116zM48 0v112h448v-112h-448z" />
    <glyph glyph-name="two.sups" unicode="&#xb2;" horiz-adv-x="368" 
d="M58 368l12 62c65 41 115 78 149 112s51 64 51 90c0 11 -3 21 -10 28s-18 10 -32 10c-9 0 -17 -3 -26 -9s-18 -14 -28 -23l-64 68c24 21 46 37 67 48s45 16 73 16c42 0 76 -10 100 -31s36 -49 36 -85c0 -34 -12 -66 -35 -96s-53 -61 -89 -92h100l-20 -98h-284z" />
    <glyph glyph-name="three.sups" unicode="&#xb3;" horiz-adv-x="364" 
d="M214 356c-37 0 -67 7 -92 22s-45 34 -60 58l74 54c18 -28 40 -42 67 -42c17 0 31 4 41 12s14 18 14 28c0 14 -4 24 -14 32s-31 12 -64 12l14 69c35 0 57 5 67 15s15 22 15 35c0 9 -4 16 -10 21s-15 8 -26 8s-20 -1 -28 -4s-19 -9 -32 -18l-48 76c24 14 46 23 67 28
s43 8 68 8c37 0 67 -9 90 -27s35 -42 35 -71c0 -25 -6 -46 -18 -63s-31 -32 -58 -43c36 -21 54 -49 54 -84c0 -27 -7 -49 -21 -68s-33 -33 -57 -43s-49 -15 -78 -15z" />
    <glyph glyph-name="acute" unicode="&#xb4;" horiz-adv-x="540" 
d="M316 578l-69 90l191 172l95 -122z" />
    <glyph glyph-name="mu" unicode="&#xb5;" horiz-adv-x="554" 
d="M-28 -176l134 676h160l-58 -290c-2 -9 -4 -17 -6 -24s-2 -14 -2 -20c0 -28 14 -42 42 -42c13 0 26 5 39 14s27 22 43 41l62 321h158l-96 -500h-130v64h-4c-12 -19 -26 -35 -44 -48s-36 -20 -54 -20c-11 0 -21 1 -30 4s-17 7 -22 14l-6 -52l-27 -138h-159z" />
    <glyph glyph-name="paragraph" unicode="&#xb6;" horiz-adv-x="636" 
d="M320 -80l144 730h160l-144 -730h-160zM282 190c-38 0 -74 8 -106 22s-58 34 -78 62s-30 62 -30 102c0 49 8 90 24 125s39 63 67 85s60 38 96 48s74 16 113 16h42l-92 -460h-36z" />
    <glyph glyph-name="periodcentered" unicode="&#xb7;" horiz-adv-x="310" 
d="M154 228c-24 0 -43 8 -58 24s-22 35 -22 60c0 18 5 36 14 53s22 32 38 43s36 16 58 16c24 0 43 -8 58 -24s22 -36 22 -60c0 -19 -5 -37 -14 -54s-21 -31 -38 -42s-36 -16 -58 -16z" />
    <glyph glyph-name="cedilla" unicode="&#xb8;" horiz-adv-x="540" 
d="M70 -244v66c38 2 64 6 80 12s25 16 28 30c1 9 -3 17 -12 24s-28 12 -58 16l68 100h98l-40 -64c25 -6 43 -14 54 -26s15 -29 12 -50c-7 -36 -30 -63 -70 -80s-93 -26 -160 -28z" />
    <glyph glyph-name="one.sups" unicode="&#xb9;" horiz-adv-x="384" 
d="M182 368l56 274h-86l14 72c28 4 50 9 67 16s34 16 53 28h90l-76 -390h-118z" />
    <glyph glyph-name="ordmasculine" unicode="&#xba;" horiz-adv-x="362" 
d="M212 360c-38 0 -70 12 -96 36s-40 59 -40 103c0 43 10 80 28 111s41 55 70 72s60 26 92 26c38 0 70 -12 96 -36s40 -59 40 -103c0 -43 -10 -80 -28 -111s-41 -55 -70 -72s-60 -26 -92 -26zM222 448c21 0 38 11 50 34s18 52 18 86c0 16 -3 29 -8 38s-14 14 -26 14
c-21 0 -38 -11 -50 -34s-18 -52 -18 -86c0 -16 3 -29 8 -38s14 -14 26 -14z" />
    <glyph glyph-name="guillemotright" unicode="&#xbb;" horiz-adv-x="480" 
d="M276 54l-48 52l130 150l-76 152l62 40l104 -146l-20 -112zM76 54l-48 52l130 150l-76 152l62 40l104 -146l-20 -112z" />
    <glyph glyph-name="onequarter" unicode="&#xbc;" horiz-adv-x="788" 
d="M526 158h84l8 38l28 124h-4l-58 -86zM578 0l17 82h-187l12 60l188 248h146l-45 -232h57l-16 -76h-56l-16 -82h-100zM130 270l56 274h-86l14 72c28 4 50 9 67 16s34 16 53 28h90l-76 -390h-118zM124 -12l470 684h90l-470 -684h-90z" />
    <glyph glyph-name="onehalf" unicode="&#xbd;" horiz-adv-x="828" 
d="M452 0l12 62c65 41 115 78 149 112s51 64 51 90c0 11 -3 21 -10 28s-18 10 -32 10c-9 0 -17 -3 -26 -9s-18 -14 -28 -23l-64 68c24 21 46 37 67 48s45 16 73 16c42 0 76 -10 100 -31s36 -49 36 -85c0 -34 -12 -66 -35 -96s-53 -61 -89 -92h100l-20 -98h-284zM126 270
l56 274h-86l14 72c28 4 50 9 67 16s34 16 53 28h90l-76 -390h-118zM114 -12l470 684h90l-470 -684h-90z" />
    <glyph glyph-name="threequarters" unicode="&#xbe;" horiz-adv-x="798" 
d="M536 158h84l8 38l28 124h-4l-58 -86zM588 0l17 82h-187l12 60l188 248h146l-45 -232h57l-16 -76h-56l-16 -82h-100zM188 258c-37 0 -67 7 -92 22s-45 34 -60 58l74 54c18 -28 40 -42 67 -42c17 0 31 4 41 12s14 18 14 28c0 14 -4 24 -14 32s-31 12 -64 12l14 69
c35 0 57 5 67 15s15 22 15 35c0 9 -4 16 -10 21s-15 8 -26 8s-20 -1 -28 -4s-19 -9 -32 -18l-48 76c24 14 46 23 67 28s43 8 68 8c37 0 67 -9 90 -27s35 -42 35 -71c0 -25 -6 -46 -18 -63s-31 -32 -58 -43c36 -21 54 -49 54 -84c0 -27 -7 -49 -21 -68s-33 -33 -57 -43
s-49 -15 -78 -15zM144 -12l470 684h90l-470 -684h-90z" />
    <glyph glyph-name="questiondown" unicode="&#xbf;" horiz-adv-x="458" 
d="M192 -182c-57 0 -102 14 -138 42s-54 65 -54 114c0 31 6 57 17 78s26 38 43 54s36 31 54 46s34 32 48 50s23 40 28 66l136 -12c-3 -31 -11 -58 -24 -79s-28 -40 -44 -55s-32 -30 -48 -42s-28 -25 -38 -38s-16 -27 -16 -44c0 -16 6 -29 16 -38s23 -14 40 -14
c21 0 43 11 66 34l80 -90c-50 -48 -105 -72 -166 -72zM274 316c-24 0 -43 8 -58 24s-22 36 -22 60c0 19 5 37 14 54s22 31 38 42s36 16 58 16c24 0 43 -8 58 -23s22 -36 22 -61c0 -18 -5 -35 -14 -52s-21 -32 -38 -43s-36 -17 -58 -17z" />
    <glyph glyph-name="Agrave" unicode="&#xc0;" horiz-adv-x="562" 
d="M398 670l-175 136l109 101l156 -159zM266 344l-34 -76h120l-2 76c-1 31 -1 62 -2 92s-2 61 -2 94h-4c-13 -32 -25 -64 -37 -94s-25 -61 -39 -92zM-66 0l340 650h192l62 -650h-168l-4 148h-179l-67 -148h-176z" />
    <glyph glyph-name="Aacute" unicode="&#xc1;" horiz-adv-x="562" 
d="M332 680l-61 92l207 127l70 -117zM266 344l-34 -76h120l-2 76c-1 31 -1 62 -2 92s-2 61 -2 94h-4c-13 -32 -25 -64 -37 -94s-25 -61 -39 -92zM-66 0l340 650h192l62 -650h-168l-4 148h-179l-67 -148h-176z" />
    <glyph glyph-name="Acircumflex" unicode="&#xc2;" horiz-adv-x="562" 
d="M264 680l-66 50l104 104h188l64 -110l-78 -44l-84 80h-4zM266 344l-34 -76h120l-2 76c-1 31 -1 62 -2 92s-2 61 -2 94h-4c-13 -32 -25 -64 -37 -94s-25 -61 -39 -92zM-66 0l340 650h192l62 -650h-168l-4 148h-179l-67 -148h-176z" />
    <glyph glyph-name="Atilde" unicode="&#xc3;" horiz-adv-x="562" 
d="M446 686c-23 0 -43 4 -58 13s-27 17 -38 26s-21 13 -30 13c-8 0 -15 -3 -22 -8s-13 -17 -18 -34l-108 8c13 55 35 95 64 118s61 34 98 34c23 0 43 -4 58 -13s27 -17 38 -26s21 -13 30 -13c8 0 15 2 22 8s13 17 18 34l108 -8c-13 -55 -34 -94 -63 -117s-62 -35 -99 -35z
M266 344l-34 -76h120l-2 76c-1 31 -1 62 -2 92s-2 61 -2 94h-4c-13 -32 -25 -64 -37 -94s-25 -61 -39 -92zM-66 0l340 650h192l62 -650h-168l-4 148h-179l-67 -148h-176z" />
    <glyph glyph-name="Adieresis" unicode="&#xc4;" horiz-adv-x="562" 
d="M270 696c-18 0 -34 6 -46 17s-18 27 -18 47s8 39 23 57s35 27 59 27c17 0 32 -6 45 -17s19 -27 19 -47s-8 -39 -23 -57s-35 -27 -59 -27zM490 696c-18 0 -34 6 -46 17s-18 27 -18 47s8 39 23 57s35 27 59 27c17 0 32 -6 45 -17s19 -27 19 -47s-8 -39 -23 -57
s-35 -27 -59 -27zM266 344l-34 -76h120l-2 76c-1 31 -1 62 -2 92s-2 61 -2 94h-4c-13 -32 -25 -64 -37 -94s-25 -61 -39 -92zM-66 0l340 650h192l62 -650h-168l-4 148h-179l-67 -148h-176z" />
    <glyph glyph-name="Aring" unicode="&#xc5;" horiz-adv-x="562" 
d="M386 696c-31 0 -57 7 -80 21s-34 36 -34 67c0 21 6 40 18 57s27 31 47 41s42 16 65 16c29 0 56 -8 79 -22s35 -36 35 -66c0 -21 -6 -41 -18 -58s-26 -31 -46 -41s-42 -15 -66 -15zM388 756c11 0 21 4 30 14s14 21 14 34c0 9 -3 17 -8 24s-13 10 -24 10
c-13 0 -24 -5 -32 -15s-12 -21 -12 -33c0 -9 3 -17 8 -24s13 -10 24 -10zM266 344l-34 -76h120l-2 76c-1 31 -1 62 -2 92s-2 61 -2 94h-4c-13 -32 -25 -64 -37 -94s-25 -61 -39 -92zM-66 0l340 650h192l62 -650h-168l-4 148h-179l-67 -148h-176z" />
    <glyph glyph-name="AE" unicode="&#xc6;" horiz-adv-x="852" 
d="M350 360l-55 -96h108l54 272h-3c-18 -31 -35 -60 -52 -88s-35 -58 -52 -88zM-36 0l408 650h496l-26 -134h-230l-22 -114h194l-26 -134h-194l-28 -134h238l-26 -134h-398l28 140h-154l-80 -140h-180z" />
    <glyph glyph-name="Ccedilla" unicode="&#xc7;" horiz-adv-x="574" 
d="M130 -244v66c38 2 64 6 80 12s25 16 28 30c1 9 -3 17 -12 24s-28 12 -58 16l68 100h98l-40 -64c25 -6 43 -14 54 -26s15 -29 12 -50c-7 -36 -30 -63 -70 -80s-93 -26 -160 -28zM310 -12c-51 0 -95 10 -133 32s-68 53 -89 94s-32 91 -32 150c0 58 10 111 28 160
s43 91 75 126s69 62 111 82s88 30 136 30c38 0 73 -10 104 -28s55 -44 74 -78l-108 -84c-23 35 -49 52 -78 52c-31 0 -61 -12 -88 -34s-48 -52 -65 -90s-25 -79 -25 -126s10 -83 29 -109s51 -39 95 -39c17 0 35 5 52 14s33 19 48 32l66 -102c-12 -11 -28 -23 -48 -36
s-42 -23 -68 -32s-53 -14 -84 -14z" />
    <glyph glyph-name="Egrave" unicode="&#xc8;" horiz-adv-x="536" 
d="M388 670l-175 136l109 101l156 -159zM26 0l130 650h396l-26 -134h-238l-22 -114h202l-26 -134h-202l-28 -134h246l-26 -134h-406z" />
    <glyph glyph-name="Eacute" unicode="&#xc9;" horiz-adv-x="536" 
d="M322 680l-61 92l207 127l70 -117zM26 0l130 650h396l-26 -134h-238l-22 -114h202l-26 -134h-202l-28 -134h246l-26 -134h-406z" />
    <glyph glyph-name="Ecircumflex" unicode="&#xca;" horiz-adv-x="536" 
d="M254 680l-66 50l104 104h188l64 -110l-78 -44l-84 80h-4zM26 0l130 650h396l-26 -134h-238l-22 -114h202l-26 -134h-202l-28 -134h246l-26 -134h-406z" />
    <glyph glyph-name="Edieresis" unicode="&#xcb;" horiz-adv-x="536" 
d="M260 696c-18 0 -34 6 -46 17s-18 27 -18 47s8 39 23 57s35 27 59 27c17 0 32 -6 45 -17s19 -27 19 -47s-8 -39 -23 -57s-35 -27 -59 -27zM480 696c-18 0 -34 6 -46 17s-18 27 -18 47s8 39 23 57s35 27 59 27c17 0 32 -6 45 -17s19 -27 19 -47s-8 -39 -23 -57
s-35 -27 -59 -27zM26 0l130 650h396l-26 -134h-238l-22 -114h202l-26 -134h-202l-28 -134h246l-26 -134h-406z" />
    <glyph glyph-name="Igrave" unicode="&#xcc;" horiz-adv-x="310" 
d="M268 670l-175 136l109 101l156 -159zM26 0l130 650h160l-130 -650h-160z" />
    <glyph glyph-name="Iacute" unicode="&#xcd;" horiz-adv-x="310" 
d="M202 680l-61 92l207 127l70 -117zM26 0l130 650h160l-130 -650h-160z" />
    <glyph glyph-name="Icircumflex" unicode="&#xce;" horiz-adv-x="310" 
d="M134 680l-66 50l104 104h188l64 -110l-78 -44l-84 80h-4zM26 0l130 650h160l-130 -650h-160z" />
    <glyph glyph-name="Idieresis" unicode="&#xcf;" horiz-adv-x="310" 
d="M140 696c-18 0 -34 6 -46 17s-18 27 -18 47s8 39 23 57s35 27 59 27c17 0 32 -6 45 -17s19 -27 19 -47s-8 -39 -23 -57s-35 -27 -59 -27zM360 696c-18 0 -34 6 -46 17s-18 27 -18 47s8 39 23 57s35 27 59 27c17 0 32 -6 45 -17s19 -27 19 -47s-8 -39 -23 -57
s-35 -27 -59 -27zM26 0l130 650h160l-130 -650h-160z" />
    <glyph glyph-name="Eth" unicode="&#xd0;" horiz-adv-x="644" 
d="M44 0l60 300h-70l14 70l71 6l55 274h152c91 0 162 -21 214 -62s78 -106 78 -194s-16 -162 -48 -220s-74 -101 -128 -130s-116 -44 -184 -44h-214zM230 128h24c36 0 70 8 100 25s54 44 72 81s28 87 28 150c0 51 -13 88 -38 108s-56 30 -94 30h-14l-29 -146h115l-16 -76
h-114z" />
    <glyph glyph-name="Ntilde" unicode="&#xd1;" horiz-adv-x="652" 
d="M486 686c-23 0 -43 4 -58 13s-27 17 -38 26s-21 13 -30 13c-8 0 -15 -3 -22 -8s-13 -17 -18 -34l-108 8c13 55 35 95 64 118s61 34 98 34c23 0 43 -4 58 -13s27 -17 38 -26s21 -13 30 -13c8 0 15 2 22 8s13 17 18 34l108 -8c-13 -55 -34 -94 -63 -117s-62 -35 -99 -35z
M26 0l130 650h154l90 -308l32 -146h4c3 35 7 75 10 120s8 87 16 126l42 208h152l-130 -650h-154l-90 308l-30 146h-4c-3 -37 -6 -77 -10 -120s-10 -85 -18 -124l-42 -210h-152z" />
    <glyph glyph-name="Ograve" unicode="&#xd2;" horiz-adv-x="670" 
d="M438 670l-175 136l109 101l156 -159zM308 -12c-50 0 -94 10 -132 32s-67 53 -88 94s-32 91 -32 150c0 61 9 115 28 164s44 91 76 126s68 61 108 80s81 28 124 28c50 0 94 -10 132 -32s67 -53 88 -94s32 -91 32 -150c0 -61 -9 -115 -28 -164s-44 -91 -76 -126
s-67 -61 -107 -80s-82 -28 -125 -28zM316 126c25 0 50 11 75 32s46 50 63 87s26 81 26 131c0 47 -9 84 -26 110s-40 38 -70 38c-25 0 -50 -11 -75 -32s-46 -50 -63 -87s-26 -81 -26 -131c0 -47 9 -83 26 -109s40 -39 70 -39z" />
    <glyph glyph-name="Oacute" unicode="&#xd3;" horiz-adv-x="670" 
d="M372 680l-61 92l207 127l70 -117zM308 -12c-50 0 -94 10 -132 32s-67 53 -88 94s-32 91 -32 150c0 61 9 115 28 164s44 91 76 126s68 61 108 80s81 28 124 28c50 0 94 -10 132 -32s67 -53 88 -94s32 -91 32 -150c0 -61 -9 -115 -28 -164s-44 -91 -76 -126
s-67 -61 -107 -80s-82 -28 -125 -28zM316 126c25 0 50 11 75 32s46 50 63 87s26 81 26 131c0 47 -9 84 -26 110s-40 38 -70 38c-25 0 -50 -11 -75 -32s-46 -50 -63 -87s-26 -81 -26 -131c0 -47 9 -83 26 -109s40 -39 70 -39z" />
    <glyph glyph-name="Ocircumflex" unicode="&#xd4;" horiz-adv-x="670" 
d="M304 680l-66 50l104 104h188l64 -110l-78 -44l-84 80h-4zM308 -12c-50 0 -94 10 -132 32s-67 53 -88 94s-32 91 -32 150c0 61 9 115 28 164s44 91 76 126s68 61 108 80s81 28 124 28c50 0 94 -10 132 -32s67 -53 88 -94s32 -91 32 -150c0 -61 -9 -115 -28 -164
s-44 -91 -76 -126s-67 -61 -107 -80s-82 -28 -125 -28zM316 126c25 0 50 11 75 32s46 50 63 87s26 81 26 131c0 47 -9 84 -26 110s-40 38 -70 38c-25 0 -50 -11 -75 -32s-46 -50 -63 -87s-26 -81 -26 -131c0 -47 9 -83 26 -109s40 -39 70 -39z" />
    <glyph glyph-name="Otilde" unicode="&#xd5;" horiz-adv-x="670" 
d="M486 686c-23 0 -43 4 -58 13s-27 17 -38 26s-21 13 -30 13c-8 0 -15 -3 -22 -8s-13 -17 -18 -34l-108 8c13 55 35 95 64 118s61 34 98 34c23 0 43 -4 58 -13s27 -17 38 -26s21 -13 30 -13c8 0 15 2 22 8s13 17 18 34l108 -8c-13 -55 -34 -94 -63 -117s-62 -35 -99 -35z
M308 -12c-50 0 -94 10 -132 32s-67 53 -88 94s-32 91 -32 150c0 61 9 115 28 164s44 91 76 126s68 61 108 80s81 28 124 28c50 0 94 -10 132 -32s67 -53 88 -94s32 -91 32 -150c0 -61 -9 -115 -28 -164s-44 -91 -76 -126s-67 -61 -107 -80s-82 -28 -125 -28zM316 126
c25 0 50 11 75 32s46 50 63 87s26 81 26 131c0 47 -9 84 -26 110s-40 38 -70 38c-25 0 -50 -11 -75 -32s-46 -50 -63 -87s-26 -81 -26 -131c0 -47 9 -83 26 -109s40 -39 70 -39z" />
    <glyph glyph-name="Odieresis" unicode="&#xd6;" horiz-adv-x="670" 
d="M310 696c-18 0 -34 6 -46 17s-18 27 -18 47s8 39 23 57s35 27 59 27c17 0 32 -6 45 -17s19 -27 19 -47s-8 -39 -23 -57s-35 -27 -59 -27zM530 696c-18 0 -34 6 -46 17s-18 27 -18 47s8 39 23 57s35 27 59 27c17 0 32 -6 45 -17s19 -27 19 -47s-8 -39 -23 -57
s-35 -27 -59 -27zM308 -12c-50 0 -94 10 -132 32s-67 53 -88 94s-32 91 -32 150c0 61 9 115 28 164s44 91 76 126s68 61 108 80s81 28 124 28c50 0 94 -10 132 -32s67 -53 88 -94s32 -91 32 -150c0 -61 -9 -115 -28 -164s-44 -91 -76 -126s-67 -61 -107 -80
s-82 -28 -125 -28zM316 126c25 0 50 11 75 32s46 50 63 87s26 81 26 131c0 47 -9 84 -26 110s-40 38 -70 38c-25 0 -50 -11 -75 -32s-46 -50 -63 -87s-26 -81 -26 -131c0 -47 9 -83 26 -109s40 -39 70 -39z" />
    <glyph glyph-name="multiply" unicode="&#xd7;" 
d="M140 114l-78 78l132 138l-132 138l78 78l132 -138l132 138l78 -78l-132 -138l132 -138l-78 -78l-132 138z" />
    <glyph glyph-name="Oslash" unicode="&#xd8;" horiz-adv-x="670" 
d="M58 -44l-70 64l97 99c-19 41 -29 89 -29 145c0 61 9 115 28 164s44 91 76 126s68 61 108 80s81 28 124 28c68 0 124 -19 168 -58l96 98l70 -64l-109 -112c9 -19 15 -41 20 -64s7 -49 7 -76c0 -61 -9 -115 -28 -164s-44 -91 -76 -126s-67 -61 -107 -80s-82 -28 -125 -28
c-66 0 -121 18 -165 55zM220 274v-8v-9l230 235c-16 21 -38 32 -66 32c-25 0 -50 -11 -75 -32s-46 -50 -63 -87s-26 -81 -26 -131zM316 126c25 0 50 11 75 32s46 50 63 87s26 81 26 131v6v5l-227 -232c16 -19 37 -29 63 -29z" />
    <glyph glyph-name="Ugrave" unicode="&#xd9;" horiz-adv-x="654" 
d="M448 670l-175 136l109 101l156 -159zM316 -12c-81 0 -142 19 -182 57s-60 97 -60 177c0 15 2 33 5 54s6 39 9 56l64 318h160l-70 -350c-2 -13 -4 -26 -6 -38s-2 -24 -2 -36c0 -33 6 -57 18 -74s35 -26 68 -26c29 0 53 12 70 36s31 64 42 120l74 368h156l-74 -364
c-20 -102 -52 -178 -96 -226s-102 -72 -176 -72z" />
    <glyph glyph-name="Uacute" unicode="&#xda;" horiz-adv-x="654" 
d="M382 680l-61 92l207 127l70 -117zM316 -12c-81 0 -142 19 -182 57s-60 97 -60 177c0 15 2 33 5 54s6 39 9 56l64 318h160l-70 -350c-2 -13 -4 -26 -6 -38s-2 -24 -2 -36c0 -33 6 -57 18 -74s35 -26 68 -26c29 0 53 12 70 36s31 64 42 120l74 368h156l-74 -364
c-20 -102 -52 -178 -96 -226s-102 -72 -176 -72z" />
    <glyph glyph-name="Ucircumflex" unicode="&#xdb;" horiz-adv-x="654" 
d="M314 680l-66 50l104 104h188l64 -110l-78 -44l-84 80h-4zM316 -12c-81 0 -142 19 -182 57s-60 97 -60 177c0 15 2 33 5 54s6 39 9 56l64 318h160l-70 -350c-2 -13 -4 -26 -6 -38s-2 -24 -2 -36c0 -33 6 -57 18 -74s35 -26 68 -26c29 0 53 12 70 36s31 64 42 120l74 368
h156l-74 -364c-20 -102 -52 -178 -96 -226s-102 -72 -176 -72z" />
    <glyph glyph-name="Udieresis" unicode="&#xdc;" horiz-adv-x="654" 
d="M320 696c-18 0 -34 6 -46 17s-18 27 -18 47s8 39 23 57s35 27 59 27c17 0 32 -6 45 -17s19 -27 19 -47s-8 -39 -23 -57s-35 -27 -59 -27zM540 696c-18 0 -34 6 -46 17s-18 27 -18 47s8 39 23 57s35 27 59 27c17 0 32 -6 45 -17s19 -27 19 -47s-8 -39 -23 -57
s-35 -27 -59 -27zM316 -12c-81 0 -142 19 -182 57s-60 97 -60 177c0 15 2 33 5 54s6 39 9 56l64 318h160l-70 -350c-2 -13 -4 -26 -6 -38s-2 -24 -2 -36c0 -33 6 -57 18 -74s35 -26 68 -26c29 0 53 12 70 36s31 64 42 120l74 368h156l-74 -364c-20 -102 -52 -178 -96 -226
s-102 -72 -176 -72z" />
    <glyph glyph-name="Yacute" unicode="&#xdd;" horiz-adv-x="528" 
d="M312 680l-61 92l207 127l70 -117zM137 0l45 228l-103 422h166l21 -144c4 -25 8 -48 11 -71s7 -47 11 -73h4c13 26 26 51 38 74s24 47 38 72l78 142h172l-276 -422l-46 -228h-159z" />
    <glyph glyph-name="Thorn" unicode="&#xde;" horiz-adv-x="608" 
d="M26 0l130 660h160l-20 -100h78c39 0 75 -6 107 -18s58 -30 77 -56s28 -61 28 -104c0 -47 -8 -88 -25 -121s-39 -61 -68 -81s-62 -35 -99 -44s-75 -14 -116 -14h-70l-24 -122h-158zM234 248h62c42 0 75 9 98 28s34 46 34 82c0 26 -7 46 -22 58s-37 18 -64 18h-72z" />
    <glyph glyph-name="germandbls" unicode="&#xdf;" horiz-adv-x="630" 
d="M388 -12c-26 0 -52 3 -77 10s-50 17 -73 32l64 106c12 -8 25 -15 39 -21s29 -9 45 -9c15 0 28 5 36 14s12 20 12 34c0 11 -4 22 -13 31s-20 19 -33 29s-25 20 -38 31s-24 24 -33 39s-13 33 -13 54s5 40 16 55s24 30 38 43s27 26 38 40s16 32 16 52c0 17 -4 31 -12 40
s-23 14 -42 14c-25 0 -45 -12 -61 -34s-28 -49 -35 -80l-94 -468h-160l100 498c8 40 23 76 45 108s51 56 86 74s77 28 125 28c33 0 65 -5 96 -16s56 -27 76 -50s30 -53 30 -90c0 -27 -5 -51 -16 -70s-23 -36 -37 -50l-37 -37c-11 -11 -16 -23 -16 -35c0 -11 6 -21 18 -32
s27 -22 43 -36s31 -31 43 -50s18 -43 18 -72c0 -34 -9 -65 -26 -92s-41 -50 -70 -66s-62 -24 -98 -24z" />
    <glyph glyph-name="agrave" unicode="&#xe0;" horiz-adv-x="558" 
d="M168 -12c-44 0 -78 16 -103 48s-37 77 -37 136c0 47 7 92 22 133s35 78 60 109s52 55 84 72s65 26 100 26c21 0 42 -5 62 -16s33 -27 42 -46h2l22 50h128l-100 -500h-130v62h-2c-22 -23 -47 -41 -74 -54s-52 -20 -76 -20zM240 118c13 0 28 4 44 13s31 26 44 53l32 160
c-6 13 -14 23 -24 29s-21 9 -30 9c-19 0 -37 -8 -54 -24s-31 -38 -42 -67s-16 -62 -16 -99c0 -26 4 -44 12 -56s20 -18 34 -18zM366 569l-162 173l136 102l124 -199z" />
    <glyph glyph-name="aacute" unicode="&#xe1;" horiz-adv-x="558" 
d="M168 -12c-44 0 -78 16 -103 48s-37 77 -37 136c0 47 7 92 22 133s35 78 60 109s52 55 84 72s65 26 100 26c21 0 42 -5 62 -16s33 -27 42 -46h2l22 50h128l-100 -500h-130v62h-2c-22 -23 -47 -41 -74 -54s-52 -20 -76 -20zM240 118c13 0 28 4 44 13s31 26 44 53l32 160
c-6 13 -14 23 -24 29s-21 9 -30 9c-19 0 -37 -8 -54 -24s-31 -38 -42 -67s-16 -62 -16 -99c0 -26 4 -44 12 -56s20 -18 34 -18zM316 578l-69 90l191 172l95 -122z" />
    <glyph glyph-name="acircumflex" unicode="&#xe2;" horiz-adv-x="558" 
d="M168 -12c-44 0 -78 16 -103 48s-37 77 -37 136c0 47 7 92 22 133s35 78 60 109s52 55 84 72s65 26 100 26c21 0 42 -5 62 -16s33 -27 42 -46h2l22 50h128l-100 -500h-130v62h-2c-22 -23 -47 -41 -74 -54s-52 -20 -76 -20zM240 118c13 0 28 4 44 13s31 26 44 53l32 160
c-6 13 -14 23 -24 29s-21 9 -30 9c-19 0 -37 -8 -54 -24s-31 -38 -42 -67s-16 -62 -16 -99c0 -26 4 -44 12 -56s20 -18 34 -18zM196 558l-54 64l128 124h176l84 -128l-70 -60l-110 88h-4z" />
    <glyph glyph-name="atilde" unicode="&#xe3;" horiz-adv-x="558" 
d="M406 572c-21 0 -38 5 -52 14s-26 19 -37 28s-22 14 -35 14c-8 0 -15 -4 -22 -10s-13 -18 -16 -36l-104 6c9 57 27 98 54 122s59 36 96 36c22 0 40 -5 53 -14s25 -19 36 -28s22 -14 35 -14c8 0 16 4 23 10s12 18 15 36l104 -6c-9 -57 -27 -98 -54 -122s-59 -36 -96 -36z
M168 -12c-44 0 -78 16 -103 48s-37 77 -37 136c0 47 7 92 22 133s35 78 60 109s52 55 84 72s65 26 100 26c21 0 42 -5 62 -16s33 -27 42 -46h2l22 50h128l-100 -500h-130v62h-2c-22 -23 -47 -41 -74 -54s-52 -20 -76 -20zM240 118c13 0 28 4 44 13s31 26 44 53l32 160
c-6 13 -14 23 -24 29s-21 9 -30 9c-19 0 -37 -8 -54 -24s-31 -38 -42 -67s-16 -62 -16 -99c0 -26 4 -44 12 -56s20 -18 34 -18z" />
    <glyph glyph-name="adieresis" unicode="&#xe4;" horiz-adv-x="558" 
d="M226 566c-19 0 -34 6 -47 17s-19 28 -19 49s8 40 24 57s36 25 60 25c19 0 34 -6 47 -18s19 -27 19 -48c0 -23 -8 -42 -24 -58s-36 -24 -60 -24zM446 566c-19 0 -34 6 -47 17s-19 28 -19 49s8 40 24 57s36 25 60 25c19 0 34 -6 47 -18s19 -27 19 -48c0 -23 -8 -42 -24 -58
s-36 -24 -60 -24zM168 -12c-44 0 -78 16 -103 48s-37 77 -37 136c0 47 7 92 22 133s35 78 60 109s52 55 84 72s65 26 100 26c21 0 42 -5 62 -16s33 -27 42 -46h2l22 50h128l-100 -500h-130v62h-2c-22 -23 -47 -41 -74 -54s-52 -20 -76 -20zM240 118c13 0 28 4 44 13
s31 26 44 53l32 160c-6 13 -14 23 -24 29s-21 9 -30 9c-19 0 -37 -8 -54 -24s-31 -38 -42 -67s-16 -62 -16 -99c0 -26 4 -44 12 -56s20 -18 34 -18z" />
    <glyph glyph-name="aring" unicode="&#xe5;" horiz-adv-x="558" 
d="M336 570c-35 0 -65 8 -88 24s-34 39 -34 68c0 33 15 61 44 83s65 33 110 33c36 0 65 -8 88 -24s34 -39 34 -68c0 -33 -15 -60 -44 -82s-65 -34 -110 -34zM346 630c12 0 22 6 31 16s13 22 13 36c0 9 -3 18 -8 25s-13 11 -24 11c-12 0 -22 -6 -31 -16s-13 -22 -13 -36
c0 -10 3 -19 8 -26s13 -10 24 -10zM168 -12c-44 0 -78 16 -103 48s-37 77 -37 136c0 47 7 92 22 133s35 78 60 109s52 55 84 72s65 26 100 26c21 0 42 -5 62 -16s33 -27 42 -46h2l22 50h128l-100 -500h-130v62h-2c-22 -23 -47 -41 -74 -54s-52 -20 -76 -20zM240 118
c13 0 28 4 44 13s31 26 44 53l32 160c-6 13 -14 23 -24 29s-21 9 -30 9c-19 0 -37 -8 -54 -24s-31 -38 -42 -67s-16 -62 -16 -99c0 -26 4 -44 12 -56s20 -18 34 -18z" />
    <glyph glyph-name="ae" unicode="&#xe6;" horiz-adv-x="752" 
d="M154 -12c-39 0 -71 11 -97 34s-39 54 -39 92c0 49 13 88 40 117s64 49 109 62s95 20 149 21v12c0 22 -6 38 -16 48s-25 14 -44 14c-18 0 -38 -4 -58 -10s-42 -15 -66 -26l-34 110c31 15 64 27 97 36s67 14 101 14c57 0 97 -19 122 -56c45 37 91 56 140 56
c41 0 74 -9 98 -26s41 -40 52 -69s16 -60 16 -95c0 -24 -3 -47 -10 -70s-12 -39 -16 -46h-262c-1 -37 8 -62 26 -76s42 -22 70 -22c13 0 28 3 43 10s28 14 39 22l56 -100c-19 -14 -42 -26 -72 -36s-64 -16 -102 -16c-35 0 -66 7 -94 22s-50 32 -65 53
c-29 -23 -57 -42 -86 -55s-61 -20 -97 -20zM220 110c26 0 52 16 78 48l-2 28c-1 9 -1 20 0 32c-44 -1 -75 -8 -94 -22s-28 -31 -28 -50c0 -11 4 -19 12 -26s20 -10 34 -10zM448 302h142c1 5 2 10 3 14s1 9 1 14c0 17 -4 32 -12 43s-23 17 -44 17c-17 0 -33 -6 -50 -20
s-30 -37 -40 -68z" />
    <glyph glyph-name="ccedilla" unicode="&#xe7;" horiz-adv-x="446" 
d="M60 -244v66c38 2 64 6 80 12s25 16 28 30c1 9 -3 17 -12 24s-28 12 -58 16l68 100h98l-40 -64c25 -6 43 -14 54 -26s15 -29 12 -50c-7 -36 -30 -63 -70 -80s-93 -26 -160 -28zM226 -12c-37 0 -72 8 -102 24s-54 41 -72 72s-26 68 -26 112c0 42 7 82 22 120s37 72 64 101
s58 52 95 69s76 26 119 26c32 0 60 -7 83 -20s41 -27 53 -42l-88 -94c-9 9 -17 16 -26 21s-20 7 -32 7c-24 0 -45 -8 -64 -25s-35 -39 -46 -67s-16 -60 -16 -94c0 -25 6 -45 18 -60s30 -22 54 -22c15 0 28 3 39 9s20 12 29 19l66 -98c-19 -14 -42 -28 -69 -40
s-61 -18 -101 -18z" />
    <glyph glyph-name="egrave" unicode="&#xe8;" horiz-adv-x="502" 
d="M366 569l-162 173l136 102l124 -199zM234 -12c-41 0 -77 9 -108 26s-56 42 -74 74s-26 71 -26 116c0 46 8 88 25 126s39 70 66 97s58 48 91 63s67 22 100 22c41 0 74 -9 98 -26s41 -40 52 -69s16 -60 16 -95c0 -24 -3 -47 -10 -70s-12 -39 -16 -46h-272
c0 -35 10 -60 30 -75s45 -23 74 -23c14 0 28 3 44 10s29 14 40 22l56 -100c-20 -14 -46 -26 -77 -36s-68 -16 -109 -16zM188 302h152c1 3 2 8 3 13s1 10 1 15c0 17 -4 32 -12 43s-23 17 -44 17c-19 0 -38 -6 -56 -20s-33 -37 -44 -68z" />
    <glyph glyph-name="eacute" unicode="&#xe9;" horiz-adv-x="502" 
d="M316 578l-69 90l191 172l95 -122zM234 -12c-41 0 -77 9 -108 26s-56 42 -74 74s-26 71 -26 116c0 46 8 88 25 126s39 70 66 97s58 48 91 63s67 22 100 22c41 0 74 -9 98 -26s41 -40 52 -69s16 -60 16 -95c0 -24 -3 -47 -10 -70s-12 -39 -16 -46h-272c0 -35 10 -60 30 -75
s45 -23 74 -23c14 0 28 3 44 10s29 14 40 22l56 -100c-20 -14 -46 -26 -77 -36s-68 -16 -109 -16zM188 302h152c1 3 2 8 3 13s1 10 1 15c0 17 -4 32 -12 43s-23 17 -44 17c-19 0 -38 -6 -56 -20s-33 -37 -44 -68z" />
    <glyph glyph-name="ecircumflex" unicode="&#xea;" horiz-adv-x="502" 
d="M196 558l-54 64l128 124h176l84 -128l-70 -60l-110 88h-4zM234 -12c-41 0 -77 9 -108 26s-56 42 -74 74s-26 71 -26 116c0 46 8 88 25 126s39 70 66 97s58 48 91 63s67 22 100 22c41 0 74 -9 98 -26s41 -40 52 -69s16 -60 16 -95c0 -24 -3 -47 -10 -70s-12 -39 -16 -46
h-272c0 -35 10 -60 30 -75s45 -23 74 -23c14 0 28 3 44 10s29 14 40 22l56 -100c-20 -14 -46 -26 -77 -36s-68 -16 -109 -16zM188 302h152c1 3 2 8 3 13s1 10 1 15c0 17 -4 32 -12 43s-23 17 -44 17c-19 0 -38 -6 -56 -20s-33 -37 -44 -68z" />
    <glyph glyph-name="edieresis" unicode="&#xeb;" horiz-adv-x="502" 
d="M226 566c-19 0 -34 6 -47 17s-19 28 -19 49s8 40 24 57s36 25 60 25c19 0 34 -6 47 -18s19 -27 19 -48c0 -23 -8 -42 -24 -58s-36 -24 -60 -24zM446 566c-19 0 -34 6 -47 17s-19 28 -19 49s8 40 24 57s36 25 60 25c19 0 34 -6 47 -18s19 -27 19 -48c0 -23 -8 -42 -24 -58
s-36 -24 -60 -24zM234 -12c-41 0 -77 9 -108 26s-56 42 -74 74s-26 71 -26 116c0 46 8 88 25 126s39 70 66 97s58 48 91 63s67 22 100 22c41 0 74 -9 98 -26s41 -40 52 -69s16 -60 16 -95c0 -24 -3 -47 -10 -70s-12 -39 -16 -46h-272c0 -35 10 -60 30 -75s45 -23 74 -23
c14 0 28 3 44 10s29 14 40 22l56 -100c-20 -14 -46 -26 -77 -36s-68 -16 -109 -16zM188 302h152c1 3 2 8 3 13s1 10 1 15c0 17 -4 32 -12 43s-23 17 -44 17c-19 0 -38 -6 -56 -20s-33 -37 -44 -68z" />
    <glyph glyph-name="igrave" unicode="&#xec;" horiz-adv-x="276" 
d="M236 569l-162 173l136 102l124 -199zM8 0l100 500h160l-100 -500h-160z" />
    <glyph glyph-name="iacute" unicode="&#xed;" horiz-adv-x="276" 
d="M186 578l-69 90l191 172l95 -122zM8 0l100 500h160l-100 -500h-160z" />
    <glyph glyph-name="icircumflex" unicode="&#xee;" horiz-adv-x="276" 
d="M66 558l-54 64l128 124h176l84 -128l-70 -60l-110 88h-4zM8 0l100 500h160l-100 -500h-160z" />
    <glyph glyph-name="idieresis" unicode="&#xef;" horiz-adv-x="276" 
d="M96 566c-19 0 -34 6 -47 17s-19 28 -19 49s8 40 24 57s36 25 60 25c19 0 34 -6 47 -18s19 -27 19 -48c0 -23 -8 -42 -24 -58s-36 -24 -60 -24zM316 566c-19 0 -34 6 -47 17s-19 28 -19 49s8 40 24 57s36 25 60 25c19 0 34 -6 47 -18s19 -27 19 -48c0 -23 -8 -42 -24 -58
s-36 -24 -60 -24zM8 0l100 500h160l-100 -500h-160z" />
    <glyph glyph-name="eth" unicode="&#xf0;" horiz-adv-x="542" 
d="M174 198c0 -23 5 -42 16 -58s28 -24 50 -24c31 0 56 17 76 50s32 76 37 129c-7 12 -17 23 -30 31s-27 12 -43 12c-24 0 -44 -7 -60 -21s-26 -31 -34 -53s-12 -44 -12 -66zM226 -12c-35 0 -68 8 -98 24s-54 38 -72 68s-26 65 -26 106c0 33 5 65 15 97s25 61 44 87
s43 48 71 64s61 24 98 24c19 0 37 -4 54 -12s30 -19 41 -34c-6 46 -20 86 -41 121l-144 -57l-30 74l120 47c-11 9 -22 19 -34 28s-26 18 -40 27l72 92c50 -25 94 -57 132 -95l144 57l30 -74l-122 -48c21 -31 37 -66 48 -103s16 -78 16 -121c0 -45 -5 -90 -16 -134
s-28 -84 -51 -120s-52 -64 -87 -86s-76 -32 -124 -32z" />
    <glyph glyph-name="ntilde" unicode="&#xf1;" horiz-adv-x="562" 
d="M446 572c-21 0 -38 5 -52 14s-26 19 -37 28s-22 14 -35 14c-8 0 -15 -4 -22 -10s-13 -18 -16 -36l-104 6c9 57 27 98 54 122s59 36 96 36c22 0 40 -5 53 -14s25 -19 36 -28s22 -14 35 -14c8 0 16 4 23 10s12 18 15 36l104 -6c-9 -57 -27 -98 -54 -122s-59 -36 -96 -36z
M8 0l100 500h130v-64h4c23 20 49 38 76 53s56 23 88 23c41 0 71 -10 90 -32s28 -55 28 -98c0 -23 -3 -47 -8 -72l-62 -310h-160l58 290c2 9 4 17 6 24s2 14 2 20c0 28 -14 42 -42 42c-14 0 -28 -5 -41 -14s-29 -23 -47 -42l-62 -320h-160z" />
    <glyph glyph-name="ograve" unicode="&#xf2;" horiz-adv-x="540" 
d="M366 569l-162 173l136 102l124 -199zM226 -12c-40 0 -75 9 -105 26s-53 42 -70 73s-25 68 -25 109c0 49 8 92 24 131s39 71 66 99s58 49 92 64s67 22 102 22c40 0 75 -9 105 -26s53 -42 70 -73s25 -68 25 -109c0 -49 -8 -92 -24 -131s-39 -71 -66 -99s-58 -49 -92 -64
s-67 -22 -102 -22zM244 116c19 0 36 8 52 24s29 38 38 66s14 60 14 96c0 25 -5 45 -14 60s-23 22 -42 22s-36 -8 -52 -24s-29 -38 -38 -66s-14 -60 -14 -96c0 -25 5 -45 14 -60s23 -22 42 -22z" />
    <glyph glyph-name="oacute" unicode="&#xf3;" horiz-adv-x="540" 
d="M316 578l-69 90l191 172l95 -122zM226 -12c-40 0 -75 9 -105 26s-53 42 -70 73s-25 68 -25 109c0 49 8 92 24 131s39 71 66 99s58 49 92 64s67 22 102 22c40 0 75 -9 105 -26s53 -42 70 -73s25 -68 25 -109c0 -49 -8 -92 -24 -131s-39 -71 -66 -99s-58 -49 -92 -64
s-67 -22 -102 -22zM244 116c19 0 36 8 52 24s29 38 38 66s14 60 14 96c0 25 -5 45 -14 60s-23 22 -42 22s-36 -8 -52 -24s-29 -38 -38 -66s-14 -60 -14 -96c0 -25 5 -45 14 -60s23 -22 42 -22z" />
    <glyph glyph-name="ocircumflex" unicode="&#xf4;" horiz-adv-x="540" 
d="M196 558l-54 64l128 124h176l84 -128l-70 -60l-110 88h-4zM226 -12c-40 0 -75 9 -105 26s-53 42 -70 73s-25 68 -25 109c0 49 8 92 24 131s39 71 66 99s58 49 92 64s67 22 102 22c40 0 75 -9 105 -26s53 -42 70 -73s25 -68 25 -109c0 -49 -8 -92 -24 -131
s-39 -71 -66 -99s-58 -49 -92 -64s-67 -22 -102 -22zM244 116c19 0 36 8 52 24s29 38 38 66s14 60 14 96c0 25 -5 45 -14 60s-23 22 -42 22s-36 -8 -52 -24s-29 -38 -38 -66s-14 -60 -14 -96c0 -25 5 -45 14 -60s23 -22 42 -22z" />
    <glyph glyph-name="otilde" unicode="&#xf5;" horiz-adv-x="540" 
d="M406 572c-21 0 -38 5 -52 14s-26 19 -37 28s-22 14 -35 14c-8 0 -15 -4 -22 -10s-13 -18 -16 -36l-104 6c9 57 27 98 54 122s59 36 96 36c22 0 40 -5 53 -14s25 -19 36 -28s22 -14 35 -14c8 0 16 4 23 10s12 18 15 36l104 -6c-9 -57 -27 -98 -54 -122s-59 -36 -96 -36z
M226 -12c-40 0 -75 9 -105 26s-53 42 -70 73s-25 68 -25 109c0 49 8 92 24 131s39 71 66 99s58 49 92 64s67 22 102 22c40 0 75 -9 105 -26s53 -42 70 -73s25 -68 25 -109c0 -49 -8 -92 -24 -131s-39 -71 -66 -99s-58 -49 -92 -64s-67 -22 -102 -22zM244 116
c19 0 36 8 52 24s29 38 38 66s14 60 14 96c0 25 -5 45 -14 60s-23 22 -42 22s-36 -8 -52 -24s-29 -38 -38 -66s-14 -60 -14 -96c0 -25 5 -45 14 -60s23 -22 42 -22z" />
    <glyph glyph-name="odieresis" unicode="&#xf6;" horiz-adv-x="540" 
d="M226 566c-19 0 -34 6 -47 17s-19 28 -19 49s8 40 24 57s36 25 60 25c19 0 34 -6 47 -18s19 -27 19 -48c0 -23 -8 -42 -24 -58s-36 -24 -60 -24zM446 566c-19 0 -34 6 -47 17s-19 28 -19 49s8 40 24 57s36 25 60 25c19 0 34 -6 47 -18s19 -27 19 -48c0 -23 -8 -42 -24 -58
s-36 -24 -60 -24zM226 -12c-40 0 -75 9 -105 26s-53 42 -70 73s-25 68 -25 109c0 49 8 92 24 131s39 71 66 99s58 49 92 64s67 22 102 22c40 0 75 -9 105 -26s53 -42 70 -73s25 -68 25 -109c0 -49 -8 -92 -24 -131s-39 -71 -66 -99s-58 -49 -92 -64s-67 -22 -102 -22z
M244 116c19 0 36 8 52 24s29 38 38 66s14 60 14 96c0 25 -5 45 -14 60s-23 22 -42 22s-36 -8 -52 -24s-29 -38 -38 -66s-14 -60 -14 -96c0 -25 5 -45 14 -60s23 -22 42 -22z" />
    <glyph glyph-name="divide" unicode="&#xf7;" 
d="M48 274v112h448v-112h-448zM272 68c-24 0 -44 7 -61 22s-25 34 -25 58c0 23 8 42 25 58s37 24 61 24s44 -8 61 -24s25 -35 25 -58c0 -24 -8 -43 -25 -58s-37 -22 -61 -22zM272 430c-24 0 -44 8 -61 23s-25 35 -25 59c0 23 8 43 25 58s37 22 61 22s44 -7 61 -22
s25 -35 25 -58c0 -24 -8 -44 -25 -59s-37 -23 -61 -23z" />
    <glyph glyph-name="oslash" unicode="&#xf8;" horiz-adv-x="540" 
d="M298 388c-21 0 -40 -6 -55 -18s-28 -27 -38 -46s-17 -38 -22 -60s-7 -43 -7 -63l163 168c-11 13 -24 19 -41 19zM48 -26l-48 46l56 58c-9 16 -17 34 -22 54s-8 41 -8 64c0 49 8 92 24 131s39 71 66 99s58 49 92 64s67 22 102 22c51 0 93 -14 128 -42l52 54l50 -44
l-59 -60c19 -33 29 -71 29 -116c0 -49 -8 -93 -24 -132s-39 -72 -66 -100s-58 -48 -92 -62s-67 -22 -102 -22c-49 0 -90 13 -125 40zM238 112c22 0 41 6 56 18s28 26 38 44s18 39 22 60s6 42 6 61l-162 -167c9 -11 23 -16 40 -16z" />
    <glyph glyph-name="ugrave" unicode="&#xf9;" horiz-adv-x="552" 
d="M366 569l-162 173l136 102l124 -199zM150 -12c-41 0 -71 11 -90 33s-28 54 -28 97c0 23 3 47 8 72l62 310h160l-58 -290c-2 -9 -4 -17 -6 -24s-2 -14 -2 -20c0 -28 14 -42 42 -42c13 0 26 5 39 14s27 23 43 42l62 320h160l-98 -500h-130v64h-4c-21 -20 -45 -38 -73 -53
s-57 -23 -87 -23z" />
    <glyph glyph-name="uacute" unicode="&#xfa;" horiz-adv-x="552" 
d="M316 578l-69 90l191 172l95 -122zM150 -12c-41 0 -71 11 -90 33s-28 54 -28 97c0 23 3 47 8 72l62 310h160l-58 -290c-2 -9 -4 -17 -6 -24s-2 -14 -2 -20c0 -28 14 -42 42 -42c13 0 26 5 39 14s27 23 43 42l62 320h160l-98 -500h-130v64h-4c-21 -20 -45 -38 -73 -53
s-57 -23 -87 -23z" />
    <glyph glyph-name="ucircumflex" unicode="&#xfb;" horiz-adv-x="552" 
d="M196 558l-54 64l128 124h176l84 -128l-70 -60l-110 88h-4zM150 -12c-41 0 -71 11 -90 33s-28 54 -28 97c0 23 3 47 8 72l62 310h160l-58 -290c-2 -9 -4 -17 -6 -24s-2 -14 -2 -20c0 -28 14 -42 42 -42c13 0 26 5 39 14s27 23 43 42l62 320h160l-98 -500h-130v64h-4
c-21 -20 -45 -38 -73 -53s-57 -23 -87 -23z" />
    <glyph glyph-name="udieresis" unicode="&#xfc;" horiz-adv-x="552" 
d="M226 566c-19 0 -34 6 -47 17s-19 28 -19 49s8 40 24 57s36 25 60 25c19 0 34 -6 47 -18s19 -27 19 -48c0 -23 -8 -42 -24 -58s-36 -24 -60 -24zM446 566c-19 0 -34 6 -47 17s-19 28 -19 49s8 40 24 57s36 25 60 25c19 0 34 -6 47 -18s19 -27 19 -48c0 -23 -8 -42 -24 -58
s-36 -24 -60 -24zM150 -12c-41 0 -71 11 -90 33s-28 54 -28 97c0 23 3 47 8 72l62 310h160l-58 -290c-2 -9 -4 -17 -6 -24s-2 -14 -2 -20c0 -28 14 -42 42 -42c13 0 26 5 39 14s27 23 43 42l62 320h160l-98 -500h-130v64h-4c-21 -20 -45 -38 -73 -53s-57 -23 -87 -23z" />
    <glyph glyph-name="yacute" unicode="&#xfd;" horiz-adv-x="518" 
d="M306 578l-69 90l191 172l95 -122zM52 -188c-10 0 -23 2 -38 6s-28 10 -38 16l48 114c11 -7 24 -10 38 -10c15 0 31 6 46 16s26 24 35 41l10 20l-88 485h159l18 -205c2 -21 3 -45 4 -73s2 -54 2 -78h4c10 23 21 49 32 76s22 52 32 75l90 205h154l-261 -499
c-37 -65 -74 -112 -111 -143s-83 -46 -136 -46z" />
    <glyph glyph-name="thorn" unicode="&#xfe;" horiz-adv-x="560" 
d="M-28 -176l176 872h160l-30 -146l-26 -92h2c21 17 44 31 67 40s46 14 69 14c44 0 78 -16 103 -48s37 -77 37 -136c0 -47 -7 -92 -22 -133s-35 -78 -60 -109s-52 -55 -84 -72s-65 -26 -100 -26c-19 0 -37 4 -54 14s-30 23 -40 40h-2l-12 -94l-24 -124h-160zM252 118
c19 0 37 8 54 24s31 38 42 67s16 62 16 99c0 26 -4 44 -12 56s-20 18 -34 18c-13 0 -26 -4 -42 -12s-30 -22 -42 -44l-34 -170c5 -13 12 -22 22 -28s20 -10 30 -10z" />
    <glyph glyph-name="ydieresis" unicode="&#xff;" horiz-adv-x="518" 
d="M216 566c-19 0 -34 6 -47 17s-19 28 -19 49s8 40 24 57s36 25 60 25c19 0 34 -6 47 -18s19 -27 19 -48c0 -23 -8 -42 -24 -58s-36 -24 -60 -24zM436 566c-19 0 -34 6 -47 17s-19 28 -19 49s8 40 24 57s36 25 60 25c19 0 34 -6 47 -18s19 -27 19 -48c0 -23 -8 -42 -24 -58
s-36 -24 -60 -24zM52 -188c-10 0 -23 2 -38 6s-28 10 -38 16l48 114c11 -7 24 -10 38 -10c15 0 31 6 46 16s26 24 35 41l10 20l-88 485h159l18 -205c2 -21 3 -45 4 -73s2 -54 2 -78h4c10 23 21 49 32 76s22 52 32 75l90 205h154l-261 -499c-37 -65 -74 -112 -111 -143
s-83 -46 -136 -46z" />
    <glyph glyph-name="Amacron" unicode="&#x100;" horiz-adv-x="562" 
d="M230 716l20 102h300l-20 -102h-300zM266 344l-34 -76h120l-2 76c-1 31 -1 62 -2 92s-2 61 -2 94h-4c-13 -32 -25 -64 -37 -94s-25 -61 -39 -92zM-66 0l340 650h192l62 -650h-168l-4 148h-179l-67 -148h-176z" />
    <glyph glyph-name="amacron" unicode="&#x101;" horiz-adv-x="558" 
d="M188 590l20 100h294l-20 -100h-294zM168 -12c-44 0 -78 16 -103 48s-37 77 -37 136c0 47 7 92 22 133s35 78 60 109s52 55 84 72s65 26 100 26c21 0 42 -5 62 -16s33 -27 42 -46h2l22 50h128l-100 -500h-130v62h-2c-22 -23 -47 -41 -74 -54s-52 -20 -76 -20zM240 118
c13 0 28 4 44 13s31 26 44 53l32 160c-6 13 -14 23 -24 29s-21 9 -30 9c-19 0 -37 -8 -54 -24s-31 -38 -42 -67s-16 -62 -16 -99c0 -26 4 -44 12 -56s20 -18 34 -18z" />
    <glyph glyph-name="Abreve" unicode="&#x102;" horiz-adv-x="562" 
d="M379 694c-51 0 -88 11 -113 34s-36 58 -33 106l96 16c1 -19 7 -34 19 -44s29 -14 49 -14c42 0 71 19 88 58l88 -16c-13 -48 -35 -83 -68 -106s-75 -34 -126 -34zM266 344l-34 -76h120l-2 76c-1 31 -1 62 -2 92s-2 61 -2 94h-4c-13 -32 -25 -64 -37 -94s-25 -61 -39 -92z
M-66 0l340 650h192l62 -650h-168l-4 148h-179l-67 -148h-176z" />
    <glyph glyph-name="abreve" unicode="&#x103;" horiz-adv-x="558" 
d="M339 572c-59 0 -99 15 -122 45s-31 68 -24 115l100 16c-1 -20 5 -37 15 -50s27 -20 51 -20s43 7 58 20s25 30 32 50l92 -16c-9 -47 -30 -85 -63 -115s-80 -45 -139 -45zM168 -12c-44 0 -78 16 -103 48s-37 77 -37 136c0 47 7 92 22 133s35 78 60 109s52 55 84 72
s65 26 100 26c21 0 42 -5 62 -16s33 -27 42 -46h2l22 50h128l-100 -500h-130v62h-2c-22 -23 -47 -41 -74 -54s-52 -20 -76 -20zM240 118c13 0 28 4 44 13s31 26 44 53l32 160c-6 13 -14 23 -24 29s-21 9 -30 9c-19 0 -37 -8 -54 -24s-31 -38 -42 -67s-16 -62 -16 -99
c0 -26 4 -44 12 -56s20 -18 34 -18z" />
    <glyph glyph-name="Aogonek" unicode="&#x104;" horiz-adv-x="562" 
d="M266 344l-34 -76h120l-2 76c-1 31 -1 62 -2 92s-2 61 -2 94h-4c-13 -32 -25 -64 -37 -94s-25 -61 -39 -92zM394 -226c-29 0 -52 8 -70 22s-28 33 -28 58c0 23 6 43 17 62s24 36 39 50s29 26 40 34h-32l-4 148h-179l-67 -148h-176l340 650h192l62 -650
c-42 -14 -71 -30 -86 -47s-22 -33 -22 -47c0 -10 3 -17 10 -22s15 -8 24 -8c7 0 15 3 24 8l30 -76c-15 -10 -32 -18 -54 -24s-42 -10 -60 -10z" />
    <glyph glyph-name="aogonek" unicode="&#x105;" horiz-adv-x="558" 
d="M322 -212c-26 0 -47 7 -64 20s-26 31 -26 56c0 22 5 42 16 60s24 33 38 46s25 23 34 30v62h-2c-22 -23 -47 -41 -74 -54s-52 -20 -76 -20c-44 0 -78 16 -103 48s-37 77 -37 136c0 47 7 92 22 133s35 78 60 109s52 55 84 72s65 26 100 26c21 0 42 -5 62 -16s33 -27 42 -46
h2l22 50h128l-100 -500c-32 -8 -57 -20 -76 -36s-28 -34 -28 -54c0 -9 3 -15 10 -20s15 -8 24 -8s19 3 30 10l26 -64c-15 -11 -32 -20 -54 -28s-42 -12 -60 -12zM240 118c13 0 28 4 44 13s31 26 44 53l32 160c-6 13 -14 23 -24 29s-21 9 -30 9c-19 0 -37 -8 -54 -24
s-31 -38 -42 -67s-16 -62 -16 -99c0 -26 4 -44 12 -56s20 -18 34 -18z" />
    <glyph glyph-name="Cacute" unicode="&#x106;" horiz-adv-x="574" 
d="M372 680l-61 92l207 127l70 -117zM310 -12c-51 0 -95 10 -133 32s-68 53 -89 94s-32 91 -32 150c0 58 10 111 28 160s43 91 75 126s69 62 111 82s88 30 136 30c38 0 73 -10 104 -28s55 -44 74 -78l-108 -84c-23 35 -49 52 -78 52c-31 0 -61 -12 -88 -34s-48 -52 -65 -90
s-25 -79 -25 -126s10 -83 29 -109s51 -39 95 -39c17 0 35 5 52 14s33 19 48 32l66 -102c-12 -11 -28 -23 -48 -36s-42 -23 -68 -32s-53 -14 -84 -14z" />
    <glyph glyph-name="cacute" unicode="&#x107;" horiz-adv-x="446" 
d="M296 578l-69 90l191 172l95 -122zM226 -12c-37 0 -72 8 -102 24s-54 41 -72 72s-26 68 -26 112c0 42 7 82 22 120s37 72 64 101s58 52 95 69s76 26 119 26c32 0 60 -7 83 -20s41 -27 53 -42l-88 -94c-9 9 -17 16 -26 21s-20 7 -32 7c-24 0 -45 -8 -64 -25
s-35 -39 -46 -67s-16 -60 -16 -94c0 -25 6 -45 18 -60s30 -22 54 -22c15 0 28 3 39 9s20 12 29 19l66 -98c-19 -14 -42 -28 -69 -40s-61 -18 -101 -18z" />
    <glyph glyph-name="Ccircumflex" unicode="&#x108;" horiz-adv-x="574" 
d="M304 680l-66 50l104 104h188l64 -110l-78 -44l-84 80h-4zM310 -12c-51 0 -95 10 -133 32s-68 53 -89 94s-32 91 -32 150c0 58 10 111 28 160s43 91 75 126s69 62 111 82s88 30 136 30c38 0 73 -10 104 -28s55 -44 74 -78l-108 -84c-23 35 -49 52 -78 52
c-31 0 -61 -12 -88 -34s-48 -52 -65 -90s-25 -79 -25 -126s10 -83 29 -109s51 -39 95 -39c17 0 35 5 52 14s33 19 48 32l66 -102c-12 -11 -28 -23 -48 -36s-42 -23 -68 -32s-53 -14 -84 -14z" />
    <glyph glyph-name="ccircumflex" unicode="&#x109;" horiz-adv-x="446" 
d="M176 558l-54 64l128 124h176l84 -128l-70 -60l-110 88h-4zM226 -12c-37 0 -72 8 -102 24s-54 41 -72 72s-26 68 -26 112c0 42 7 82 22 120s37 72 64 101s58 52 95 69s76 26 119 26c32 0 60 -7 83 -20s41 -27 53 -42l-88 -94c-9 9 -17 16 -26 21s-20 7 -32 7
c-24 0 -45 -8 -64 -25s-35 -39 -46 -67s-16 -60 -16 -94c0 -25 6 -45 18 -60s30 -22 54 -22c15 0 28 3 39 9s20 12 29 19l66 -98c-19 -14 -42 -28 -69 -40s-61 -18 -101 -18z" />
    <glyph glyph-name="Cdotaccent" unicode="&#x10a;" horiz-adv-x="574" 
d="M426 698c-21 0 -40 6 -58 18s-26 31 -26 56c0 24 9 45 28 63s41 27 68 27c21 0 41 -6 58 -19s26 -31 26 -55c0 -26 -10 -47 -28 -64s-41 -26 -68 -26zM310 -12c-51 0 -95 10 -133 32s-68 53 -89 94s-32 91 -32 150c0 58 10 111 28 160s43 91 75 126s69 62 111 82
s88 30 136 30c38 0 73 -10 104 -28s55 -44 74 -78l-108 -84c-23 35 -49 52 -78 52c-31 0 -61 -12 -88 -34s-48 -52 -65 -90s-25 -79 -25 -126s10 -83 29 -109s51 -39 95 -39c17 0 35 5 52 14s33 19 48 32l66 -102c-12 -11 -28 -23 -48 -36s-42 -23 -68 -32s-53 -14 -84 -14z
" />
    <glyph glyph-name="cdotaccent" unicode="&#x10b;" horiz-adv-x="446" 
d="M320 564c-21 0 -40 6 -58 18s-26 31 -26 56c0 24 9 45 28 63s41 27 68 27c21 0 41 -6 58 -19s26 -31 26 -55c0 -26 -10 -47 -28 -64s-41 -26 -68 -26zM226 -12c-37 0 -72 8 -102 24s-54 41 -72 72s-26 68 -26 112c0 42 7 82 22 120s37 72 64 101s58 52 95 69
s76 26 119 26c32 0 60 -7 83 -20s41 -27 53 -42l-88 -94c-9 9 -17 16 -26 21s-20 7 -32 7c-24 0 -45 -8 -64 -25s-35 -39 -46 -67s-16 -60 -16 -94c0 -25 6 -45 18 -60s30 -22 54 -22c15 0 28 3 39 9s20 12 29 19l66 -98c-19 -14 -42 -28 -69 -40s-61 -18 -101 -18z" />
    <glyph glyph-name="Ccaron" unicode="&#x10c;" horiz-adv-x="574" 
d="M328 700l-64 110l78 44l84 -80h4l124 80l66 -50l-104 -104h-188zM310 -12c-51 0 -95 10 -133 32s-68 53 -89 94s-32 91 -32 150c0 58 10 111 28 160s43 91 75 126s69 62 111 82s88 30 136 30c38 0 73 -10 104 -28s55 -44 74 -78l-108 -84c-23 35 -49 52 -78 52
c-31 0 -61 -12 -88 -34s-48 -52 -65 -90s-25 -79 -25 -126s10 -83 29 -109s51 -39 95 -39c17 0 35 5 52 14s33 19 48 32l66 -102c-12 -11 -28 -23 -48 -36s-42 -23 -68 -32s-53 -14 -84 -14z" />
    <glyph glyph-name="ccaron" unicode="&#x10d;" horiz-adv-x="446" 
d="M232 580l-84 128l70 60l110 -88h4l150 88l54 -64l-128 -124h-176zM226 -12c-37 0 -72 8 -102 24s-54 41 -72 72s-26 68 -26 112c0 42 7 82 22 120s37 72 64 101s58 52 95 69s76 26 119 26c32 0 60 -7 83 -20s41 -27 53 -42l-88 -94c-9 9 -17 16 -26 21s-20 7 -32 7
c-24 0 -45 -8 -64 -25s-35 -39 -46 -67s-16 -60 -16 -94c0 -25 6 -45 18 -60s30 -22 54 -22c15 0 28 3 39 9s20 12 29 19l66 -98c-19 -14 -42 -28 -69 -40s-61 -18 -101 -18z" />
    <glyph glyph-name="Dcaron" unicode="&#x10e;" horiz-adv-x="626" 
d="M308 700l-64 110l78 44l84 -80h4l124 80l66 -50l-104 -104h-188zM26 0l130 650h152c91 0 162 -21 214 -62s78 -106 78 -194s-16 -162 -48 -220s-74 -101 -128 -130s-116 -44 -184 -44h-214zM212 128h24c36 0 70 8 100 25s54 44 72 81s28 87 28 150c0 51 -13 88 -38 108
s-56 30 -94 30h-14z" />
    <glyph glyph-name="dcaron" unicode="&#x10f;" horiz-adv-x="580" 
d="M168 -12c-44 0 -78 16 -103 48s-37 77 -37 136c0 47 7 92 22 133s35 78 60 109s52 55 84 72s65 26 100 26c21 0 41 -5 58 -15s29 -24 38 -41h2l10 94l28 146h160l-140 -696h-130v62h-2c-22 -23 -47 -41 -74 -54s-52 -20 -76 -20zM240 118c13 0 28 4 44 13s30 26 44 53
l32 160c-6 13 -14 23 -24 29s-21 9 -30 9c-19 0 -37 -8 -54 -24s-31 -38 -42 -67s-16 -62 -16 -99c0 -26 4 -44 12 -56s20 -18 34 -18zM596 548l40 226h100l-16 -74l-56 -152h-68z" />
    <glyph glyph-name="Dcroat" unicode="&#x110;" horiz-adv-x="644" 
d="M44 0l60 300h-70l14 70l71 6l55 274h152c91 0 162 -21 214 -62s78 -106 78 -194s-16 -162 -48 -220s-74 -101 -128 -130s-116 -44 -184 -44h-214zM230 128h24c36 0 70 8 100 25s54 44 72 81s28 87 28 150c0 51 -13 88 -38 108s-56 30 -94 30h-14l-29 -146h115l-16 -76
h-114z" />
    <glyph glyph-name="dcroat" unicode="&#x111;" horiz-adv-x="556" 
d="M168 -12c-44 0 -78 16 -103 48s-37 77 -37 136c0 42 7 82 22 120s35 73 60 103s52 54 84 71s65 26 100 26c21 0 40 -5 56 -15s28 -24 36 -41h2l10 94l4 22h-138l14 76h139l13 68h160l-14 -68h66l-16 -70l-65 -5l-111 -553h-130v62h-2c-22 -23 -47 -41 -74 -54
s-52 -20 -76 -20zM240 118c13 0 28 4 44 13s30 26 44 53l28 140c-5 13 -12 23 -22 29s-19 9 -28 9c-19 0 -37 -8 -54 -24s-31 -36 -42 -62s-16 -54 -16 -84c0 -26 4 -44 12 -56s20 -18 34 -18z" />
    <glyph glyph-name="Emacron" unicode="&#x112;" horiz-adv-x="536" 
d="M220 716l20 102h300l-20 -102h-300zM26 0l130 650h396l-26 -134h-238l-22 -114h202l-26 -134h-202l-28 -134h246l-26 -134h-406z" />
    <glyph glyph-name="emacron" unicode="&#x113;" horiz-adv-x="502" 
d="M188 590l20 100h294l-20 -100h-294zM234 -12c-41 0 -77 9 -108 26s-56 42 -74 74s-26 71 -26 116c0 46 8 88 25 126s39 70 66 97s58 48 91 63s67 22 100 22c41 0 74 -9 98 -26s41 -40 52 -69s16 -60 16 -95c0 -24 -3 -47 -10 -70s-12 -39 -16 -46h-272
c0 -35 10 -60 30 -75s45 -23 74 -23c14 0 28 3 44 10s29 14 40 22l56 -100c-20 -14 -46 -26 -77 -36s-68 -16 -109 -16zM188 302h152c1 3 2 8 3 13s1 10 1 15c0 17 -4 32 -12 43s-23 17 -44 17c-19 0 -38 -6 -56 -20s-33 -37 -44 -68z" />
    <glyph glyph-name="Ebreve" unicode="&#x114;" horiz-adv-x="536" 
d="M369 694c-51 0 -88 11 -113 34s-36 58 -33 106l96 16c1 -19 7 -34 19 -44s29 -14 49 -14c42 0 71 19 88 58l88 -16c-13 -48 -35 -83 -68 -106s-75 -34 -126 -34zM26 0l130 650h396l-26 -134h-238l-22 -114h202l-26 -134h-202l-28 -134h246l-26 -134h-406z" />
    <glyph glyph-name="ebreve" unicode="&#x115;" horiz-adv-x="502" 
d="M339 572c-59 0 -99 15 -122 45s-31 68 -24 115l100 16c-1 -20 5 -37 15 -50s27 -20 51 -20s43 7 58 20s25 30 32 50l92 -16c-9 -47 -30 -85 -63 -115s-80 -45 -139 -45zM234 -12c-41 0 -77 9 -108 26s-56 42 -74 74s-26 71 -26 116c0 46 8 88 25 126s39 70 66 97
s58 48 91 63s67 22 100 22c41 0 74 -9 98 -26s41 -40 52 -69s16 -60 16 -95c0 -24 -3 -47 -10 -70s-12 -39 -16 -46h-272c0 -35 10 -60 30 -75s45 -23 74 -23c14 0 28 3 44 10s29 14 40 22l56 -100c-20 -14 -46 -26 -77 -36s-68 -16 -109 -16zM188 302h152c1 3 2 8 3 13
s1 10 1 15c0 17 -4 32 -12 43s-23 17 -44 17c-19 0 -38 -6 -56 -20s-33 -37 -44 -68z" />
    <glyph glyph-name="Edotaccent" unicode="&#x116;" horiz-adv-x="536" 
d="M376 698c-21 0 -40 6 -58 18s-26 31 -26 56c0 24 9 45 28 63s41 27 68 27c21 0 41 -6 58 -19s26 -31 26 -55c0 -26 -10 -47 -28 -64s-41 -26 -68 -26zM26 0l130 650h396l-26 -134h-238l-22 -114h202l-26 -134h-202l-28 -134h246l-26 -134h-406z" />
    <glyph glyph-name="edotaccent" unicode="&#x117;" horiz-adv-x="502" 
d="M340 564c-21 0 -40 6 -58 18s-26 31 -26 56c0 24 9 45 28 63s41 27 68 27c21 0 41 -6 58 -19s26 -31 26 -55c0 -26 -10 -47 -28 -64s-41 -26 -68 -26zM234 -12c-41 0 -77 9 -108 26s-56 42 -74 74s-26 71 -26 116c0 46 8 88 25 126s39 70 66 97s58 48 91 63s67 22 100 22
c41 0 74 -9 98 -26s41 -40 52 -69s16 -60 16 -95c0 -24 -3 -47 -10 -70s-12 -39 -16 -46h-272c0 -35 10 -60 30 -75s45 -23 74 -23c14 0 28 3 44 10s29 14 40 22l56 -100c-20 -14 -46 -26 -77 -36s-68 -16 -109 -16zM188 302h152c1 3 2 8 3 13s1 10 1 15c0 17 -4 32 -12 43
s-23 17 -44 17c-19 0 -38 -6 -56 -20s-33 -37 -44 -68z" />
    <glyph glyph-name="Eogonek" unicode="&#x118;" horiz-adv-x="536" 
d="M310 -226c-29 0 -52 8 -70 22s-28 33 -28 58c0 23 6 45 18 65s26 37 41 51s28 24 37 30h-282l130 650h396l-26 -134h-238l-22 -114h202l-26 -134h-202l-28 -134h246l-26 -134c-20 -3 -38 -11 -52 -22s-24 -24 -32 -38s-12 -25 -12 -34c0 -10 3 -17 10 -22s15 -8 24 -8
c7 0 15 3 24 8l30 -76c-15 -10 -32 -18 -54 -24s-42 -10 -60 -10z" />
    <glyph glyph-name="eogonek" unicode="&#x119;" horiz-adv-x="502" 
d="M256 -212c-26 0 -47 7 -64 20s-26 31 -26 56c0 27 8 50 24 71s33 38 49 53h-3c-41 0 -78 9 -110 26s-56 42 -74 74s-26 71 -26 116c0 46 8 88 25 126s39 70 66 97s58 48 91 63s67 22 100 22c41 0 74 -9 98 -26s41 -40 52 -69s16 -60 16 -95c0 -17 -2 -33 -6 -50
s-8 -31 -12 -44s-7 -21 -10 -26h-270c1 -33 12 -57 32 -72s43 -22 72 -22c14 0 28 3 44 10s29 14 40 22l56 -100c-41 -19 -71 -36 -91 -52s-33 -31 -39 -44s-10 -25 -10 -34s3 -15 10 -20s15 -8 24 -8s19 3 30 10l26 -64c-15 -11 -32 -20 -54 -28s-42 -12 -60 -12zM188 298
h152c1 4 2 8 3 14s1 12 1 18c0 17 -4 32 -12 43s-23 17 -44 17c-19 0 -38 -7 -56 -22s-33 -38 -44 -70z" />
    <glyph glyph-name="Ecaron" unicode="&#x11a;" horiz-adv-x="536" 
d="M278 700l-64 110l78 44l84 -80h4l124 80l66 -50l-104 -104h-188zM26 0l130 650h396l-26 -134h-238l-22 -114h202l-26 -134h-202l-28 -134h246l-26 -134h-406z" />
    <glyph glyph-name="ecaron" unicode="&#x11b;" horiz-adv-x="502" 
d="M252 580l-84 128l70 60l110 -88h4l150 88l54 -64l-128 -124h-176zM234 -12c-41 0 -77 9 -108 26s-56 42 -74 74s-26 71 -26 116c0 46 8 88 25 126s39 70 66 97s58 48 91 63s67 22 100 22c41 0 74 -9 98 -26s41 -40 52 -69s16 -60 16 -95c0 -24 -3 -47 -10 -70
s-12 -39 -16 -46h-272c0 -35 10 -60 30 -75s45 -23 74 -23c14 0 28 3 44 10s29 14 40 22l56 -100c-20 -14 -46 -26 -77 -36s-68 -16 -109 -16zM188 302h152c1 3 2 8 3 13s1 10 1 15c0 17 -4 32 -12 43s-23 17 -44 17c-19 0 -38 -6 -56 -20s-33 -37 -44 -68z" />
    <glyph glyph-name="Gcircumflex" unicode="&#x11c;" horiz-adv-x="620" 
d="M304 680l-66 50l104 104h188l64 -110l-78 -44l-84 80h-4zM320 -12c-81 0 -144 24 -192 72s-72 116 -72 204c0 58 10 111 28 160s43 91 76 126s70 62 114 82s91 30 142 30c43 0 80 -10 112 -28s57 -44 76 -78l-108 -84c-23 35 -53 52 -88 52s-66 -12 -94 -34
s-51 -52 -68 -90s-26 -79 -26 -126s10 -83 30 -110s52 -40 98 -40c21 0 40 5 56 16l24 108h-96l24 130h236l-62 -322c-25 -19 -55 -35 -92 -48s-76 -20 -118 -20z" />
    <glyph glyph-name="gcircumflex" unicode="&#x11d;" horiz-adv-x="552" 
d="M180 -196c-28 0 -58 6 -92 17s-66 29 -96 53l68 106c19 -14 39 -26 60 -36s42 -14 64 -14c27 0 51 7 70 20s32 31 40 56l26 82c-43 -45 -92 -68 -146 -68c-42 0 -76 14 -104 43s-42 72 -42 131c0 45 7 86 21 124s33 73 57 102s53 52 84 68s63 24 98 24c21 0 41 -5 60 -16
s33 -27 42 -46h2l22 50h130l-96 -480c-15 -75 -46 -129 -92 -164s-105 -52 -176 -52zM238 150c14 0 29 4 45 11s30 22 43 45l26 138c-6 13 -14 23 -24 29s-19 9 -28 9c-29 0 -53 -15 -74 -46s-32 -72 -32 -122c0 -22 4 -38 12 -48s19 -16 32 -16zM186 558l-54 64l128 124
h176l84 -128l-70 -60l-110 88h-4z" />
    <glyph glyph-name="Gbreve" unicode="&#x11e;" horiz-adv-x="620" 
d="M419 694c-51 0 -88 11 -113 34s-36 58 -33 106l96 16c1 -19 7 -34 19 -44s29 -14 49 -14c42 0 71 19 88 58l88 -16c-13 -48 -35 -83 -68 -106s-75 -34 -126 -34zM320 -12c-81 0 -144 24 -192 72s-72 116 -72 204c0 58 10 111 28 160s43 91 76 126s70 62 114 82
s91 30 142 30c43 0 80 -10 112 -28s57 -44 76 -78l-108 -84c-23 35 -53 52 -88 52s-66 -12 -94 -34s-51 -52 -68 -90s-26 -79 -26 -126s10 -83 30 -110s52 -40 98 -40c21 0 40 5 56 16l24 108h-96l24 130h236l-62 -322c-25 -19 -55 -35 -92 -48s-76 -20 -118 -20z" />
    <glyph glyph-name="gbreve" unicode="&#x11f;" horiz-adv-x="552" 
d="M329 572c-59 0 -99 15 -122 45s-31 68 -24 115l100 16c-1 -20 5 -37 15 -50s27 -20 51 -20s43 7 58 20s25 30 32 50l92 -16c-9 -47 -30 -85 -63 -115s-80 -45 -139 -45zM180 -196c-28 0 -58 6 -92 17s-66 29 -96 53l68 106c19 -14 39 -26 60 -36s42 -14 64 -14
c27 0 51 7 70 20s32 31 40 56l26 82c-43 -45 -92 -68 -146 -68c-42 0 -76 14 -104 43s-42 72 -42 131c0 45 7 86 21 124s33 73 57 102s53 52 84 68s63 24 98 24c21 0 41 -5 60 -16s33 -27 42 -46h2l22 50h130l-96 -480c-15 -75 -46 -129 -92 -164s-105 -52 -176 -52z
M238 150c14 0 29 4 45 11s30 22 43 45l26 138c-6 13 -14 23 -24 29s-19 9 -28 9c-29 0 -53 -15 -74 -46s-32 -72 -32 -122c0 -22 4 -38 12 -48s19 -16 32 -16z" />
    <glyph glyph-name="Gdotaccent" unicode="&#x120;" horiz-adv-x="620" 
d="M426 698c-21 0 -40 6 -58 18s-26 31 -26 56c0 24 9 45 28 63s41 27 68 27c21 0 41 -6 58 -19s26 -31 26 -55c0 -26 -10 -47 -28 -64s-41 -26 -68 -26zM320 -12c-81 0 -144 24 -192 72s-72 116 -72 204c0 58 10 111 28 160s43 91 76 126s70 62 114 82s91 30 142 30
c43 0 80 -10 112 -28s57 -44 76 -78l-108 -84c-23 35 -53 52 -88 52s-66 -12 -94 -34s-51 -52 -68 -90s-26 -79 -26 -126s10 -83 30 -110s52 -40 98 -40c21 0 40 5 56 16l24 108h-96l24 130h236l-62 -322c-25 -19 -55 -35 -92 -48s-76 -20 -118 -20z" />
    <glyph glyph-name="gdotaccent" unicode="&#x121;" horiz-adv-x="552" 
d="M330 564c-21 0 -40 6 -58 18s-26 31 -26 56c0 24 9 45 28 63s41 27 68 27c21 0 41 -6 58 -19s26 -31 26 -55c0 -26 -10 -47 -28 -64s-41 -26 -68 -26zM180 -196c-28 0 -58 6 -92 17s-66 29 -96 53l68 106c19 -14 39 -26 60 -36s42 -14 64 -14c27 0 51 7 70 20
s32 31 40 56l26 82c-43 -45 -92 -68 -146 -68c-42 0 -76 14 -104 43s-42 72 -42 131c0 45 7 86 21 124s33 73 57 102s53 52 84 68s63 24 98 24c21 0 41 -5 60 -16s33 -27 42 -46h2l22 50h130l-96 -480c-15 -75 -46 -129 -92 -164s-105 -52 -176 -52zM238 150
c14 0 29 4 45 11s30 22 43 45l26 138c-6 13 -14 23 -24 29s-19 9 -28 9c-29 0 -53 -15 -74 -46s-32 -72 -32 -122c0 -22 4 -38 12 -48s19 -16 32 -16z" />
    <glyph glyph-name="uni0122" unicode="&#x122;" horiz-adv-x="620" 
d="M156 -244v66c39 2 66 7 82 14s23 15 23 26c0 6 -4 12 -11 18s-22 10 -43 10l44 60c37 -1 66 -5 85 -12s33 -15 40 -26s10 -23 10 -36c0 -27 -10 -49 -30 -66s-47 -30 -82 -39s-74 -14 -118 -15zM320 -12c-81 0 -144 24 -192 72s-72 116 -72 204c0 58 10 111 28 160
s43 91 76 126s70 62 114 82s91 30 142 30c43 0 80 -10 112 -28s57 -44 76 -78l-108 -84c-23 35 -53 52 -88 52s-66 -12 -94 -34s-51 -52 -68 -90s-26 -79 -26 -126s10 -83 30 -110s52 -40 98 -40c21 0 40 5 56 16l24 108h-96l24 130h236l-62 -322c-25 -19 -55 -35 -92 -48
s-76 -20 -118 -20z" />
    <glyph glyph-name="uni0123" unicode="&#x123;" horiz-adv-x="552" 
d="M180 -196c-28 0 -58 6 -92 17s-66 29 -96 53l68 106c19 -14 39 -26 60 -36s42 -14 64 -14c27 0 51 7 70 20s32 31 40 56l26 82c-43 -45 -92 -68 -146 -68c-42 0 -76 14 -104 43s-42 72 -42 131c0 45 7 86 21 124s33 73 57 102s53 52 84 68s63 24 98 24c21 0 41 -5 60 -16
s33 -27 42 -46h2l22 50h130l-96 -480c-15 -75 -46 -129 -92 -164s-105 -52 -176 -52zM238 150c14 0 29 4 45 11s30 22 43 45l26 138c-6 13 -14 23 -24 29s-19 9 -28 9c-29 0 -53 -15 -74 -46s-32 -72 -32 -122c0 -22 4 -38 12 -48s19 -16 32 -16zM363 566
c-37 1 -65 5 -85 12s-33 15 -40 26s-10 23 -10 36c0 27 10 50 30 67s49 31 84 39s75 13 119 14l-3 -66c-39 -2 -66 -6 -82 -13s-23 -16 -23 -27c0 -6 4 -12 11 -18s22 -10 43 -10z" />
    <glyph glyph-name="Hcircumflex" unicode="&#x124;" horiz-adv-x="664" 
d="M304 680l-66 50l104 104h188l64 -110l-78 -44l-84 80h-4zM26 0l130 650h160l-50 -244h194l48 244h160l-130 -650h-160l54 266h-194l-52 -266h-160z" />
    <glyph glyph-name="hcircumflex" unicode="&#x125;" horiz-adv-x="556" 
d="M324 718l-66 50l104 104h188l64 -110l-78 -44l-84 80h-4zM8 0l140 696h160l-34 -162l-24 -88h4c20 18 42 33 68 46s54 20 84 20c41 0 71 -10 90 -32s28 -55 28 -98c0 -11 -1 -22 -2 -35s-3 -25 -6 -37l-62 -310h-160l58 290c2 9 4 17 6 24s2 14 2 20c0 28 -14 42 -42 42
c-14 0 -28 -5 -41 -14s-29 -23 -47 -42l-62 -320h-160z" />
    <glyph glyph-name="Hbar" unicode="&#x126;" horiz-adv-x="696" 
d="M42 0l95 476h-71l18 90l72 5l16 79h160l-16 -78h193l15 78h160l-16 -78h74l-18 -96h-75l-95 -476h-160l54 266h-194l-52 -266h-160zM282 406h194l14 70h-194z" />
    <glyph glyph-name="hbar" unicode="&#x127;" horiz-adv-x="556" 
d="M8 0l109 542h-67l18 90l68 6l12 58h160l-12 -58h156l-20 -96h-156l-6 -28l-24 -88h4c20 18 42 33 68 46s54 20 84 20c41 0 71 -10 90 -32s28 -55 28 -98c0 -11 -1 -22 -2 -35s-3 -25 -6 -37l-58 -290h-160l54 270c2 9 4 17 6 24s2 14 2 20c0 28 -14 42 -42 42
c-14 0 -28 -5 -41 -14s-29 -23 -47 -42l-58 -300h-160z" />
    <glyph glyph-name="Itilde" unicode="&#x128;" horiz-adv-x="310" 
d="M316 686c-23 0 -43 4 -58 13s-27 17 -38 26s-21 13 -30 13c-8 0 -15 -3 -22 -8s-13 -17 -18 -34l-108 8c13 55 35 95 64 118s61 34 98 34c23 0 43 -4 58 -13s27 -17 38 -26s21 -13 30 -13c8 0 15 2 22 8s13 17 18 34l108 -8c-13 -55 -34 -94 -63 -117s-62 -35 -99 -35z
M26 0l130 650h160l-130 -650h-160z" />
    <glyph glyph-name="itilde" unicode="&#x129;" horiz-adv-x="276" 
d="M276 572c-21 0 -38 5 -52 14s-26 19 -37 28s-22 14 -35 14c-8 0 -15 -4 -22 -10s-13 -18 -16 -36l-104 6c9 57 27 98 54 122s59 36 96 36c22 0 40 -5 53 -14s25 -19 36 -28s22 -14 35 -14c8 0 16 4 23 10s12 18 15 36l104 -6c-9 -57 -27 -98 -54 -122s-59 -36 -96 -36z
M8 0l100 500h160l-100 -500h-160z" />
    <glyph glyph-name="Imacron" unicode="&#x12a;" horiz-adv-x="310" 
d="M100 716l20 102h300l-20 -102h-300zM26 0l130 650h160l-130 -650h-160z" />
    <glyph glyph-name="imacron" unicode="&#x12b;" horiz-adv-x="276" 
d="M58 590l20 100h294l-20 -100h-294zM8 0l100 500h160l-100 -500h-160z" />
    <glyph glyph-name="uni012C" unicode="&#x12c;" horiz-adv-x="310" 
d="M249 694c-51 0 -88 11 -113 34s-36 58 -33 106l96 16c1 -19 7 -34 19 -44s29 -14 49 -14c42 0 71 19 88 58l88 -16c-13 -48 -35 -83 -68 -106s-75 -34 -126 -34zM26 0l130 650h160l-130 -650h-160z" />
    <glyph glyph-name="uni012D" unicode="&#x12d;" horiz-adv-x="276" 
d="M209 572c-59 0 -99 15 -122 45s-31 68 -24 115l100 16c-1 -20 5 -37 15 -50s27 -20 51 -20s43 7 58 20s25 30 32 50l92 -16c-9 -47 -30 -85 -63 -115s-80 -45 -139 -45zM8 0l100 500h160l-100 -500h-160z" />
    <glyph glyph-name="Iogonek" unicode="&#x12e;" horiz-adv-x="310" 
d="M64 -226c-29 0 -52 8 -70 22s-28 33 -28 58c0 23 6 45 18 65s27 37 42 51s28 24 38 30h-38l130 650h160l-130 -650c-34 -11 -59 -25 -74 -44s-22 -36 -22 -50c0 -10 3 -17 10 -22s15 -8 24 -8c7 0 15 3 24 8l30 -76c-15 -10 -32 -18 -54 -24s-42 -10 -60 -10z" />
    <glyph glyph-name="iogonek" unicode="&#x12f;" horiz-adv-x="276" 
d="M52 -212c-26 0 -47 7 -64 20s-26 31 -26 56c0 22 6 42 17 60s24 35 39 48s27 22 36 28h-46l100 500h160l-100 -500c-34 -11 -58 -24 -72 -40s-20 -33 -20 -50c0 -9 3 -15 10 -20s15 -8 24 -8s19 3 30 10l26 -64c-15 -11 -32 -20 -54 -28s-42 -12 -60 -12zM210 564
c-21 0 -40 6 -58 18s-26 31 -26 56c0 24 9 45 28 63s41 27 68 27c21 0 41 -6 58 -19s26 -31 26 -55c0 -26 -10 -47 -28 -64s-41 -26 -68 -26z" />
    <glyph glyph-name="Idotaccent" unicode="&#x130;" horiz-adv-x="310" 
d="M256 698c-21 0 -40 6 -58 18s-26 31 -26 56c0 24 9 45 28 63s41 27 68 27c21 0 41 -6 58 -19s26 -31 26 -55c0 -26 -10 -47 -28 -64s-41 -26 -68 -26zM26 0l130 650h160l-130 -650h-160z" />
    <glyph glyph-name="dotlessi" unicode="&#x131;" horiz-adv-x="276" 
d="M8 0l100 500h160l-100 -500h-160z" />
    <glyph glyph-name="uni0132" unicode="&#x132;" horiz-adv-x="624" 
d="M300 -182c-18 0 -35 2 -52 6s-34 9 -52 18l48 114c14 -8 28 -12 42 -12c16 0 28 5 36 16s14 30 20 56l126 634h160l-128 -642c-7 -35 -19 -66 -34 -95s-37 -52 -64 -69s-61 -26 -102 -26zM26 0l130 650h160l-130 -650h-160z" />
    <glyph glyph-name="uni0133" unicode="&#x133;" horiz-adv-x="554" 
d="M210 564c-21 0 -40 6 -58 18s-26 31 -26 56c0 24 9 45 28 63s41 27 68 27c21 0 41 -6 58 -19s26 -31 26 -55c0 -26 -10 -47 -28 -64s-41 -26 -68 -26zM8 0l100 500h160l-100 -500h-160zM486 564c-21 0 -40 6 -58 18s-26 31 -26 56c0 24 9 45 28 63s41 27 68 27
c21 0 41 -6 58 -19s26 -31 26 -55c0 -26 -10 -47 -28 -64s-41 -26 -68 -26zM246 -188c-18 0 -35 2 -52 6s-34 9 -52 18l48 114c14 -8 28 -12 42 -12c16 0 28 5 36 16s14 30 20 56l98 490h160l-100 -498c-7 -35 -19 -66 -34 -95s-37 -52 -64 -69s-61 -26 -102 -26z" />
    <glyph glyph-name="Jcircumflex" unicode="&#x134;" horiz-adv-x="504" 
d="M334 680l-66 50l104 104h188l64 -110l-78 -44l-84 80h-4zM182 -12c-37 0 -73 8 -108 25s-63 41 -84 73l96 98c10 -14 23 -28 40 -40s35 -18 56 -18c23 0 42 9 56 27s26 47 34 86l82 411h160l-88 -439c-8 -39 -22 -76 -41 -110s-46 -61 -79 -82s-75 -31 -124 -31z" />
    <glyph glyph-name="jcircumflex" unicode="&#x135;" horiz-adv-x="278" 
d="M66 558l-54 64l128 124h176l84 -128l-70 -60l-110 88h-4zM-30 -188c-18 0 -35 2 -52 6s-34 9 -52 18l48 114c14 -8 28 -12 42 -12c16 0 28 5 36 16s14 30 20 56l98 490h160l-100 -498c-7 -35 -19 -66 -34 -95s-37 -52 -64 -69s-61 -26 -102 -26z" />
    <glyph glyph-name="uni0136" unicode="&#x136;" horiz-adv-x="622" 
d="M156 -244v66c39 2 66 7 82 14s23 15 23 26c0 6 -4 12 -11 18s-22 10 -43 10l44 60c37 -1 66 -5 85 -12s33 -15 40 -26s10 -23 10 -36c0 -27 -10 -49 -30 -66s-47 -30 -82 -39s-74 -14 -118 -15zM26 0l130 650h160l-49 -246h4l213 246h174l-234 -274l144 -376h-166
l-96 276l-84 -96l-36 -180h-160z" />
    <glyph glyph-name="uni0137" unicode="&#x137;" horiz-adv-x="544" 
d="M96 -244v66c39 2 66 7 82 14s23 15 23 26c0 6 -4 12 -11 18s-22 10 -43 10l44 60c37 -1 66 -5 85 -12s33 -15 40 -26s10 -23 10 -36c0 -27 -10 -49 -30 -66s-47 -30 -82 -39s-74 -14 -118 -15zM8 0l140 696h160l-76 -376h4l164 180h176l-206 -222l118 -278h-160l-68 186
l-68 -68l-24 -118h-160z" />
    <glyph glyph-name="kgreenlandic" unicode="&#x138;" horiz-adv-x="544" 
d="M8 0l98 500h160l-34 -180h4l164 180h176l-206 -222l118 -278h-160l-68 186l-68 -68l-24 -118h-160z" />
    <glyph glyph-name="Lacute" unicode="&#x139;" horiz-adv-x="514" 
d="M222 680l-61 92l207 127l70 -117zM26 0l130 650h160l-104 -516h236l-26 -134h-396z" />
    <glyph glyph-name="lacute" unicode="&#x13a;" horiz-adv-x="286" 
d="M182 718l-61 92l207 127l70 -117zM148 -12c-41 0 -70 10 -88 30s-26 46 -26 80c0 10 1 20 2 31s3 23 6 37l106 530h160l-108 -536c-1 -5 -2 -8 -2 -11v-8c0 -9 2 -15 6 -19s9 -6 14 -6h8c2 0 6 1 10 2l-6 -118c-9 -3 -20 -5 -34 -8s-30 -4 -48 -4z" />
    <glyph glyph-name="uni013B" unicode="&#x13b;" horiz-adv-x="514" 
d="M76 -244v66c39 2 66 7 82 14s23 15 23 26c0 6 -4 12 -11 18s-22 10 -43 10l44 60c37 -1 66 -5 85 -12s33 -15 40 -26s10 -23 10 -36c0 -27 -10 -49 -30 -66s-47 -30 -82 -39s-74 -14 -118 -15zM26 0l130 650h160l-104 -516h236l-26 -134h-396z" />
    <glyph glyph-name="uni013C" unicode="&#x13c;" horiz-adv-x="286" 
d="M-24 -244v66c39 2 66 7 82 14s23 15 23 26c0 6 -4 12 -11 18s-22 10 -43 10l44 60c37 -1 66 -5 85 -12s33 -15 40 -26s10 -23 10 -36c0 -27 -10 -49 -30 -66s-47 -30 -82 -39s-74 -14 -118 -15zM148 -12c-41 0 -70 10 -88 30s-26 46 -26 80c0 10 1 20 2 31s3 23 6 37
l106 530h160l-108 -536c-1 -5 -2 -8 -2 -11v-8c0 -9 2 -15 6 -19s9 -6 14 -6h8c2 0 6 1 10 2l-6 -118c-9 -3 -20 -5 -34 -8s-30 -4 -48 -4z" />
    <glyph glyph-name="Lcaron" unicode="&#x13d;" horiz-adv-x="514" 
d="M26 0l130 650h160l-104 -516h236l-26 -134h-396zM398 506l40 226h100l-16 -74l-56 -152h-68z" />
    <glyph glyph-name="lcaron" unicode="&#x13e;" horiz-adv-x="300" 
d="M148 -12c-41 0 -70 10 -88 30s-26 46 -26 80c0 10 1 20 2 31s3 23 6 37l106 530h160l-108 -536c-1 -5 -2 -8 -2 -11v-8c0 -9 2 -15 6 -19s9 -6 14 -6h8c2 0 6 1 10 2l-6 -118c-9 -3 -20 -5 -34 -8s-30 -4 -48 -4zM316 548l40 226h100l-16 -74l-56 -152h-68z" />
    <glyph glyph-name="Ldot" unicode="&#x13f;" horiz-adv-x="514" 
d="M26 0l130 650h160l-104 -516h236l-26 -134h-396zM414 228c-24 0 -43 8 -58 24s-22 35 -22 60c0 18 5 36 14 53s22 32 38 43s36 16 58 16c24 0 43 -8 58 -24s22 -36 22 -60c0 -19 -5 -37 -14 -54s-21 -31 -38 -42s-36 -16 -58 -16z" />
    <glyph glyph-name="ldot" unicode="&#x140;" horiz-adv-x="456" 
d="M148 -12c-41 0 -70 10 -88 30s-26 46 -26 80c0 10 1 20 2 31s3 23 6 37l106 530h160l-108 -536c-1 -5 -2 -8 -2 -11v-8c0 -9 2 -15 6 -19s9 -6 14 -6h8c2 0 6 1 10 2l-6 -118c-9 -3 -20 -5 -34 -8s-30 -4 -48 -4zM368 238c-24 0 -43 8 -58 24s-22 35 -22 60
c0 18 5 36 14 53s22 32 38 43s36 16 58 16c24 0 43 -8 58 -24s22 -36 22 -60c0 -19 -5 -37 -14 -54s-21 -31 -38 -42s-36 -16 -58 -16z" />
    <glyph glyph-name="Lslash" unicode="&#x141;" horiz-adv-x="514" 
d="M26 0l38 192l-47 -24l-38 102l112 56l65 324h160l-49 -241l144 73l38 -102l-208 -104l-29 -142h236l-26 -134h-396z" />
    <glyph glyph-name="lslash" unicode="&#x142;" horiz-adv-x="358" 
d="M190 -12c-41 0 -70 10 -88 30s-26 46 -26 80c0 10 1 20 2 31s3 23 6 37l20 101l-64 -33l-36 96l124 58l62 308h160l-47 -234l95 48l36 -96l-155 -72l-37 -182c-1 -5 -2 -8 -2 -11v-8c0 -9 2 -15 6 -19s9 -6 14 -6h8c2 0 6 1 10 2l-6 -118c-9 -3 -20 -5 -34 -8
s-30 -4 -48 -4z" />
    <glyph glyph-name="Nacute" unicode="&#x143;" horiz-adv-x="652" 
d="M372 680l-61 92l207 127l70 -117zM26 0l130 650h154l90 -308l32 -146h4c3 35 7 75 10 120s8 87 16 126l42 208h152l-130 -650h-154l-90 308l-30 146h-4c-3 -37 -6 -77 -10 -120s-10 -85 -18 -124l-42 -210h-152z" />
    <glyph glyph-name="nacute" unicode="&#x144;" horiz-adv-x="562" 
d="M356 578l-69 90l191 172l95 -122zM8 0l100 500h130v-64h4c23 20 49 38 76 53s56 23 88 23c41 0 71 -10 90 -32s28 -55 28 -98c0 -23 -3 -47 -8 -72l-62 -310h-160l58 290c2 9 4 17 6 24s2 14 2 20c0 28 -14 42 -42 42c-14 0 -28 -5 -41 -14s-29 -23 -47 -42l-62 -320
h-160z" />
    <glyph glyph-name="uni0145" unicode="&#x145;" horiz-adv-x="652" 
d="M136 -252v66c39 2 66 7 82 14s23 15 23 26c0 6 -4 12 -11 18s-22 10 -43 10l44 60c37 -1 66 -5 85 -12s33 -15 40 -26s10 -23 10 -36c0 -27 -10 -49 -30 -66s-47 -30 -82 -39s-74 -14 -118 -15zM26 0l130 650h154l90 -308l32 -146h4c3 35 7 75 10 120s8 87 16 126l42 208
h152l-130 -650h-154l-90 308l-30 146h-4c-3 -37 -6 -77 -10 -120s-10 -85 -18 -124l-42 -210h-152z" />
    <glyph glyph-name="uni0146" unicode="&#x146;" horiz-adv-x="562" 
d="M86 -244v66c39 2 66 7 82 14s23 15 23 26c0 6 -4 12 -11 18s-22 10 -43 10l44 60c37 -1 66 -5 85 -12s33 -15 40 -26s10 -23 10 -36c0 -27 -10 -49 -30 -66s-47 -30 -82 -39s-74 -14 -118 -15zM8 0l100 500h130v-64h4c23 20 49 38 76 53s56 23 88 23c41 0 71 -10 90 -32
s28 -55 28 -98c0 -23 -3 -47 -8 -72l-62 -310h-160l58 290c2 9 4 17 6 24s2 14 2 20c0 28 -14 42 -42 42c-14 0 -28 -5 -41 -14s-29 -23 -47 -42l-62 -320h-160z" />
    <glyph glyph-name="Ncaron" unicode="&#x147;" horiz-adv-x="652" 
d="M328 700l-64 110l78 44l84 -80h4l124 80l66 -50l-104 -104h-188zM26 0l130 650h154l90 -308l32 -146h4c3 35 7 75 10 120s8 87 16 126l42 208h152l-130 -650h-154l-90 308l-30 146h-4c-3 -37 -6 -77 -10 -120s-10 -85 -18 -124l-42 -210h-152z" />
    <glyph glyph-name="ncaron" unicode="&#x148;" horiz-adv-x="562" 
d="M292 580l-84 128l70 60l110 -88h4l150 88l54 -64l-128 -124h-176zM8 0l100 500h130v-64h4c23 20 49 38 76 53s56 23 88 23c41 0 71 -10 90 -32s28 -55 28 -98c0 -23 -3 -47 -8 -72l-62 -310h-160l58 290c2 9 4 17 6 24s2 14 2 20c0 28 -14 42 -42 42
c-14 0 -28 -5 -41 -14s-29 -23 -47 -42l-62 -320h-160z" />
    <glyph glyph-name="napostrophe" unicode="&#x149;" horiz-adv-x="858" 
d="M130 348l-24 68c27 9 49 21 67 36s32 31 41 46s14 27 14 36h-2h-4c-23 0 -42 6 -57 18s-23 30 -23 52c0 24 9 45 26 64s39 28 68 28c25 0 45 -9 60 -28s22 -46 22 -80c0 -43 -9 -81 -26 -114s-40 -59 -69 -80s-60 -37 -93 -46zM304 0l100 500h130v-64h4
c23 20 49 38 76 53s56 23 88 23c41 0 71 -10 90 -32s28 -55 28 -98c0 -23 -3 -47 -8 -72l-62 -310h-160l58 290c2 9 4 17 6 24s2 14 2 20c0 28 -14 42 -42 42c-14 0 -28 -5 -41 -14s-29 -23 -47 -42l-62 -320h-160z" />
    <glyph glyph-name="uni014A" unicode="&#x14a;" horiz-adv-x="660" 
d="M370 -12c-19 0 -38 1 -59 4s-36 8 -46 15l58 127c3 -2 7 -4 12 -6s10 -2 15 -2c15 0 30 8 45 24s29 37 41 64s22 57 29 90s11 67 11 102c0 42 -6 72 -19 90s-31 28 -54 28c-18 0 -38 -5 -61 -16s-45 -28 -66 -50l-90 -458h-160l130 650h152l-12 -58c27 23 54 40 80 52
s53 18 82 18c36 0 68 -8 95 -24s49 -43 64 -79s23 -84 23 -143c0 -57 -7 -112 -20 -164s-30 -96 -54 -136s-53 -71 -86 -94s-69 -34 -110 -34z" />
    <glyph glyph-name="uni014B" unicode="&#x14b;" horiz-adv-x="562" 
d="M254 -188c-18 0 -35 2 -52 6s-34 9 -52 18l48 114c14 -8 28 -12 42 -12c16 0 28 5 36 16s14 30 20 56l56 280c2 9 4 17 6 24s2 14 2 20c0 28 -14 42 -42 42c-14 0 -28 -5 -41 -14s-29 -23 -47 -42l-62 -320h-160l100 500h130v-64h4c23 20 49 38 76 53s56 23 88 23
c41 0 71 -10 90 -32s28 -55 28 -98c0 -23 -3 -47 -8 -72l-62 -308c-7 -35 -19 -66 -34 -95s-37 -52 -64 -69s-61 -26 -102 -26z" />
    <glyph glyph-name="Omacron" unicode="&#x14c;" horiz-adv-x="670" 
d="M270 716l20 102h300l-20 -102h-300zM308 -12c-50 0 -94 10 -132 32s-67 53 -88 94s-32 91 -32 150c0 61 9 115 28 164s44 91 76 126s68 61 108 80s81 28 124 28c50 0 94 -10 132 -32s67 -53 88 -94s32 -91 32 -150c0 -61 -9 -115 -28 -164s-44 -91 -76 -126
s-67 -61 -107 -80s-82 -28 -125 -28zM316 126c25 0 50 11 75 32s46 50 63 87s26 81 26 131c0 47 -9 84 -26 110s-40 38 -70 38c-25 0 -50 -11 -75 -32s-46 -50 -63 -87s-26 -81 -26 -131c0 -47 9 -83 26 -109s40 -39 70 -39z" />
    <glyph glyph-name="omacron" unicode="&#x14d;" horiz-adv-x="540" 
d="M188 590l20 100h294l-20 -100h-294zM226 -12c-40 0 -75 9 -105 26s-53 42 -70 73s-25 68 -25 109c0 49 8 92 24 131s39 71 66 99s58 49 92 64s67 22 102 22c40 0 75 -9 105 -26s53 -42 70 -73s25 -68 25 -109c0 -49 -8 -92 -24 -131s-39 -71 -66 -99s-58 -49 -92 -64
s-67 -22 -102 -22zM244 116c19 0 36 8 52 24s29 38 38 66s14 60 14 96c0 25 -5 45 -14 60s-23 22 -42 22s-36 -8 -52 -24s-29 -38 -38 -66s-14 -60 -14 -96c0 -25 5 -45 14 -60s23 -22 42 -22z" />
    <glyph glyph-name="uni014E" unicode="&#x14e;" horiz-adv-x="670" 
d="M419 694c-51 0 -88 11 -113 34s-36 58 -33 106l96 16c1 -19 7 -34 19 -44s29 -14 49 -14c42 0 71 19 88 58l88 -16c-13 -48 -35 -83 -68 -106s-75 -34 -126 -34zM308 -12c-50 0 -94 10 -132 32s-67 53 -88 94s-32 91 -32 150c0 61 9 115 28 164s44 91 76 126
s68 61 108 80s81 28 124 28c50 0 94 -10 132 -32s67 -53 88 -94s32 -91 32 -150c0 -61 -9 -115 -28 -164s-44 -91 -76 -126s-67 -61 -107 -80s-82 -28 -125 -28zM316 126c25 0 50 11 75 32s46 50 63 87s26 81 26 131c0 47 -9 84 -26 110s-40 38 -70 38
c-25 0 -50 -11 -75 -32s-46 -50 -63 -87s-26 -81 -26 -131c0 -47 9 -83 26 -109s40 -39 70 -39z" />
    <glyph glyph-name="uni014F" unicode="&#x14f;" horiz-adv-x="540" 
d="M339 572c-59 0 -99 15 -122 45s-31 68 -24 115l100 16c-1 -20 5 -37 15 -50s27 -20 51 -20s43 7 58 20s25 30 32 50l92 -16c-9 -47 -30 -85 -63 -115s-80 -45 -139 -45zM226 -12c-40 0 -75 9 -105 26s-53 42 -70 73s-25 68 -25 109c0 49 8 92 24 131s39 71 66 99
s58 49 92 64s67 22 102 22c40 0 75 -9 105 -26s53 -42 70 -73s25 -68 25 -109c0 -49 -8 -92 -24 -131s-39 -71 -66 -99s-58 -49 -92 -64s-67 -22 -102 -22zM244 116c19 0 36 8 52 24s29 38 38 66s14 60 14 96c0 25 -5 45 -14 60s-23 22 -42 22s-36 -8 -52 -24
s-29 -38 -38 -66s-14 -60 -14 -96c0 -25 5 -45 14 -60s23 -22 42 -22z" />
    <glyph glyph-name="Ohungarumlaut" unicode="&#x150;" horiz-adv-x="670" 
d="M348 693l-76 47l132 153l97 -69zM546 693l-76 47l132 153l97 -69zM308 -12c-50 0 -94 10 -132 32s-67 53 -88 94s-32 91 -32 150c0 61 9 115 28 164s44 91 76 126s68 61 108 80s81 28 124 28c50 0 94 -10 132 -32s67 -53 88 -94s32 -91 32 -150c0 -61 -9 -115 -28 -164
s-44 -91 -76 -126s-67 -61 -107 -80s-82 -28 -125 -28zM316 126c25 0 50 11 75 32s46 50 63 87s26 81 26 131c0 47 -9 84 -26 110s-40 38 -70 38c-25 0 -50 -11 -75 -32s-46 -50 -63 -87s-26 -81 -26 -131c0 -47 9 -83 26 -109s40 -39 70 -39z" />
    <glyph glyph-name="ohungarumlaut" unicode="&#x151;" horiz-adv-x="540" 
d="M288 566l-82 48l120 174l104 -60zM478 566l-82 48l120 174l104 -60zM226 -12c-40 0 -75 9 -105 26s-53 42 -70 73s-25 68 -25 109c0 49 8 92 24 131s39 71 66 99s58 49 92 64s67 22 102 22c40 0 75 -9 105 -26s53 -42 70 -73s25 -68 25 -109c0 -49 -8 -92 -24 -131
s-39 -71 -66 -99s-58 -49 -92 -64s-67 -22 -102 -22zM244 116c19 0 36 8 52 24s29 38 38 66s14 60 14 96c0 25 -5 45 -14 60s-23 22 -42 22s-36 -8 -52 -24s-29 -38 -38 -66s-14 -60 -14 -96c0 -25 5 -45 14 -60s23 -22 42 -22z" />
    <glyph glyph-name="OE" unicode="&#x152;" horiz-adv-x="840" 
d="M348 0c-91 0 -162 21 -214 62s-78 106 -78 194s16 162 48 220s74 101 128 130s116 44 184 44h440l-26 -134h-228l-22 -114h192l-26 -134h-192l-28 -134h236l-26 -134h-388zM352 128h14l78 394h-24c-36 0 -70 -8 -100 -25s-54 -44 -72 -81s-28 -87 -28 -150
c0 -51 13 -86 38 -107s56 -31 94 -31z" />
    <glyph glyph-name="oe" unicode="&#x153;" horiz-adv-x="792" 
d="M216 -12c-38 0 -72 9 -100 26s-50 42 -66 73s-24 68 -24 109c0 49 8 92 24 131s37 71 64 99s56 49 88 64s65 22 98 22c35 0 63 -8 84 -22s39 -35 54 -62c23 27 50 48 78 62s55 22 82 22c41 0 74 -9 98 -26s41 -40 52 -69s16 -60 16 -95c0 -24 -3 -47 -10 -70
s-12 -38 -16 -46h-262c1 -37 10 -62 28 -76s40 -22 66 -22c14 0 28 3 44 10s29 14 40 22l56 -100c-19 -13 -42 -25 -70 -36s-60 -16 -96 -16c-34 0 -65 8 -93 22s-50 35 -65 64c-24 -28 -50 -49 -80 -64s-60 -22 -90 -22zM244 116c17 0 34 8 48 24s26 38 34 66s12 60 12 96
c0 25 -5 45 -14 60s-23 22 -42 22c-16 0 -32 -8 -46 -24s-25 -38 -34 -66s-14 -60 -14 -96c0 -25 5 -45 14 -60s23 -22 42 -22zM488 302h142c1 4 2 9 3 14s1 9 1 14c0 17 -4 32 -12 43s-23 17 -44 17c-17 0 -33 -6 -50 -20s-30 -37 -40 -68z" />
    <glyph glyph-name="Racute" unicode="&#x154;" horiz-adv-x="612" 
d="M352 680l-61 92l207 127l70 -117zM26 0l130 650h214c43 0 82 -5 117 -16s63 -30 83 -55s30 -59 30 -101c0 -61 -14 -110 -44 -147s-68 -65 -113 -82l97 -249h-168l-75 224h-67l-44 -224h-160zM256 350h58c43 0 75 10 96 29s32 44 32 75c0 24 -8 42 -24 53s-40 17 -70 17
h-58z" />
    <glyph glyph-name="racute" unicode="&#x155;" horiz-adv-x="400" 
d="M8 0l100 500h130l-4 -98h4c19 32 42 58 68 79s54 31 82 31c14 0 25 0 34 -2s15 -5 20 -8l-52 -138c-7 4 -15 6 -25 7s-19 1 -27 1c-21 0 -40 -7 -59 -21s-38 -38 -57 -71l-54 -280h-160zM286 578l-69 90l191 172l95 -122z" />
    <glyph glyph-name="uni0156" unicode="&#x156;" horiz-adv-x="612" 
d="M146 -252v66c39 2 66 7 82 14s23 15 23 26c0 6 -4 12 -11 18s-22 10 -43 10l44 60c37 -1 66 -5 85 -12s33 -15 40 -26s10 -23 10 -36c0 -27 -10 -49 -30 -66s-47 -30 -82 -39s-74 -14 -118 -15zM26 0l130 650h214c43 0 82 -5 117 -16s63 -30 83 -55s30 -59 30 -101
c0 -61 -14 -110 -44 -147s-68 -65 -113 -82l97 -249h-168l-75 224h-67l-44 -224h-160zM256 350h58c43 0 75 10 96 29s32 44 32 75c0 24 -8 42 -24 53s-40 17 -70 17h-58z" />
    <glyph glyph-name="uni0157" unicode="&#x157;" horiz-adv-x="400" 
d="M-64 -244v66c39 2 66 7 82 14s23 15 23 26c0 6 -4 12 -11 18s-22 10 -43 10l44 60c37 -1 66 -5 85 -12s33 -15 40 -26s10 -23 10 -36c0 -27 -10 -49 -30 -66s-47 -30 -82 -39s-74 -14 -118 -15zM8 0l100 500h130l-4 -98h4c19 32 42 58 68 79s54 31 82 31c14 0 25 0 34 -2
s15 -5 20 -8l-52 -138c-7 4 -15 6 -25 7s-19 1 -27 1c-21 0 -40 -7 -59 -21s-38 -38 -57 -71l-54 -280h-160z" />
    <glyph glyph-name="Rcaron" unicode="&#x158;" horiz-adv-x="612" 
d="M308 700l-64 110l78 44l84 -80h4l124 80l66 -50l-104 -104h-188zM26 0l130 650h214c43 0 82 -5 117 -16s63 -30 83 -55s30 -59 30 -101c0 -61 -14 -110 -44 -147s-68 -65 -113 -82l97 -249h-168l-75 224h-67l-44 -224h-160zM256 350h58c43 0 75 10 96 29s32 44 32 75
c0 24 -8 42 -24 53s-40 17 -70 17h-58z" />
    <glyph glyph-name="rcaron" unicode="&#x159;" horiz-adv-x="400" 
d="M8 0l100 500h130l-4 -98h4c19 32 42 58 68 79s54 31 82 31c14 0 25 0 34 -2s15 -5 20 -8l-52 -138c-7 4 -15 6 -25 7s-19 1 -27 1c-21 0 -40 -7 -59 -21s-38 -38 -57 -71l-54 -280h-160zM222 580l-84 128l70 60l110 -88h4l150 88l54 -64l-128 -124h-176z" />
    <glyph glyph-name="Sacute" unicode="&#x15a;" horiz-adv-x="538" 
d="M322 688l-61 92l207 127l70 -117zM240 -12c-41 0 -82 9 -124 28s-80 52 -114 97l114 90c17 -23 38 -42 62 -57s49 -22 74 -22c23 0 42 5 56 15s20 24 20 42c0 15 -7 26 -20 35s-31 21 -54 35l-56 35c-30 19 -53 42 -70 67s-26 58 -26 99c0 39 11 74 32 106s50 57 86 76
s77 28 121 28c38 0 74 -9 109 -27s66 -43 93 -74l-100 -94c-17 17 -34 30 -51 41s-36 16 -57 16c-23 0 -39 -5 -51 -16s-18 -25 -18 -40c0 -13 6 -25 20 -34s34 -21 60 -38l60 -37c31 -19 54 -40 68 -63s20 -54 20 -92c0 -39 -10 -75 -31 -108s-50 -60 -88 -79
s-83 -29 -135 -29z" />
    <glyph glyph-name="sacute" unicode="&#x15b;" horiz-adv-x="432" 
d="M266 578l-69 90l191 172l95 -122zM172 -12c-19 0 -40 4 -63 11s-44 19 -65 33s-39 32 -54 54l92 76c18 -21 35 -35 52 -44s33 -14 48 -14s29 4 40 10s16 14 16 24c0 13 -7 24 -22 32s-36 19 -62 34c-25 14 -46 33 -66 56s-30 51 -30 84c0 32 9 61 27 86s42 45 73 60
s65 22 102 22c36 0 68 -8 96 -24s53 -34 74 -56l-86 -82c-12 12 -25 22 -39 31s-29 13 -45 13s-29 -3 -38 -10s-14 -16 -14 -26c0 -14 9 -25 26 -33s35 -18 54 -29c16 -9 32 -20 47 -32s28 -26 38 -44s15 -39 15 -64c0 -33 -10 -63 -28 -88s-43 -45 -76 -59
s-70 -21 -112 -21z" />
    <glyph glyph-name="Scircumflex" unicode="&#x15c;" horiz-adv-x="538" 
d="M254 688l-66 50l104 104h188l64 -110l-78 -44l-84 80h-4zM240 -12c-41 0 -82 9 -124 28s-80 52 -114 97l114 90c17 -23 38 -42 62 -57s49 -22 74 -22c23 0 42 5 56 15s20 24 20 42c0 15 -7 26 -20 35s-31 21 -54 35l-56 35c-30 19 -53 42 -70 67s-26 58 -26 99
c0 39 11 74 32 106s50 57 86 76s77 28 121 28c38 0 74 -9 109 -27s66 -43 93 -74l-100 -94c-17 17 -34 30 -51 41s-36 16 -57 16c-23 0 -39 -5 -51 -16s-18 -25 -18 -40c0 -13 6 -25 20 -34s34 -21 60 -38l60 -37c31 -19 54 -40 68 -63s20 -54 20 -92
c0 -39 -10 -75 -31 -108s-50 -60 -88 -79s-83 -29 -135 -29z" />
    <glyph glyph-name="scircumflex" unicode="&#x15d;" horiz-adv-x="432" 
d="M146 558l-54 64l128 124h176l84 -128l-70 -60l-110 88h-4zM172 -12c-19 0 -40 4 -63 11s-44 19 -65 33s-39 32 -54 54l92 76c18 -21 35 -35 52 -44s33 -14 48 -14s29 4 40 10s16 14 16 24c0 13 -7 24 -22 32s-36 19 -62 34c-25 14 -46 33 -66 56s-30 51 -30 84
c0 32 9 61 27 86s42 45 73 60s65 22 102 22c36 0 68 -8 96 -24s53 -34 74 -56l-86 -82c-12 12 -25 22 -39 31s-29 13 -45 13s-29 -3 -38 -10s-14 -16 -14 -26c0 -14 9 -25 26 -33s35 -18 54 -29c16 -9 32 -20 47 -32s28 -26 38 -44s15 -39 15 -64c0 -33 -10 -63 -28 -88
s-43 -45 -76 -59s-70 -21 -112 -21z" />
    <glyph glyph-name="uni015E" unicode="&#x15e;" horiz-adv-x="538" 
d="M90 -244v66c38 2 64 6 80 12s25 16 28 30c1 9 -3 17 -12 24s-28 12 -58 16l68 100h98l-40 -64c25 -6 43 -14 54 -26s15 -29 12 -50c-7 -36 -30 -63 -70 -80s-93 -26 -160 -28zM240 -12c-41 0 -82 9 -124 28s-80 52 -114 97l114 90c17 -23 38 -42 62 -57s49 -22 74 -22
c23 0 42 5 56 15s20 24 20 42c0 15 -7 26 -20 35s-31 21 -54 35l-56 35c-30 19 -53 42 -70 67s-26 58 -26 99c0 39 11 74 32 106s50 57 86 76s77 28 121 28c38 0 74 -9 109 -27s66 -43 93 -74l-100 -94c-17 17 -34 30 -51 41s-36 16 -57 16c-23 0 -39 -5 -51 -16
s-18 -25 -18 -40c0 -13 6 -25 20 -34s34 -21 60 -38l60 -37c31 -19 54 -40 68 -63s20 -54 20 -92c0 -39 -10 -75 -31 -108s-50 -60 -88 -79s-83 -29 -135 -29z" />
    <glyph glyph-name="uni015F" unicode="&#x15f;" horiz-adv-x="432" 
d="M20 -244v66c38 2 64 6 80 12s25 16 28 30c1 9 -3 17 -12 24s-28 12 -58 16l68 100h98l-40 -64c25 -6 43 -14 54 -26s15 -29 12 -50c-7 -36 -30 -63 -70 -80s-93 -26 -160 -28zM172 -12c-19 0 -40 4 -63 11s-44 19 -65 33s-39 32 -54 54l92 76c18 -21 35 -35 52 -44
s33 -14 48 -14s29 4 40 10s16 14 16 24c0 13 -7 24 -22 32s-36 19 -62 34c-25 14 -46 33 -66 56s-30 51 -30 84c0 32 9 61 27 86s42 45 73 60s65 22 102 22c36 0 68 -8 96 -24s53 -34 74 -56l-86 -82c-12 12 -25 22 -39 31s-29 13 -45 13s-29 -3 -38 -10s-14 -16 -14 -26
c0 -14 9 -25 26 -33s35 -18 54 -29c16 -9 32 -20 47 -32s28 -26 38 -44s15 -39 15 -64c0 -33 -10 -63 -28 -88s-43 -45 -76 -59s-70 -21 -112 -21z" />
    <glyph glyph-name="Scaron" unicode="&#x160;" horiz-adv-x="538" 
d="M278 708l-64 110l78 44l84 -80h4l124 80l66 -50l-104 -104h-188zM240 -12c-41 0 -82 9 -124 28s-80 52 -114 97l114 90c17 -23 38 -42 62 -57s49 -22 74 -22c23 0 42 5 56 15s20 24 20 42c0 15 -7 26 -20 35s-31 21 -54 35l-56 35c-30 19 -53 42 -70 67s-26 58 -26 99
c0 39 11 74 32 106s50 57 86 76s77 28 121 28c38 0 74 -9 109 -27s66 -43 93 -74l-100 -94c-17 17 -34 30 -51 41s-36 16 -57 16c-23 0 -39 -5 -51 -16s-18 -25 -18 -40c0 -13 6 -25 20 -34s34 -21 60 -38l60 -37c31 -19 54 -40 68 -63s20 -54 20 -92
c0 -39 -10 -75 -31 -108s-50 -60 -88 -79s-83 -29 -135 -29z" />
    <glyph glyph-name="scaron" unicode="&#x161;" horiz-adv-x="432" 
d="M202 580l-84 128l70 60l110 -88h4l150 88l54 -64l-128 -124h-176zM172 -12c-19 0 -40 4 -63 11s-44 19 -65 33s-39 32 -54 54l92 76c18 -21 35 -35 52 -44s33 -14 48 -14s29 4 40 10s16 14 16 24c0 13 -7 24 -22 32s-36 19 -62 34c-25 14 -46 33 -66 56s-30 51 -30 84
c0 32 9 61 27 86s42 45 73 60s65 22 102 22c36 0 68 -8 96 -24s53 -34 74 -56l-86 -82c-12 12 -25 22 -39 31s-29 13 -45 13s-29 -3 -38 -10s-14 -16 -14 -26c0 -14 9 -25 26 -33s35 -18 54 -29c16 -9 32 -20 47 -32s28 -26 38 -44s15 -39 15 -64c0 -33 -10 -63 -28 -88
s-43 -45 -76 -59s-70 -21 -112 -21z" />
    <glyph glyph-name="uni0162" unicode="&#x162;" horiz-adv-x="540" 
d="M76 -244v66c38 2 64 6 80 12s25 16 28 30c1 9 -3 17 -12 24s-28 12 -58 16l68 100h98l-40 -64c25 -6 43 -14 54 -26s15 -29 12 -50c-7 -36 -30 -63 -70 -80s-93 -26 -160 -28zM142 0l102 516h-164l26 134h488l-26 -134h-164l-102 -516h-160z" />
    <glyph glyph-name="uni0163" unicode="&#x163;" horiz-adv-x="384" 
d="M40 -244v66c38 2 64 6 80 12s25 16 28 30c1 9 -3 17 -12 24s-28 12 -58 16l68 100h98l-40 -64c25 -6 43 -14 54 -26s15 -29 12 -50c-7 -36 -30 -63 -70 -80s-93 -26 -160 -28zM210 -12c-53 0 -90 14 -114 40s-36 59 -36 100c0 11 0 23 2 34s4 21 6 32l38 182h-64l24 118
l72 6l44 128h134l-24 -128h108l-24 -124h-112l-38 -188c-1 -6 -2 -11 -2 -16v-16c0 -29 16 -44 48 -44c6 0 12 1 18 3s12 4 18 7l28 -112c-14 -5 -31 -9 -52 -14s-46 -8 -74 -8z" />
    <glyph glyph-name="Tcaron" unicode="&#x164;" horiz-adv-x="540" 
d="M268 700l-64 110l78 44l84 -80h4l124 80l66 -50l-104 -104h-188zM142 0l102 516h-164l26 134h488l-26 -134h-164l-102 -516h-160z" />
    <glyph glyph-name="tcaron" unicode="&#x165;" horiz-adv-x="384" 
d="M210 -12c-53 0 -90 14 -114 40s-36 59 -36 100c0 11 0 23 2 34s4 21 6 32l38 182h-64l24 118l72 6l44 128h134l-24 -128h108l-24 -124h-112l-38 -188c-1 -6 -2 -11 -2 -16v-16c0 -29 16 -44 48 -44c6 0 12 1 18 3s12 4 18 7l28 -112c-14 -5 -31 -9 -52 -14s-46 -8 -74 -8
zM337 548l40 226h100l-16 -74l-56 -152h-68z" />
    <glyph glyph-name="uni0166" unicode="&#x166;" horiz-adv-x="540" 
d="M142 0l53 266h-121l18 90l92 6h30l30 154h-164l26 134h488l-26 -134h-164l-30 -154h118l-18 -96h-119l-53 -266h-160z" />
    <glyph glyph-name="uni0167" unicode="&#x167;" horiz-adv-x="384" 
d="M210 -12c-53 0 -90 14 -114 40s-36 59 -36 100c0 11 0 23 2 34s4 21 6 32l4 20h-62l18 90l64 4l14 68h-64l24 118l72 6l44 128h134l-24 -128h108l-24 -124h-112l-13 -66h109l-18 -96h-111l-5 -26c-1 -6 -2 -11 -2 -16v-16c0 -29 16 -44 48 -44c6 0 12 1 18 3s12 4 18 7
l28 -112c-14 -5 -31 -9 -52 -14s-46 -8 -74 -8z" />
    <glyph glyph-name="Utilde" unicode="&#x168;" horiz-adv-x="654" 
d="M496 686c-23 0 -43 4 -58 13s-27 17 -38 26s-21 13 -30 13c-8 0 -15 -3 -22 -8s-13 -17 -18 -34l-108 8c13 55 35 95 64 118s61 34 98 34c23 0 43 -4 58 -13s27 -17 38 -26s21 -13 30 -13c8 0 15 2 22 8s13 17 18 34l108 -8c-13 -55 -34 -94 -63 -117s-62 -35 -99 -35z
M316 -12c-81 0 -142 19 -182 57s-60 97 -60 177c0 15 2 33 5 54s6 39 9 56l64 318h160l-70 -350c-2 -13 -4 -26 -6 -38s-2 -24 -2 -36c0 -33 6 -57 18 -74s35 -26 68 -26c29 0 53 12 70 36s31 64 42 120l74 368h156l-74 -364c-20 -102 -52 -178 -96 -226s-102 -72 -176 -72z
" />
    <glyph glyph-name="utilde" unicode="&#x169;" horiz-adv-x="552" 
d="M406 572c-21 0 -38 5 -52 14s-26 19 -37 28s-22 14 -35 14c-8 0 -15 -4 -22 -10s-13 -18 -16 -36l-104 6c9 57 27 98 54 122s59 36 96 36c22 0 40 -5 53 -14s25 -19 36 -28s22 -14 35 -14c8 0 16 4 23 10s12 18 15 36l104 -6c-9 -57 -27 -98 -54 -122s-59 -36 -96 -36z
M150 -12c-41 0 -71 11 -90 33s-28 54 -28 97c0 23 3 47 8 72l62 310h160l-58 -290c-2 -9 -4 -17 -6 -24s-2 -14 -2 -20c0 -28 14 -42 42 -42c13 0 26 5 39 14s27 23 43 42l62 320h160l-98 -500h-130v64h-4c-21 -20 -45 -38 -73 -53s-57 -23 -87 -23z" />
    <glyph glyph-name="Umacron" unicode="&#x16a;" horiz-adv-x="654" 
d="M280 716l20 102h300l-20 -102h-300zM316 -12c-81 0 -142 19 -182 57s-60 97 -60 177c0 15 2 33 5 54s6 39 9 56l64 318h160l-70 -350c-2 -13 -4 -26 -6 -38s-2 -24 -2 -36c0 -33 6 -57 18 -74s35 -26 68 -26c29 0 53 12 70 36s31 64 42 120l74 368h156l-74 -364
c-20 -102 -52 -178 -96 -226s-102 -72 -176 -72z" />
    <glyph glyph-name="umacron" unicode="&#x16b;" horiz-adv-x="552" 
d="M188 590l20 100h294l-20 -100h-294zM150 -12c-41 0 -71 11 -90 33s-28 54 -28 97c0 23 3 47 8 72l62 310h160l-58 -290c-2 -9 -4 -17 -6 -24s-2 -14 -2 -20c0 -28 14 -42 42 -42c13 0 26 5 39 14s27 23 43 42l62 320h160l-98 -500h-130v64h-4c-21 -20 -45 -38 -73 -53
s-57 -23 -87 -23z" />
    <glyph glyph-name="Ubreve" unicode="&#x16c;" horiz-adv-x="654" 
d="M429 694c-51 0 -88 11 -113 34s-36 58 -33 106l96 16c1 -19 7 -34 19 -44s29 -14 49 -14c42 0 71 19 88 58l88 -16c-13 -48 -35 -83 -68 -106s-75 -34 -126 -34zM316 -12c-81 0 -142 19 -182 57s-60 97 -60 177c0 15 2 33 5 54s6 39 9 56l64 318h160l-70 -350
c-2 -13 -4 -26 -6 -38s-2 -24 -2 -36c0 -33 6 -57 18 -74s35 -26 68 -26c29 0 53 12 70 36s31 64 42 120l74 368h156l-74 -364c-20 -102 -52 -178 -96 -226s-102 -72 -176 -72z" />
    <glyph glyph-name="ubreve" unicode="&#x16d;" horiz-adv-x="552" 
d="M339 572c-59 0 -99 15 -122 45s-31 68 -24 115l100 16c-1 -20 5 -37 15 -50s27 -20 51 -20s43 7 58 20s25 30 32 50l92 -16c-9 -47 -30 -85 -63 -115s-80 -45 -139 -45zM150 -12c-41 0 -71 11 -90 33s-28 54 -28 97c0 23 3 47 8 72l62 310h160l-58 -290
c-2 -9 -4 -17 -6 -24s-2 -14 -2 -20c0 -28 14 -42 42 -42c13 0 26 5 39 14s27 23 43 42l62 320h160l-98 -500h-130v64h-4c-21 -20 -45 -38 -73 -53s-57 -23 -87 -23z" />
    <glyph glyph-name="Uring" unicode="&#x16e;" horiz-adv-x="654" 
d="M436 696c-31 0 -57 7 -80 21s-34 36 -34 67c0 21 6 40 18 57s27 31 47 41s42 16 65 16c29 0 56 -8 79 -22s35 -36 35 -66c0 -21 -6 -41 -18 -58s-26 -31 -46 -41s-42 -15 -66 -15zM438 756c11 0 21 4 30 14s14 21 14 34c0 9 -3 17 -8 24s-13 10 -24 10
c-13 0 -24 -5 -32 -15s-12 -21 -12 -33c0 -9 3 -17 8 -24s13 -10 24 -10zM316 -12c-81 0 -142 19 -182 57s-60 97 -60 177c0 15 2 33 5 54s6 39 9 56l64 318h160l-70 -350c-2 -13 -4 -26 -6 -38s-2 -24 -2 -36c0 -33 6 -57 18 -74s35 -26 68 -26c29 0 53 12 70 36
s31 64 42 120l74 368h156l-74 -364c-20 -102 -52 -178 -96 -226s-102 -72 -176 -72z" />
    <glyph glyph-name="uring" unicode="&#x16f;" horiz-adv-x="552" 
d="M336 570c-35 0 -65 8 -88 24s-34 39 -34 68c0 33 15 61 44 83s65 33 110 33c36 0 65 -8 88 -24s34 -39 34 -68c0 -33 -15 -60 -44 -82s-65 -34 -110 -34zM346 630c12 0 22 6 31 16s13 22 13 36c0 9 -3 18 -8 25s-13 11 -24 11c-12 0 -22 -6 -31 -16s-13 -22 -13 -36
c0 -10 3 -19 8 -26s13 -10 24 -10zM150 -12c-41 0 -71 11 -90 33s-28 54 -28 97c0 23 3 47 8 72l62 310h160l-58 -290c-2 -9 -4 -17 -6 -24s-2 -14 -2 -20c0 -28 14 -42 42 -42c13 0 26 5 39 14s27 23 43 42l62 320h160l-98 -500h-130v64h-4c-21 -20 -45 -38 -73 -53
s-57 -23 -87 -23z" />
    <glyph glyph-name="Uhungarumlaut" unicode="&#x170;" horiz-adv-x="654" 
d="M358 693l-76 47l132 153l97 -69zM556 693l-76 47l132 153l97 -69zM316 -12c-81 0 -142 19 -182 57s-60 97 -60 177c0 15 2 33 5 54s6 39 9 56l64 318h160l-70 -350c-2 -13 -4 -26 -6 -38s-2 -24 -2 -36c0 -33 6 -57 18 -74s35 -26 68 -26c29 0 53 12 70 36s31 64 42 120
l74 368h156l-74 -364c-20 -102 -52 -178 -96 -226s-102 -72 -176 -72z" />
    <glyph glyph-name="uhungarumlaut" unicode="&#x171;" horiz-adv-x="552" 
d="M288 566l-82 48l120 174l104 -60zM478 566l-82 48l120 174l104 -60zM150 -12c-41 0 -71 11 -90 33s-28 54 -28 97c0 23 3 47 8 72l62 310h160l-58 -290c-2 -9 -4 -17 -6 -24s-2 -14 -2 -20c0 -28 14 -42 42 -42c13 0 26 5 39 14s27 23 43 42l62 320h160l-98 -500h-130v64
h-4c-21 -20 -45 -38 -73 -53s-57 -23 -87 -23z" />
    <glyph glyph-name="Uogonek" unicode="&#x172;" horiz-adv-x="654" 
d="M258 -226c-29 0 -52 8 -70 22s-28 33 -28 58c0 20 5 40 15 58s21 34 35 48s27 26 38 34c-57 10 -100 34 -130 72s-44 89 -44 156c0 15 2 33 5 54s6 39 9 56l64 318h160l-70 -350c-2 -13 -4 -26 -6 -38s-2 -24 -2 -36c0 -33 6 -57 18 -74s35 -26 68 -26c29 0 53 12 70 36
s31 64 42 120l74 368h156l-74 -364c-11 -59 -25 -108 -43 -146s-40 -67 -67 -90s-61 -41 -100 -56c-34 -12 -58 -26 -72 -42s-22 -32 -22 -46c0 -10 3 -17 10 -22s15 -8 24 -8c7 0 15 3 24 8l30 -76c-15 -10 -32 -18 -54 -24s-42 -10 -60 -10z" />
    <glyph glyph-name="uogonek" unicode="&#x173;" horiz-adv-x="552" 
d="M316 -212c-26 0 -47 7 -64 20s-26 31 -26 56c0 22 5 42 16 60s24 33 38 46s25 23 34 30v64h-4c-21 -20 -45 -38 -73 -53s-57 -23 -87 -23c-41 0 -71 11 -90 33s-28 54 -28 97c0 23 3 47 8 72l62 310h160l-58 -290c-2 -9 -4 -17 -6 -24s-2 -14 -2 -20c0 -28 14 -42 42 -42
c13 0 26 5 39 14s27 23 43 42l62 320h160l-98 -500c-32 -8 -57 -20 -76 -36s-28 -34 -28 -54c0 -9 3 -15 10 -20s15 -8 24 -8s19 3 30 10l26 -64c-15 -11 -32 -20 -54 -28s-42 -12 -60 -12z" />
    <glyph glyph-name="Wcircumflex" unicode="&#x174;" horiz-adv-x="808" 
d="M70 0l28 650h164l-26 -294c-3 -34 -6 -69 -10 -104s-9 -69 -14 -104h4c13 35 28 70 42 105s27 70 40 103l123 294h133v-294c-1 -33 -2 -67 -4 -102l-6 -106h4c11 35 23 71 35 106s23 69 33 102l98 294h152l-246 -650h-202l8 278c0 19 2 44 4 72s4 54 7 79h-4
c-9 -24 -18 -49 -28 -75s-20 -51 -29 -76l-108 -278h-198zM384 680l-66 50l104 104h188l64 -110l-78 -44l-84 80h-4z" />
    <glyph glyph-name="wcircumflex" unicode="&#x175;" horiz-adv-x="764" 
d="M92 0l-19 500h158l-5 -222c-1 -25 -2 -49 -4 -74s-5 -51 -6 -76h4c9 25 18 51 27 76s18 50 29 74l91 222h136l5 -222c1 -25 1 -49 0 -74s-2 -51 -2 -76h4c9 25 18 51 26 76s15 49 24 74l80 222h148l-208 -500h-186v186c1 23 2 46 2 70s1 49 2 76h-4
c-9 -27 -18 -52 -26 -76s-15 -47 -24 -70l-72 -186h-180zM316 558l-54 64l128 124h176l84 -128l-70 -60l-110 88h-4z" />
    <glyph glyph-name="Ycircumflex" unicode="&#x176;" horiz-adv-x="528" 
d="M244 680l-66 50l104 104h188l64 -110l-78 -44l-84 80h-4zM137 0l45 228l-103 422h166l21 -144c4 -25 8 -48 11 -71s7 -47 11 -73h4c13 26 26 51 38 74s24 47 38 72l78 142h172l-276 -422l-46 -228h-159z" />
    <glyph glyph-name="ycircumflex" unicode="&#x177;" horiz-adv-x="518" 
d="M186 558l-54 64l128 124h176l84 -128l-70 -60l-110 88h-4zM52 -188c-10 0 -23 2 -38 6s-28 10 -38 16l48 114c11 -7 24 -10 38 -10c15 0 31 6 46 16s26 24 35 41l10 20l-88 485h159l18 -205c2 -21 3 -45 4 -73s2 -54 2 -78h4c10 23 21 49 32 76s22 52 32 75l90 205h154
l-261 -499c-37 -65 -74 -112 -111 -143s-83 -46 -136 -46z" />
    <glyph glyph-name="Ydieresis" unicode="&#x178;" horiz-adv-x="528" 
d="M250 696c-18 0 -34 6 -46 17s-18 27 -18 47s8 39 23 57s35 27 59 27c17 0 32 -6 45 -17s19 -27 19 -47s-8 -39 -23 -57s-35 -27 -59 -27zM470 696c-18 0 -34 6 -46 17s-18 27 -18 47s8 39 23 57s35 27 59 27c17 0 32 -6 45 -17s19 -27 19 -47s-8 -39 -23 -57
s-35 -27 -59 -27zM137 0l45 228l-103 422h166l21 -144c4 -25 8 -48 11 -71s7 -47 11 -73h4c13 26 26 51 38 74s24 47 38 72l78 142h172l-276 -422l-46 -228h-159z" />
    <glyph glyph-name="Zacute" unicode="&#x179;" horiz-adv-x="530" 
d="M312 680l-61 92l207 127l70 -117zM-6 0l20 96l330 420h-240l26 134h432l-20 -96l-326 -420h264l-28 -134h-458z" />
    <glyph glyph-name="zacute" unicode="&#x17a;" horiz-adv-x="456" 
d="M296 578l-69 90l191 172l95 -122zM-10 0l18 90l240 286h-164l24 124h364l-18 -92l-240 -284h190l-24 -124h-390z" />
    <glyph glyph-name="Zdotaccent" unicode="&#x17b;" horiz-adv-x="530" 
d="M366 698c-21 0 -40 6 -58 18s-26 31 -26 56c0 24 9 45 28 63s41 27 68 27c21 0 41 -6 58 -19s26 -31 26 -55c0 -26 -10 -47 -28 -64s-41 -26 -68 -26zM-6 0l20 96l330 420h-240l26 134h432l-20 -96l-326 -420h264l-28 -134h-458z" />
    <glyph glyph-name="zdotaccent" unicode="&#x17c;" horiz-adv-x="456" 
d="M320 564c-21 0 -40 6 -58 18s-26 31 -26 56c0 24 9 45 28 63s41 27 68 27c21 0 41 -6 58 -19s26 -31 26 -55c0 -26 -10 -47 -28 -64s-41 -26 -68 -26zM-10 0l18 90l240 286h-164l24 124h364l-18 -92l-240 -284h190l-24 -124h-390z" />
    <glyph glyph-name="Zcaron" unicode="&#x17d;" horiz-adv-x="530" 
d="M268 700l-64 110l78 44l84 -80h4l124 80l66 -50l-104 -104h-188zM-6 0l20 96l330 420h-240l26 134h432l-20 -96l-326 -420h264l-28 -134h-458z" />
    <glyph glyph-name="zcaron" unicode="&#x17e;" horiz-adv-x="456" 
d="M232 580l-84 128l70 60l110 -88h4l150 88l54 -64l-128 -124h-176zM-10 0l18 90l240 286h-164l24 124h364l-18 -92l-240 -284h190l-24 -124h-390z" />
    <glyph glyph-name="endash" unicode="&#x2013;" horiz-adv-x="464" 
d="M34 202l20 102h376l-20 -102h-376z" />
    <glyph glyph-name="emdash" unicode="&#x2014;" horiz-adv-x="772" 
d="M34 202l20 102h684l-20 -102h-684z" />
    <glyph glyph-name="quoteleft" unicode="&#x2018;" horiz-adv-x="310" 
d="M174 324c-25 0 -45 9 -60 28s-22 46 -22 80c0 43 9 81 26 114s40 59 69 80s60 37 93 46l24 -68c-26 -9 -48 -21 -66 -36s-33 -31 -42 -46s-14 -27 -14 -36h4h2c23 0 43 -6 58 -18s22 -30 22 -52c0 -24 -8 -45 -25 -64s-40 -28 -69 -28z" />
    <glyph glyph-name="quoteright" unicode="&#x2019;" horiz-adv-x="310" 
d="M130 348l-24 68c27 9 49 21 67 36s32 31 41 46s14 27 14 36h-2h-4c-23 0 -42 6 -57 18s-23 30 -23 52c0 24 9 45 26 64s39 28 68 28c25 0 45 -9 60 -28s22 -46 22 -80c0 -43 -9 -81 -26 -114s-40 -59 -69 -80s-60 -37 -93 -46z" />
    <glyph glyph-name="quotedblleft" unicode="&#x201c;" horiz-adv-x="550" 
d="M174 324c-25 0 -45 9 -60 28s-22 46 -22 80c0 43 9 81 26 114s40 59 69 80s60 37 93 46l24 -68c-26 -9 -48 -21 -66 -36s-33 -31 -42 -46s-14 -27 -14 -36h4h2c23 0 43 -6 58 -18s22 -30 22 -52c0 -24 -8 -45 -25 -64s-40 -28 -69 -28zM414 324c-25 0 -45 9 -60 28
s-22 46 -22 80c0 43 9 81 26 114s40 59 69 80s60 37 93 46l24 -68c-26 -9 -48 -21 -66 -36s-33 -31 -42 -46s-14 -27 -14 -36h4h2c23 0 43 -6 58 -18s22 -30 22 -52c0 -24 -8 -45 -25 -64s-40 -28 -69 -28z" />
    <glyph glyph-name="quotedblright" unicode="&#x201d;" horiz-adv-x="550" 
d="M130 348l-24 68c27 9 49 21 67 36s32 31 41 46s14 27 14 36h-2h-4c-23 0 -42 6 -57 18s-23 30 -23 52c0 24 9 45 26 64s39 28 68 28c25 0 45 -9 60 -28s22 -46 22 -80c0 -43 -9 -81 -26 -114s-40 -59 -69 -80s-60 -37 -93 -46zM370 348l-24 68c27 9 49 21 67 36
s32 31 41 46s14 27 14 36h-2h-4c-23 0 -42 6 -57 18s-23 30 -23 52c0 24 9 45 26 64s39 28 68 28c25 0 45 -9 60 -28s22 -46 22 -80c0 -43 -9 -81 -26 -114s-40 -59 -69 -80s-60 -37 -93 -46z" />
    <glyph glyph-name="bullet" unicode="&#x2022;" horiz-adv-x="344" 
d="M160 120c-35 0 -64 12 -87 36s-35 53 -35 90c0 25 6 50 18 74s29 44 51 60s48 24 77 24c35 0 65 -12 88 -35s34 -54 34 -91c0 -25 -6 -50 -18 -74s-29 -44 -51 -60s-48 -24 -77 -24z" />
    <glyph glyph-name="ellipsis" unicode="&#x2026;" horiz-adv-x="982" 
d="M144 -12c-24 0 -43 8 -58 24s-22 35 -22 60c0 18 5 36 14 53s22 32 38 43s36 16 58 16c24 0 43 -8 58 -24s22 -36 22 -60c0 -19 -5 -37 -14 -54s-21 -31 -38 -42s-36 -16 -58 -16zM460 -12c-24 0 -43 8 -58 24s-22 35 -22 60c0 18 5 36 14 53s22 32 38 43s36 16 58 16
c24 0 43 -8 58 -24s22 -36 22 -60c0 -19 -5 -37 -14 -54s-21 -31 -38 -42s-36 -16 -58 -16zM776 -12c-24 0 -43 8 -58 24s-22 35 -22 60c0 18 5 36 14 53s22 32 38 43s36 16 58 16c24 0 43 -8 58 -24s22 -36 22 -60c0 -19 -5 -37 -14 -54s-21 -31 -38 -42s-36 -16 -58 -16z
" />
    <glyph glyph-name="uni2032" unicode="&#x2032;" horiz-adv-x="310" 
d="M88 324l94 360h158l-54 -154l-94 -206h-104z" />
    <glyph glyph-name="uni2033" unicode="&#x2033;" horiz-adv-x="550" 
d="M88 324l94 360h158l-54 -154l-94 -206h-104zM328 324l94 360h158l-54 -154l-94 -206h-104z" />
    <glyph glyph-name="colonmonetary" unicode="&#x20a1;" 
d="M120 -110l39 125c-33 19 -59 48 -77 86s-28 85 -28 141c0 79 14 148 41 208s65 108 111 144s97 56 153 61l31 99h52l-31 -100c11 -1 22 -3 32 -6l33 106h52l-39 -126c17 -11 33 -24 47 -40s27 -35 38 -54l-110 -72c-5 10 -11 19 -18 28l-116 -371c11 3 22 9 34 16
s23 16 34 25l74 -94c-33 -27 -65 -46 -96 -58s-60 -18 -87 -19l-31 -99h-52l31 100c-5 1 -11 2 -16 3s-11 2 -16 3l-33 -106h-52zM208 252c0 -11 1 -21 2 -31s2 -19 5 -27l100 321c-23 -12 -42 -31 -58 -57s-29 -58 -37 -93s-12 -73 -12 -113zM249 136c7 -7 17 -13 29 -16
l126 402c-11 4 -22 6 -33 6z" />
    <glyph glyph-name="lira" unicode="&#x20a4;" 
d="M-4 0l20 98c30 13 56 29 77 48s37 42 47 68h-98l16 74l72 6h21c-1 7 -1 16 -2 24l-3 24h-78l16 74l56 5c3 45 16 85 38 119s52 59 88 78s76 28 120 28c36 0 67 -7 94 -22s50 -37 70 -64l-102 -84c-11 14 -22 25 -32 32s-23 10 -38 10c-21 0 -40 -7 -56 -22
s-26 -40 -31 -74h147l-16 -80h-130l3 -24c1 -8 1 -15 1 -22v-2h114l-16 -80h-110c-9 -26 -23 -51 -44 -76v-4h226l-24 -134h-446z" />
    <glyph glyph-name="uni20A6" unicode="&#x20a6;" 
d="M204 526l-10 -120h22l-8 120h-4zM16 0l47 238h-65l12 56l66 6l8 44h-64l10 56l67 6l47 238h148l22 -234v-4h49l1 8l44 230h118l-47 -238h67l-14 -62h-66l-8 -44h66l-12 -62h-67l-47 -238h-146l-24 234v4h-49l-1 -10l-44 -228h-118zM334 118h4l11 120h-23zM184 300h39
l-3 44h-32zM322 300h32l4 44h-39z" />
    <glyph glyph-name="peseta" unicode="&#x20a7;" 
d="M6 0l75 372h-57l18 92l59 5l33 165h178c35 0 66 -5 94 -16s50 -29 66 -53s24 -56 24 -95h54l-18 -98h-51c-13 -37 -33 -68 -59 -92s-56 -42 -90 -54s-68 -18 -104 -18h-30l-42 -208h-150zM264 534l-13 -64h96c-3 43 -23 64 -61 64h-22zM218 306h22c21 0 40 6 56 18
s28 27 37 48h-102z" />
    <glyph glyph-name="uni20A9" unicode="&#x20a9;" horiz-adv-x="514" 
d="M308 484l-34 -132h19l19 132h-4zM29 0l27 290h-62l12 56l56 5l26 283h138l-46 -282h29l68 242h117l-27 -242h31l67 282h127l-84 -282h50l-12 -62h-57l-86 -290h-157l37 285l1 5h-25l-2 -6l-75 -284h-153zM139 109h4l40 150l9 31h-22l-5 -31zM338 109h4l34 150l7 31h-23
l-4 -31z" />
    <glyph glyph-name="dong" unicode="&#x20ab;" 
d="M190 116c-39 0 -69 13 -91 38s-33 59 -33 104c0 36 6 68 19 96s29 52 49 71s42 34 65 44s46 15 67 15s38 -3 50 -9s22 -15 32 -27l10 62l7 34h-139l16 80h138l10 50h130l-10 -50h68l-14 -74l-70 -6l-84 -418h-108l-2 36h-2c-15 -14 -31 -26 -50 -34s-39 -12 -58 -12z
M244 222c11 0 22 2 32 7s19 13 30 25l20 100c-14 16 -30 24 -48 24c-11 0 -22 -4 -34 -11s-22 -18 -30 -33s-12 -33 -12 -56c0 -37 14 -56 42 -56zM24 0l16 78h394l-16 -78h-394z" />
    <glyph glyph-name="Euro" unicode="&#x20ac;" 
d="M294 -12c-65 0 -116 20 -154 59s-60 96 -63 171h-63l16 74l48 4c1 9 3 18 4 26l3 24h-45l16 74l51 4c18 48 42 89 72 124s64 61 103 80s81 28 124 28c37 0 68 -9 92 -27s45 -42 62 -71l-114 -76c-7 15 -14 26 -23 34s-20 12 -33 12c-29 0 -54 -9 -74 -28s-37 -43 -50 -74
h194l-16 -80h-200c-3 -15 -5 -31 -6 -48h158l-16 -80h-142c3 -33 13 -58 28 -76s35 -26 62 -26c14 0 28 4 42 12s27 19 40 32l74 -94c-35 -30 -68 -51 -100 -62s-63 -16 -90 -16z" />
    <glyph glyph-name="uni20AE" unicode="&#x20ae;" horiz-adv-x="540" 
d="M132 0l23 116l-105 -50l-26 64l148 68l12 61l-104 -49l-26 64l146 68l34 168h-152l24 124h464l-24 -124h-152l-19 -93l99 49l26 -64l-141 -68l-12 -61l97 49l26 -64l-140 -67l-38 -191h-160z" />
    <glyph glyph-name="uni20B1" unicode="&#x20b1;" 
d="M6 0l67 330h-57l12 56l57 5l9 45h-56l12 56l56 5l28 137h178c47 0 88 -10 122 -30s53 -56 60 -106h62l-12 -62h-49c-1 -8 -2 -15 -3 -22s-3 -15 -4 -22h46l-12 -62h-56c-24 -46 -58 -80 -102 -102s-90 -32 -138 -32h-30l-40 -196h-150zM264 534l-7 -36h84
c-9 24 -27 36 -55 36h-22zM216 296h22c30 0 54 11 73 34h-88zM235 392h106c1 7 3 15 4 22s2 14 2 22h-103z" />
    <glyph glyph-name="uni20B2" unicode="&#x20b2;" 
d="M176 -110l20 105c-50 11 -88 39 -116 81s-42 97 -42 166c0 74 13 140 39 198s61 104 105 140s92 60 146 70l20 104h104l-20 -103c25 -7 46 -19 64 -35s33 -35 46 -58l-114 -76c-7 15 -14 26 -23 34s-20 12 -33 12c-37 0 -69 -12 -95 -38s-46 -60 -59 -102
s-20 -87 -20 -136c0 -43 7 -76 22 -100s36 -36 64 -36c5 0 12 1 18 2s11 4 16 8l24 112h-58l26 130h198l-60 -302c-19 -16 -41 -31 -66 -45s-52 -24 -81 -29l-21 -102h-104z" />
    <glyph glyph-name="uni20B4" unicode="&#x20b4;" horiz-adv-x="515" 
d="M237 -12c-61 0 -106 14 -135 42s-44 64 -44 109c0 27 4 51 11 73h-52l15 73l73 6h10c9 9 18 17 27 25s19 15 28 22h-128l15 73l73 6h166c11 9 21 19 28 30s10 22 10 35c0 29 -15 43 -45 43c-17 0 -34 -4 -51 -13s-36 -22 -55 -38l-57 100c27 19 56 36 88 51s68 22 108 22
c52 0 93 -13 122 -38s43 -61 43 -107c0 -32 -6 -60 -17 -85h57l-16 -79h-99c-10 -9 -20 -16 -31 -24s-22 -16 -33 -23h154l-16 -79h-252c-16 -17 -24 -36 -24 -55c0 -14 4 -25 12 -34s21 -13 39 -13c39 0 86 19 139 57l44 -101c-21 -17 -45 -32 -70 -44s-49 -20 -73 -26
s-45 -8 -64 -8z" />
    <glyph glyph-name="uni20B5" unicode="&#x20b5;" 
d="M202 -110l20 102c-53 10 -94 36 -124 79s-44 100 -44 171c0 78 13 146 40 206s64 108 110 144s96 57 151 62l17 88h86l-19 -94c26 -8 48 -21 66 -40s34 -40 49 -64l-110 -72c-11 20 -21 34 -32 42l-78 -392c9 3 19 8 28 15s17 14 26 23l74 -94c-27 -23 -54 -40 -80 -52
s-51 -20 -74 -23l-20 -101h-86zM214 252c0 -56 12 -95 37 -117l77 386c-25 -10 -47 -28 -64 -55s-30 -59 -38 -96s-12 -76 -12 -118z" />
    <glyph glyph-name="uni20B8" unicode="&#x20b8;" horiz-adv-x="540" 
d="M134 0l84 424h-152l16 74l78 6h386l-16 -80h-154l-84 -424h-158zM92 554l16 80h462l-16 -80h-462z" />
    <glyph glyph-name="uni20B9" unicode="&#x20b9;" 
d="M56 200l24 126h50c29 0 55 5 76 16s36 27 47 46h-159l14 74l74 6h84c-3 18 -13 31 -28 38s-35 10 -60 10h-60l26 128h384l-16 -80h-122c11 -12 20 -27 26 -44s8 -34 8 -52h70l-16 -80h-64c-9 -33 -25 -62 -46 -86s-45 -45 -74 -60l94 -242h-168l-66 202
c-6 -1 -12 -2 -18 -2h-18h-62z" />
    <glyph glyph-name="uni20BA" unicode="&#x20ba;" 
d="M270 135c40 5 73 21 99 48s40 61 43 103l136 30c0 -64 -13 -117 -39 -160s-61 -77 -105 -102s-94 -43 -150 -53s-114 -14 -174 -13l46 228l-72 -34l-26 64l114 53l13 60l-71 -33l-26 64l113 52l39 193h160l-24 -118l128 65l26 -64l-170 -83l-12 -61l126 64l26 -64
l-169 -82z" />
    <glyph glyph-name="uni20BD" unicode="&#x20bd;" horiz-adv-x="540" 
d="M6 0l27 134h-69l16 78l70 6l9 44h-69l16 78l70 6l58 288h173c39 0 73 -6 103 -16s55 -26 73 -48s27 -49 27 -84c0 -43 -12 -81 -34 -115s-54 -61 -95 -80s-90 -29 -147 -29h-26l-9 -44h193l-18 -84h-191l-27 -134h-150zM226 346h22c30 0 55 12 74 35s28 51 28 83
c0 23 -6 39 -17 49s-28 15 -49 15h-22z" />
    <glyph glyph-name="trademark" unicode="&#x2122;" horiz-adv-x="668" 
d="M108 360l44 224h-82l18 92h262l-18 -92h-78l-44 -224h-102zM328 360l60 316h114l20 -86l6 -68h4l28 68l54 86h116l-60 -316h-100l18 88l44 128h-4l-98 -170h-48l-32 170h-4l-4 -128l-18 -88h-96z" />
    </font>
</defs>
</svg>
